<mxfile host="app.diagrams.net" modified="2024-06-06T12:21:58.367Z" agent="Mozilla/5.0 (X11; Linux x86_64) AppleWebKit/537.36 (KHTML, like Gecko) Chrome/121.0.0.0 Safari/537.36" etag="JvxghsFyHH4TomrkjOxD" version="24.4.15" type="github">
  <diagram name="PÃ¡gina-1" id="SdePNxzAQRl1tDEdjPhL">
    <mxGraphModel dx="1291" dy="1209" grid="0" gridSize="10" guides="1" tooltips="1" connect="1" arrows="1" fold="1" page="0" pageScale="1" pageWidth="827" pageHeight="1169" math="0" shadow="0">
      <root>
        <mxCell id="0" />
        <mxCell id="1" parent="0" />
        <mxCell id="0uokaSrq0YpH4WJHY4VE-3" value="" style="shape=image;verticalLabelPosition=bottom;labelBackgroundColor=default;verticalAlign=top;aspect=fixed;imageAspect=0;image=data:image/png,iVBORw0KGgoAAAANSUhEUgAAA3sAAAJ0CAYAAACr7DqCAAAABHNCSVQICAgIfAhkiAAAABl0RVh0U29mdHdhcmUAZ25vbWUtc2NyZWVuc2hvdO8Dvz4AAAAmdEVYdENyZWF0aW9uIFRpbWUAanVlIDA2IGp1biAyMDI0IDA3OjIwOjQyRbPoJQAAIABJREFUeJzs3WVAVFkbwPH/hJQSioqugQ1iAYItdmB3r92uu66usfu667ax1rp2rLnW2t3dndgoNqACSjMw7weVFRtm4M7g8/vE3Ln3Oc89DMM8c889R6XX6/UkQ1hYGPb29sk5xKzjBQQE4OzsbLR4pn6+0n+mFU/6zzDSf4aR/jOM9J9hpP8MI/1nGOk/w0j/GcaY/ac2ShQhhBBCCCGEECZFij0hhBBCCCGESIek2BNCCCGEEEKIdEiKPSGEEEIIIYRIh6TYE0IIIYQQQoh0SIo9IYQQQgghhEiHpNgTQgghhBBCiHRIij0hhBBCCCGESIdUoaGhyVpU/VMTGhqKg4OD0mmYLek/w0j/GUb6zzDSf4aR/jOM9J9hpP8MI/1nGOk/wxiz/7TJXe3d1FecN3a80NBQk87P1ONJ/xlG+s8w0n+Gkf4zjPSfYaT/DCP9ZxjpP8NI/xnGmP0nwziFEEIIIYQQIh2SYk8IIYQQQggh0iEp9oQQQgghhBAiHZJiTwghhBBCCCHSISn2hBBCCCGEECIdkmJPCCGEEEIIIdIhKfaEEEIIIYQQIh2SYk8IIYQQQggh0iEp9oQQQgghhBAiHdIqnYAQQghlBD96xKbN29ixczfXrt/g2bNwEhISlE7rg7RaLVmyZKaoSxEaNaxHjepVsbS0VDotIYQQwuRIsSeEEJ+YVWvWM3HSFKKjoqlbpxZ9enXHragrdna2qNWmP+BDp9Px6NFjTp0+w7oNmxky7HuKFnXhu2GD8XAvqXR6QgghhMmQYk8IIT4Ru3bvZfCw7ylerChzZk6hcKGCSqeUIlqtlhw5nKjnW4d6vnUA2LV7H4OGfEdGGxumTp5Anty5FM5SCCGEUJ4Ue0IIkc7p9Xp69xvAtes3WLZ4HoUKFlA6JaOrXs2H6tV82LxlO74NmtGvT0/69OqmdFpCCCGEokx/vI4QQogUe/YsHJ9qdcmdOxe7tm1Il4Xeq3zr1uLk0X3s3LWbXn2/UjodIYQQQlFS7AkhRDr17Fk4VWvW44u+Pfn+uyFKp5NmLC0tWbFsEdbW1rTv1F3pdIQQQgjFSLEnhBDpkF6vp16j5gwe9BWtWzVXOh1FTBw3Cgd7e77+ZpjSqQghhBCKkGJPCCHSoT5ffE2tGtVo84kWei9NmTQOv0tXWLFqjdKpCCGEEGlOJmgRQoh0Zs/e/Vy5cpXpUyYqnYpJWLLwbypWqYVv3dpktLFROh0hhBAizahCQ0P1SidhykJDQ3FwcFA6DbMl/WcY6T/DfKr9V6N2Q/5ZOAeXIoWVTsVkTJ0+i3PnLjB65M9p1uan+vozFuk/w0j/GUb6zzDSf4YxZv9p7e3tk3VAWFgYyT3GnOOFhoaadH6mHk/6zzDSf4b5FPtv776DuLgUkULvNX1796CERzn0gMM7+tyQ38e9e/fZsGkLu/fsw9//FuEREej1pv9daoYMWrJmzYpHqZLUr18Xn0oV0GpTNuhH/n5NK570n2Gk/wwj/WcYY/afDOMUQoh0ZMKfU5g6eXyatbdx09bEn+vXq/PO/a5dv8H6DZt5+vQpP/7wXVqk9obOHdszZdos/jfsG6PE0+v1LFi0hKnTZ6HVaqlfry7fDPyKIoULkSlTRtRq078tPi4ujsCgYI4dP8GChYvp9+VAynp78b9vB1O4UEGl0xNCCGEgKfaEECKdCA0N5enTpxR1dUmzNs+evwBASEjIe4u9Gzf8uXkrgA7tWqdVam/o2vlzatRpYJRib+Xqdfz48+9U9anEyuX/kDvXZ0bIMO1lyJCB3Lk+I3euRjRr0gi9Xs/6DZvp2Lkn+QvkY8qf48icWYZiCSGEuZJiTwgh0omdu/dRq1b1NG3zu6GD2Lh5K7t2703ctnDREu7eu4+tbSbKlvHG28uTWwG3yZjRhtNnzlK2jBdr12/kypVrqNVqSpYoTqWK5bGxsU7VXDNndiBDhgw8evyYrI6OKYoRExNDh849iIuNY8mivylezM3IWSpLpVLRqGE9GjWsxz9LllPBpya//DicFs2bKJ2aEEKIFDD9MSZCCCE+yr79B6lbu6YibcfFxQEweeoMbgXcpmKFcjg4ODB/4T8AOOfNg16vJ3/+fKzfuJktW3fg7l6Soq5FWL5iFSdOnkqTPMuV8ebI0eMpOvbe/fuUq1SDGtWqsmblknRX6L2ufdtWHNq/g2kz5/D9iF+VTkcIIUQKSLEnhBDpxLVrNyjmVlSRtnVxOgDOnrtAlSqVsba2wqVIIaytrZNc9atTqwbnz1+kfLkyZHawJ3v2bHh7eXLl6rU0ydPby5PTp88m+7i7d+9R27cJ4//4nd49u6ZCZqYps4MDO7eux//mTQYO/lbpdIQQQiSTDOMUQoh04umzp4rdX6VSqYDnV/i2bd+ZuN3S0pLIqCg0r0xWEh4ewdVr17l67XritpQOq0yu/PnzsXvv/mQdExUVTYMmLZkyaTxVq1RKlbxM3T8L5tCyzeeMGTuRId8MUDodIYQQH0mKPSGESCfi4xPQaDRp0tYf4/6keHE3fOvUQqfTYW9vB4CFhQXVq/pQtUpl1Go1x46foIy3F5u3bEs81s7OlqxZHenetRMABw8fwdO9VJrkbWdnx7Nnz5J1TNsOXejfr/cnW+i9tGzxfMpVqkGliuWpUL6s0ukIIYT4CFLsCSHStYiICAIDgwgJDSXuxVBDQ2JlzJjRSJkljadWq8mUKSPZs2XD0TFL4pUyU5UlS2a279hNWNhTTp46jXupkgCU8SrNjp27iYmJJTQslL37Dr6xbpunhztLl6/A0TELWq2WTZu2EhkRSa2aqT+5TEJCPGr1xxfEixYvw8LSgm5dOqZiVuZBrVazaP4sWrbpyJkTB03+NSqEEEKKPSFEOhMfH8/6jZtZvORfLvpdwtLSkpw5nMicOTMZMpjuW15CQgLh4eE8DAziyZMQnLJno0F9Xz7v0Aan7Nk/KoZFhgzExsZiaWmZytmCT+WK2Nvb8eBBIGW9vRJna+zerRNr12/khr8/NtY2dOnUAU8PdzZv2UaJ4sUAqF2rOhkyaLl85fl9eq1aNqNaVZ9UzxkgOPgRjo5ZPmrf+Ph4fh81lgN7tn14509EkcKF8K1bizFjJzJ08NdKpyOEEOIDTPeTjxBCJENkZCQ//zaates2UsWnEgMHfIFXaY83riqZi9t37vLvytXUb9SSHE7Z+fXnH3AvVeK9x2TN6siDh4Hkc86b6vkVLlTwnYtuN25Y/41tvnVrJ3lcrapPmhV4r7p85SouRQp91L5Tp8+mYQNfsmTJnMpZmZcfv/8WD+9KfDPwyzQbNiyEECJlZDZOIYTZmzl7LqXL+pDDyYnzp48wfcpEypX1NttCDyBvntwMGtCfE0f2MmzIQPoP+IbPO/cgMjLynceULFmcY8dPpmGW5ufwkWOU8fb6qH3nzF3AkEHvnoxk46atbNy01VipfZSjx06wavU6lv27ip279qRp2y9ZWVlRq2Z1li5boUj7QgghPp4Ue0IIsxUbG0uT5m3Zt/8gJ47sY8CXfc26wHuXShXLs3/3Vqr4VMK7fNV3rhNXs3pVNmzcnLbJmZmz5y7g8RGTwVy+cpVs2bK+c8jnRb/LbNq8lXUbNuHnd9nYab7V1OmzmDt/IQG37/D48WO2bNvBkGHfc/bc+TRp/1X9evdg7oJ/0rxdIYQQyZP+PhUJIT4JT0JCqOPbhG5dO9K7Zzel00kT3bt2olDBAvTq+xXDvx1MyxZNkzxfrqw3g4b8D71eL5NnvIXfpcvkzJkDS0uLD+67avU6WjRr/M7nL1+5kjiRztVr13FzcwVg+sw5ODo6EhBwm9Ke7tjb23Ps+AmehISSI3t2unb5PDHGrNnzCH78GAd7O/r27vHefLZs3cHRYyf48ovelPb0SNw+asx4tmzdQamSz4f4Llu+ktt375Lrs5y0bd0SlUrF9Jlz6Nq5IxYWGZg+cw5qtZqe3bswfeYc8uTJzbnzF7GzzUSDenVxds7LiZOnOHb8JKFhT8nqmCVxcppXh2y6uBTmwYOH6HS6dPkFixBCpBdyZU8IYXYiIiKoWachw/835JMp9F6qWqUy+3dvZcy4iaxZuyHJcxqNhrJlvFi3YZNC2Zm2CX9OoVePLh+1774Dh6hRveo7nz9x4jSenu54erhz4uSpxO1hYU+5e/de4n2TS5evQK1WU7lieZ4+e8bI0eMA+H3UWGLjYqlcqQIajYYffvztvflcuXqVUiVLJCn0AMqW9eba9RtcuXqN8RMnExgUjHdpTwIC7jB56sznx175b8H62Ng49Ho9AFOmzeL6dX/KeHkSHR3Dwn+WArBi1VpsbGzwqVSB8PBwJkya8tacXIoUxu/SlffmLYQQQllS7AkhzE6jZm0YNKD/WycC+RTY2dmybdNaho/45Y0hhN8OHcSoMeMVysx0PXkSwuEjx2jetMlH7X/v3n2c8+Z563MHDh4mNCyMoi4uuLoUIfjRYw4fOZb4vFaroUXzJlSr6sPjx0/wcC+JlZUlFSuUZcGiJQB8N+wbSpUsgT4hgSKFCxEYFPTefMLDIxLXMnyVvZ0dMTExxMbGMn/hYsqW8aJqlcqU9nSnRHG3xP3U6udXejNk0PKi1iNXrs9o0qg+NapXZdDX/Tlw6AgAo377iYIF8hMfH4+rSxGCgoLfeqXY3b0k585feG/eQgghlCVjL4QQZuX7H3+lVMkStG/XWulUFJU5swML5s6kQ+funDy6P/HDuEuRwjjnzcvSZSto07qFwlmajkFDvmPggC/42NGt8fHxZMiQ4a3PnTh1mqyOjixavAyA7NmycfrMWcqXK4NKpcLO7r+iTK1Ws3b9f1dam78YGvrHuD8JDAwid+5cH7UkiI2NDc+ehb+xPTwiAgsLCywyWKDiv6GWtWvVeGsclUoN6N/b1k+/jCQ6OoYcOZzQat8922aB/Pm4eSvgg7kLIYRQjhR7QgizcePGTTZs3MKpY/uVTsUkeHqUomF9X74f8Su//vx94vbJk8ZSuWodfH1rY2/35tWgT83OXXu44X+TubOnfdT+8fHxqNVvH/ji53eZkyfP0KNbpyTb5y9czJUr11CpVInDJAHi4nT8+tN/v5sTJ08DcPbceb7q3xdvL082bNzCufMX35tT4cIFWbtuI+cv+CW5YnfmzFkKFSyAi0thvL1LExcXl3jODx4G0qFdaxL0+sTzCQsLw87OFoCAgNvkzZuHZ+HhHD12gvv37j/ffvsOc2ZOQaVSsXjJcgJu33lrf2R2cOBM2Ln35i2EEEJZUuwJIczG14OHMWbkzzL5yCtGfP8tJT3LM2hgf9Qv+iWroyM//G8ordp0ZOumNQpnqKzg4Ef0HzCYLRtXf/Qxrxdsrzp/4SK5PsuJT+WKSbavXb+JS1euoFKp0Ol0idudnfMwcdIUihZ15caNmwQFBeFV2gMrSytu+N/k9p27nD9/gZiYGLZu20md2m+/ItegXl0uXbrC9JlzKO3pjrW1NTdv3uLBw0C6dOoAgId7KXbv2ceTkBBOnjxNtmxZAdi2fSdr1m0kJiYGBwd74uPjE+OOm/AXJYq7cebseTq/iBMfH8/a9RuJjo7h7r37REVGsXnrdnzr1EqSU3x8vKyzJ4QQJk4VGhr6/vEcn7jQ0FAcHByUTsNsSf8ZRvrvPwG379Cr7wAO79+hdComZ+r0WVy/4c+I4cOSbP/xl5GEhoZ99BWt9CYiIoKqNesx5JsB1K5ZPVnHlqtUg0vnT7yxfdHiZVhYWNDqtZlQFy9ZTsIrBWKHdq2JjY3FwsKCxUuX8/jxExwdHWnXpiXwfAKYCxcuYmVlhXvJEly7foOY2Fg6dmj73ry2bNvBrVu30el0OGXPhpubK8XciiY+v2z5SoKCg3HKnp1WLZsBsGHTFvz9b5E9e7bEQrRDu9bUbdCMgQO+4OrV6zg42NPhxdDoHTt3c/nKNezt7fi8fRsWLV6GSqWifdtWSXKZNWceQcHBfNGn58d2a7LI+59hpP8MI/1nGOk/wxi1//TJFBoamtxDzDrerVu3jBrP1M9X+s+04kn//WfAwKH6Rf8sTXHs30aN1e/Zuz/JtlFjxutnzZmn1+v1et8Gzd56XJ9+A/S79+x/63PvM+Ln3/XLlq9MfqIpEB0doy9awuut/de3/0B9+47d9AkJCWmSi6kIDAzSly7ro1+0eNlHH/Nq/3l4V9KHh4enRmomo079pvpbtwL00dHR+ujo6GQfP/Cbb/Xr1m9KfCzvf6YVT/rPMNJ/hpH+M4wx+0+GcQohzML2nbsZ+duPKT7e3/8m5cp4Jdn26nA2Pc+H/AE8fvIEAFeXInzZv0+K2mvTqnnKEk0BS0sLXF2KcPrMOapWqZzkuSmTxvHzr6OoXLUOixf9Td48udMsL6Vs276TrwYOZcLYkdR9bejhx3IpUpiLfpco4+314Z2NZMasv3n06PFbn/vft4ON3l7JEsWwtrbG0tIyRcefPnOWAV/2NXJWQgghjEmKPSGEyXvw8CEODvZYWVkZFOf1xZ9ff7zwn6XMW/APVXwq4VunFq4uRZj01zRatWyOq0sRps+cw+XLV9EDFSuUo1WLpqzfuJktW3eQkJCARqOhUYN61K5VnaXLV+Lm+nxq/mkzZuN36QpqtQoHe3saNqiHV2kP+vb/mqKurty44U9EZCQtmjehzjtmUfyQpk0asnnr9jeKPYAfhg+jQvmy1GvYnLatWzBsyMB0ea9VcPAjBg7+lnv37rNj63pyfZYzxbHq1qnJug2b07TY69Wja5q1BTBm5C8pPjY+Pp6HgUHk+QS+PBBCCHMm6+wJIUze8eOnKONd2uA4FhYWSR6/PrW+s3Mezp06TO2a1dm+c3eS5xYtXkZgUDATx4/m8/at2bxlO8dPnOLgoSM0qFeHaZMnUMWnIrv37Ety3JZtO7hwwY+/Jv7Bn+PHkCVLFg4dPgrA4cPHyJUrJxPHj6ZyxQocPfbmPWIfq1LF8pw6deadz9esUY0zJw4SFR1NcfeyfP/jr9x7MfuiuTt95iyduvamRp2G1K1dk13bNxpU6AE0bODLps1bjZRh+rNz1x68vTyVTkMIIcQHyJU9IYTJu+h3iVIlShg9rv61GRebN32+BlqJ4m5MmzE7yXPXrl2nUKGCAHiV9mTu7KkvYiRw5ep1/poyg4SEBKJjopMcd+fOXfLlc058XKBAPvbuPZD4+OWwSnt7O54+fZric8n12WcEBr5/YW6tVsuvP33P8G8H8/e8hbRs25HIyCjcS5XEq7QHhQrmx87O7p3LDpgCnU7Ho8ePuXz5KseOn+DylWsUyJ+P3r26Mf/v6UZrJ0vmzGTLmpVTp8/g6eFutLjpxZ9/TeOH1yYEEkIIYXqk2BNCmLz79x8YfBVBpVIRHp50UeqwsKc4ONi/dV/dK/fzAVhaWiYubfDyXj+NRsOcvxdQoXw5irm5otPpuBWQdJHphAQ9Go2ahIQE1Go1arX6v9gqksykaMiSEhYWGYh7Zcr/97GysqJv7x707d2DiIgITp85x8lTZ9i6bSdPnz0jISEBgOjoaIOGziYkJBAZGUmmTJmA54Xa60Nnk0ur1eKYJQuFCxXkm4FfUraMd6oNSR02ZCAjfv6d9auXp0p8c3Xl6jUeP3lC2TJpN8RVCCFEykixJ4QweZFRUdy8ddugGLlz5eLM2fM4O+elcKGCHDp8lKvXrlOpYrnEfbZt30XtWtW5eu06r5ddefPk5v7Dh4mPBw/7nqaNGxAdE0OJEsXw9CjF9Jl/v9FujhzZOXjoZuLjwMAgnJyyJz6+6HcZr9IewJvDTNNCxowZqVSxPJUqln/juYCAAJydnd9y1McJCwtj8ODBzJw5LfGxvf2bxbUh8VPz3sNqVX345bfR7D9wiMqVKqRaO+ZmwKBh/PLj9x/eMYX8/W+xbsOmFwvDPyQyMuqd6x6aEgsLC5yyZ8PLy5OG9X0pV9Zb1gQVQihOij0hhMmztramQP6UFx0AdWrXYOnyFUyZOhNrG2vu3r1HpYrlqfVi/bVbtwLYsWs3Z8+d5+7de3Ro3ybJ8UWLunLq9Fl+/nU0ERERZM+WlcqVKrBuwyY2bNrC6rXrKVK4EI8fP2HM2ImJxzVuWJ9Tp84w4uffyZjRhju379L2xVprsbGxST7Eakx4+GRKWFpamv2H3amTJ9CmfRdOHt2XLie1Sa4Fi5ZgY21NrZrVjBpXp9MxbcYc/p63EAcHexo1qEeXzp9Tu2Z1Mma0MYvXUUxsLA8ePOTw4aP8+dc0uvboS43qVfh26DcG30MqhBApJcWeEMLkfZYzB3fu3jMoRrmy3pQr6/3O59+2gDY8/7D/UmnPN+/d+mPUr0kef/5akQjw04j/vTX2xbPHE39u3Kg+jRvVf2d+HxIbF0eGDPKWbmyuLkVo37YVnbr2ZtH8WUqno6jLV64y+o8JHDmwy6hxZ/89n/ETJ9OkcQO2b1lLVkdHo8ZPK5YWFuRzzks+57y0bdOS+Ph4li5bQYPGLSlX1psJY0caPKOwEEIkV/r6GlkIkS6VKFGMc+cuKJ2GSbt37z7Zs2VTOo10afCgr9Bo1Az7boTSqSjmwYOHtGjdgQVzZ2Jrm8koMUNCQqldrwkHDh7myMFd/P7LCLMt9N5Go9HQvl1rTh8/gFtRV0qX9WH33v1KpyWE+MRIsSeEMHlenh4cP3lK6TRM2oEDh/CSqfBTzfy/Z+B/8xYDBn16M1BevXqdWr6N+XP8mLde3U6J8xf8qFS1Nr16dGHenOnY2doaJa6p6t+vF5vXr2Totz8weeoMpdMRQnxCpNgTQpi8nDlzEBISSnR09Id3/kStXrsB3zo1lU4jXVu+ZD7x8Tp8GzYnJCRU6XTSxJKl/9KkRVvmzZlOjepVjRLzzNnztGrbkaX/zEtc7uRTkDdvHg7t286GjVsYM27ihw8QQggjkGJPCGEWatWoxsrV65ROwyTFxsZy+cpV3EuVVDqVdO+viWPp3LE9FXxqMnV6+r2H71bAbRo1a83S5Ss5fGBn4oyxhgoMDKJthy6sXL6IEsXdjBLTnGi1WjatX8nmLdv5Z/EypdMRQnwCpNgTQpiF/v16y/Cnd5g1Zz6NGtZTOo1PRuuWzThxZB+XLl+luHtZxoydyKNHj5VOy2B6vZ6Dh47QonUHWrTuQK/uXVm7ain2dnZGa6NF688Z/8dI3Iq6Gi2muVGr1axfvYyRY8Zz48bNDx8ghBAGkKnbhBBmoUCBfGTLljVxLTzxXEJCAlOnz+LAnm1Kp/JJyZjRhr8m/sHTp0+ZPvNvfBs0Q48eTw93Snt6kD9fXmxtbU16yYC4uDiCgh/h53eJo8dOcMP/JsWKFeWLvr2oWqWy0dsbNWY8pUu741u3ltFjm5tMmTIx9a/xdOneh327tyidjhAiHZNiTwhhNsb/MZKWbTpSq2Y1k/4QnZZ+/HkkTZs0JHNmB8LCwpRO55NjZ2fHkG8GMOSbAYSFPeXkqdOcOn2WjZu2EvzoEZaWlkZpJzY2lqioaOztjXeVTaVSkTOHEy4uRWjZvCkuLoVT7e8qLOwpCxYt4ezJw6kS3xz5VK6Is3Meliz9N3HtTSGEMDYp9oQQZqNQwQI0qFeXgYO/Y8LYkUqno7iTp86wYdMWThzdp3QqArC3t6N6tSpUr1YFgICAAJydnY0S+/r160ydOpXx48cbJR5AWFgY9vb2Rov3Pr+OHMMXfXvKWpCvGTPyF+o1ai7FnhAi1ci7rhDCrPzy03Bq1mnIon+W0uEtC5h/Kp6EhNCpa0+WL1mAWq5ypnu2trao1eZ5m31CQgIbNm7h/OkjBsXZuGkrsXFxqFSQ0caGrFkd8XAvZaQslZEzZw4K5M/H/gOHKFmimNLpCCHSISn2hBBmZ+2qZVSuVodMtplo0qiB0umkubCnT6nj24Tffh7xSU90IczDrt17KeNdGq3WsI8ct+/c4Vl4OBm0GYiMiuLevft8ljMHDRvUo1TJ4kbK9k2Hjxxj9979fDd0UKrE79u7B7PmzOOviX+kSnwhxKdNdevWLb3SSQghRHKFPX1Kl+796N61E316dVM6nTRz/YY/zVt1oG+vbtQ18XX1YmNjGTNmDMOHD1c6FbP35MkTFixYwIABA5ROJdmGj/iVDu1aU6e2Ya/XaTNmEx0dw9df9Uvc9se4PwkPD+enEf8DYOGiJdy9dx9b20yUK+uNq0sRFi1ehpWlFdEx0YSEhOJW1BVX1yIUKVyIzVu2cdHvMgn6BFyKFKZBPV+0Wg3TZ87BxsaGoKBgMmXKyJOQULJkdqB3z26s37CZS5evoFarKVG8GHVq1zDovHQ6HSU9y7N5/QqD4gghxNtok3s/gbHH+Jt6PGPecwGmf77Sf6YVT/rv/Q7v30Hrdp05cPAwM6dNImNGG6PlYopmzZnHxElTmTNzCuXKer/xvKm9/qKjo1Gr1YkxlH69pHU8Y/79WllZodFozPL94NLlq5QvV9Zo7byqik8lxv85GYC/pswgNDSUKj6VuH3nLvMWLGbUbz8SExNDdHQ0hQsXwjlvHpYuX8Xn7dtw+/Yd1qzbSItmTdBqNaxavQ6tRkuD+nW5cMEPV9ciODvnISYmlichoeTPn4+Nm7eycdMWmjZtRLxOx4pVa7C0sqSqT6UUn4NWqyWzgwPx8QkUKJDfOB2D/P8wlPSfYaT/DGPM/jPPGwCEEAKwsLBg9YrFVPGpiFc5Hyb8OYXo6Gil0zK6/QcOUblqHfbtP8ixw3veWugJYYr0ej2RkZHY2dmmSnwbGxssLZ7PeHru/AWqVqmMtbUVLkUKYW1txbHjJwEVsbFx1Petg2/d2hQpXJB79+/jd+kypUqWoHat6lSvVgUP91L4Xb4MQHhEJF/07UXL5k0T26pTqwYXLvhRtqw3WTI7kC1bVsp6e3H58lWDz8PFpTDXb/gbHEcIIV6uhj4iAAAgAElEQVQn9+wJIcxez+5daN+uNb/8NhoP70pU8alE547t8SrtYfB9Qkq5fecuK1auYfHS5eRwcmLSxD/wcC+pdFpCJEtUVBTW1tapFj86Ooq4uDjg+bqBW7fvTHzO0tKSyKgoVKrn69q9ZGVlRXR0NBERkXz2Wc7E7dY21kTejXpxrMVb23sWHs6z8HBu+P+3GHrmzA4Gn0f+fM7cuXPX4DhCCPE68/wUJIQQr8loY8Oo337it59/YP3GzUz4czIXLl7C0tKSHDmccMyS2aQLP71ez9Nnzwh8GMSTkBCcnLLToF5dNqxdQQ6n7EqnJz4BDx48YP369YSEhKToeJ1O98bfmJ+fH1ZWxllr8G0OHjqKS5FCwPMr/dWr+lCtqg8Ax0+cpIy3F5MmTyc8PDzxmKioKJycsqPTxfPs2X/bw8PDyWSb8b3t2dnaYm9vT68eXdDr9Rw6fJSKFcoZfB4ODg6EPX1mcBwhhHid6X7yEUKIFNBoNDRp1IAmjRoQEBBA1mzZePgwkJCQUHQ6nUGxIyIiyJjx+YfB0aNH079/f2xsUn6f4KvxVCoVtpky4eSUnSxZMsui8SJNHThwgLlz59KuXTty5sz54QPe4tXX80vVqlXnq0HDjJFiogWLlhAZGcn16/7ExsYmLsHi7VWaHTv3EBMTS2hoKHv3H0Sr1aJSgaWVJWvWbkCj1bB33wE6dmhLwO07zF+4mNVr16PRaDh56gwtmzcBni8X8ZJWqyU0NIyVq9fh6eHO4qXLyZ4tKxksMrBp8zbCw8MNnnwmPj4ejUZjUAwhhHgbKfaEEOlaRhsbChpp0oNXb8DOnSsnXqU9sLOzM0o8IZSi1+uZPXs2kyZNMvrrOSYmlsjIKENTBJ6vNWhr+/zev0yZMlGtqg+FChXApUhhAHp068TadRu54e+PjbUNXTp1oGTJEhw8dBQrSwvCIyIICwtj8KABoFJRuVIF4uPjufTinrvWLZtTtcrziVaqvDLhSonibkS8OLZ500ZotRouX7mKXq+nebPG1KhWxeBzCwoKxs1NllERQhifFHtCCCHEJ+z+/fvkzJnToELvXSwtLYiNjUWv1xt8tbpDu9Yf3Kdxo/pvbFOpnhe0bzu+apXKVK1S+b1tFXMrSjG3oh88xhDXrt+gQf06Ro0phBAgs3EKIYQQn7T4+PhUvZ/VySk79+4/SLX4H6JSqUhIMO0lha9dv0GB/MZbdkEIIV6SK3tCCCGESDVVq1Rm67YddOvSUZH2+/XpqUi7HyskNBStVoO1tZXSqQgh0iG5sieEEEKIVNOmVXOWLP1X6TRM1ooVa/CtU1vpNIQQ6ZQUe0IIIYRINa4uRQgNC+O+gkM5TdnsufPp0b2z0mkIIdIpKfaEEEIIkaq+7Nebn34dpXQaJmf3nn1ky5aNvHlyK52KECKdkmJPCCGEEKmq4+ftOHb8JNdv+CudikkZ9t0IRv/+k9JpCCHSMSn2hBBCCJHqxo8dSbce/ZROw2T8Pmos3t6lkyzrIIQQxibFnhBCCCFSXbUqlfHwKMXgocOVTkVxe/cdYNWa9UyaMEbpVIQQ6ZwUe0IIIYRIExPHjeKi3yUmTpqqdCqKueh3id79BrDq339Qq+VjmBAidcm7jBBCCCHSzPo1y9mwcQsjR49TOpU0d/jIMVq0/pxli+fJpCxCiDQhxZ4QQggh0oxGo2H7lrWcO3+Rdp93JTomRumU0sRfU6bT54uv2bhuBSVLFFc6HSHEJ0KKPSGEEEKkKZVKxZJFf1OpYnk8vSul60XXz1/wo3qt+pw4eZpjh/ZQIH8+hTMSQnxKtGFhYck+KCXHSDyJJ/EkXnqKp9frefr0KXq93ijxjMWU4sXExKDX65PEMKX8zCnes2fPjBrvpbCwMMLDw4mPjzdK7OTGaN+2FXXr1OT7Eb8yZtxEenbvQvu2rbGzszU4FyUlJCQwfuJkdu7aw9Onz/hh+FDKlfUmKiqSqKh3H2eqrz+JJ/EknvnG09rb2ye74eQeY87xQkNDTTo/U48n/WcY6T/DpGb/qVQq7OzssLOzM0o8YzC1/gsICECtVifGMPXzNbX+e1V0dDRAqpxvWFgYGo3G4Ngp7T97e3v+WTCHoKBgJk+biU/1ulhZWeJV2gNPD3fy5slNxowZUalUBuWXmmJiYwl8GMj5C34cO36C23fu4u3lyc8/Dsfby/OjYpjy6w9M/+9N+s+04kn/GcaY/ac1ShQhhBDiNXq9HicnJ6XTEGYie/Zs/Dzif/w84n88evyYzZu3cf/BQ06fPktEZKTBV9F1Oh1arfE+9rwaz8LCguzZs1HMzZXOndpTsEB+o7UjhBCGkGJPCCGEECYlq6MjPpUr4OzsbLSYpv5NvhBCpAaZoEUIIYQwcefPnyd3bpmqXwghRPJIsSeEEEKYsHPnzrFw4UKaNWumdCpCCCHMjAzjFEIIIYwsLCyM6dOnc//+fYNj5ciRg99//51MmTIZITMhhBCfEin2hBBCCCOKi4vj66+/pnHjxjRu3NhocY09rbcQQoj0T4ZxCiGEEEa0fv16qlWrhru7u9KpCCGE+MRJsSeEEEIYkb+/vxR6QgghTIIUe0IIIYQQQgiRDkmxJ4QQQgghhBDpkBR7QgghhBBCCJEOSbEnhBBCCCGEEOmQFHtCCCGEEEIIkQ5JsSeEEEIIIYQQ6ZAUe0IIIYQQQgiRDkmxJ4QQQgghhBDpkBR7QgghhBBCCJEOSbEnhBBCCCGEEOmQNiwsLNkHpeQYiSfxJJ7ES0/x9Ho9T58+Ra/XGyWesZhSvPDwcOLj45PEMKX8UiteXFwckZGR2NnZmWR+r8d72+/JkHjGJPEknsSTeBLPMFp7e/tkN5zcY8w5XmhoqEnnZ+rxpP8MI/1nmNTsP5VKhZ2dHXZ2dkaJZwym1n8hISFoNJrEGKZ+vsaKlyFDBmxsbABMMr/X44WFhSX5PRkaz1iM/fe7fccutm3fxYlTpwkOfkR8fLzRYqcmrVZLVscseHuVpnGj+lSsUO6jjpP/H4aR/jOM9J9hjNl/WqNEEUIIIYQwMdHR0YwcPZ5/V66mRHE3WjRrwoAv++Lo6IiVlaXS6X0UnU5HYFAwhw4f4c+/ptGjd39atWjKsCEDsbKyUjo9IYSJk3v2hBBCCJHuzJ2/CA/vSthktOHU8QMsWzyfli2akivXZ2ZT6MHzK3u5PstJy+ZNWb5kPqeOHcDGxgYP70rMnb9I6fSEECZOruwJIYQQIt1ISEigQ6fu6HQ6jh3ag61tJqVTMiorK0uGfDOAPr260a1nP7Zt38k/C+agVsv390KIN8k7gxBCCCHSBZ1OR406DSlVsgTLlyxId4Xeq2xtbVm+ZAHu7qWoUachOp1O6ZSEECZIruwJIYQQIl1o0KQVzZs24ou+vZROJc0M/WYAGW2sadikFZs3rFI6HSGEiZEre0IIIYQwe0OGfU9xt6KfVKH30hd9e+Hm5sqQb79XOhUhhImRK3tCCCGEMGunz5xj7/6DHD24S+lUFDNuzO+Uq1SdM2fP4V6qpNLpCCFMhFzZE0IIIYRZG/jNt/w18Q+l01DcpAl/MGDQMKXTEEKYECn2hBBCCGG2Tp85x6PHjynjXVrpVBRXxrs0GTJk4PSZs0qnIoQwETKMUwghhBBma9LkaYz+/Wejxbt27QYHDx/h9u07qFQq8ubNQ/myZShSpNBHHX/v3n3+nDyNMSN/MVpOyTHwq378NWUGI4YPVaR9IYRpkSt7QgghhDBbR4+doHatGkaL98+SZQQFBVPFpxKVK1UgOPgR8xb+k6wYKpXKaPkkV62a1Tly9Lhi7QshTItc2RNCCCGEWXrw8CFZszqi1WqMEu/atevcu/+Adm1aUsWnEgDZsmXl3r0HnDh5GpVKxbbtO7kVcBtrKysqVSxPi+ZNSEhI4JffRvPvyjW0btksSbE3d/4iTp46TbwuHlfXInzVvy8Af02ZweUrV9Go1RQt6kKfXt2Ncg5arZasWR0JCg7G2dnZKDGFEOZLij0hhBBCmCU/v8sUcytqtHiFCxeimFtRlv27kjt37pI7T26yOTpSu1Z1AMZN+AsbGxtmTP2TQ4ePMmfuAvLmzcO58xfIkCEDe3duJjQsjNl/zwdg6/adHDt2gs6dOqDVatm2YxfzFy4me/Zs3Lt3n78m/sHpM+f4d+Vqtm3fabQrlMXcinLjxk28vbyMEk8IYb6k2BNCCJEqwsPDiY+PVzqNNKfT6YiIiMDOzk7pVD7Ks2fPzPb3dOfuPfI55zVqzAFf9mXDpi34+9/i8tXd3LoVQKWKFejbuzs3/P2p6lOZ5f8+X7w8b9483Lt3n1u3blOqVHEcHbMQFRVFbGwsADdv3sLFpQgBAbcBKJg/Hxf9LlGoYAHu3rvP7L/nU7BAfkb99pNRzyGfc17uP3ho1JhCCPMkxZ4QQqSARqMx2w/IAIuX/svOXXtISEh45z7R0dFYWVmlvBF9Anr0dOneB3heBGm1xvu3Y6rx9Pp4Ll/zJyYmzrD+e02qne8rvycHB3s6d+xAqZLFjdbOq2JiYpgwYQKXL19Gr9cbHC+TXRaehUcaIbOkGtSrm/jz8RMnGTt+EqU93YmL0xER+V97efPkJk6ne96Xmv9+N2r18ykRYmJjUalUSY7Jl8+ZihXKoVaruHz5Gnv2HmD5itV06dSBcmW9jZL/Rb/LuBQpaJRYQgjzJsWeEEKkgIeHB5s3b6Zdu3ZKp5Jsdeo1IX/+fHTt/DkajXHudRLpQ2BQEL37fUX7tq34om8vo8f/+uuvadiwIUOHDv3gJCYBAQEfvOds7vxFBAUFGy2/nbv2snzFKvr16UnJEsUAsLS0QqPRoNPpcHTMQsaMNrRo1gS1Ws2KVWvIkzs3t24F8OjxE4KCgtFoNOzddxCA7NmycdHvEl/1f/6Fx9p1G8mSJTObt2zj6bNwOnVsh1qt5qdfRnHn7j2jFXvF3FyxyJDBKLGEEOZNij0hhEiBzz//nP79+xMREUG1atUSv8lPjvDwcDJlymS0nD4ULyQkhJ279lK8eDHGjfnNaO2K9KWebx08vCrSsUM77OxsjRb34MGDFCpUCF9fX6PFzJs3D8eOnzRavBrVq3D+wgX+/GsqLi6F0Wg0XL16HW/v0lSsUI5n4eEsXbaSwMAgoqKiefToMS2aNaFsGS/cvSoSGRlJcHAwtWs+v8evbesWDB42nN9Hj8PezpbjJ07Trk0L1BoNGzdtITAwEFBx+84datWsZrTzuBVwG5/KFYwWTwhhvqTYE0KIFFCr1UyePJm1a9eyePHiFA1Ji4+PN+qVtQ/F0+l0nLt4lbFjfjdamyL9yaDVUq1KZY4eO06tF0WLMfj7+1OyZEmjxQNwc3Xhot8lo8Yc8GU/Tpw8zaNHj9Dr9fhUqoi3lycAdWvXpG7tmm897syJg2/d/seoX9+63TFLZgKDglEBFSuUo6iri1HyB7jod4lunTsYLZ4Qwnxpw8LCkn1QSo6ReBJP4km89BivWrVqVKtmvG/kU1vLNh2xsLBQOg1h4iwsLQh7+jTZfz/v2z82NpaoqKhkxfzQvjY21jx69Njo9zN6lfYwWqx3t+GZKnF1ungePXpMtmxZze79VOJJPIln/Hhae3v7ZDec3GPMOV5oaKhJ52fq8aT/DCP9ZxjpvzelZLip+DTZWNsk6/X5odefhYUF1tbWHx3zY/9+y5X1ZvuOXfjWrf3RuaZn27bvpGyZ50sumPv7lZLx5P+HYaT/DGPM/pP/+kIIIYQwW/379WL8n1OUTsNkDP3uB778oo/SaQghTIQUe0IIIYQwWx7upYiLizPqRC3m6tjxk2R1dMTD3bj3RgohzJcUe0IIIYQwaxPHjeLLrwcrnYbi+g8YzPixI5VOQwhhQmQ2TiFEst26dZuly1ewc/deAgMDiYvTKZaLWq0mS5bMlPH2onXLZpTxLq1YLkIIZbiXKolP5YoMGvId4z7R2Wa/GfI/qlSuKFf1hBBJSLEnhPho+w8cYviIX0iIT6BN6+ZMmzwB57x5yKDg4r3x8fEEP3rEgQOHGTlmHDdu3OTLL3rTvWsnxXISQqS9MSN/wbdBMyZPnZEqC8KbsslTZ3DB7xJbNqxSOhUhhImRYk8I8UGxsXF06d6HwKAg/pr4ByVLFFc6pUQajYYcTk60aN6EFs2b8PjJE74b/hNz5i5gzMifcXZ2VjpFYYATJ08BUNTVhYwZMyqcjTB169csp5ZvYyIioxj6zQCl00kTo/+YwJZtO9i+ea3SqQghTJAUe0KI9woMDKJew+Z06fw5X/TtqXQ6H+SYJQszpv7JzNnz6NV3ABPGjqJO7RpKp5Vu7Ni5m5OnzvDkSQh29nYUdytK40b1U629k6fOEBsb+84Fp2/fvsOYcX/Srk1LKpQva5Q2V65ay9nzF0AP1tZW5MjhhFtR18Tp7NPC1m072LJtJxPk/qtk0Wq17Ny6nvYdu9GqbUfmzJyCra2t0mmlimfPwunWs2/iOcuyKkKIt5F3BiHEO4WEhlLLtzEjf/vRLAq9V/Xs3pndOzYy5Nvv2bVnn9LppAv/LFnOilVrcXUtQtMmDSlR3I3NW7czd/6iVG03ISHhvc/37N6ZTJmMe9UvLi6O6tV88PRwJy4ujllz5vHPkmVGbeN1585f4OtvhhEfH0/+/Pno06tbqraXXqnVapYsmotv3dqUqVCNMWMnEh0do3RaRhMdE8PosRMpU6EqvnVrs3jh31LoCSHeSa7sCSHeqWnzdoz4/ltq1zLPK2NO2bOzad0KatZtxJ4dm3Byyq50Smbr/IWLbN6yna6dO1C9WpXE7Rm0GYiPjwdg0eJlHD5yDAuLDKhUKpo0aoBP5Yr07vsVnp7unD59FlQqWrZoyvr1mwgNC6N8uTL07N6F4T/8gqdnKcb8MZEsWTJTu1YNBnzZN0kOS5atYPeefWg1GjJmykiTRg3IkzsXM2fPo12blpw6fYbNW7YTFPwI9Hry5MnN11/149Tps6xdv5EnT0LQ6XR4uJf6qEKqapXKiT/nc87LP0uWU8ytKAnxCazdsInAwCDi4uIo6+1Fzx5dWLpsBTf8b/Lo0WPOnb+Al5cn3bt2onChgkyfOYeLFy+h1WqxtrGmaeMGeHuVpne/AeTP58zde/eJ1+nQ6XR8+fUQGjXwZcu2nXh6lMLf/ybDhg7C0sKCXbv3snzFaqZPmcikydO4ft0ftUaNvZ09jRr4Urq0ByNHjyMg4DbxCQkULlSQIZ/IcMbXdenUgbatWzBqzHg8y1SieDE3WrZoQoXy5XDKng2t1jw+AkVHx/D48WMOHT7KilVrOH/Bj5bNm3L6+AGsrKyUTk8IYeLM451OCJHmRv0xnlKlitO8aSOlUzFIrlyf8ceoX+nUtRdbNq5WOh2zFRz8iAwZtHz2Wc4k233r1gLg8NFjbNu+ky/69qKMd2mWLFvB1m078KlcEV18PFaWVgwc0J/NW7eza9ceenTvTEhIKPMXLqZn9y6ggvMX/Ni9YyNPQkJp3bYTxYu5JbZz4uRpNm3eSp9e3alQvizL/l3F1u076d6lI9HR0QCcOn0OgD/HjwZg2HcjWL12A8+ePSN7tmz8+tP3wPN7nI4cPU65st4fff61a9Xg35VrCAoK5tLlq2R2cOCnH74DYMDAoc+vHqtUREZFMWHcKAB+/nUU+/YfJCDgNmfPXWDa5AkATJ0+m337D+LtVZqIiEic8+Zh6OCv2bZ9J5u3bqdHt87cuXMXgCKFC7Jz1x4sLSyIjonhwsVLlCxRnHUbNuF/M4BJE/8AYNyEvzh6/CSBQcGEh0cwfeqfAPw+aiybtmyjXt3aH32uqSUuLi7NCywrKyt+/OE7fvzhO7bv2MX2HbuZOm0Wjx4/QadTbhbh5NBoNGTLlhUvTw++6t/XaMOVhRCfBin2hBBviIiIZMHCJZw9eUjpVIyiQf26zJw9l5279lCjelWl0zFLKpUKrVb7zuFiwcGPyJ4tG6U93QEokD8fO3bsTny+UOECFC5ckH0HDuLklB23oq6cO38hsVBToaJwoYKJ+1eoUJbw8PDEx48fPyFr1qxc9LvERb9LANy7dz9JDrdv38HNzTXxsbNzHu7evYdbUVcWLV7KX1NmkC9fXmrVrIanh3uy+0Cr1YJKxa1bAbi5uTJrzjwAcuX+jHt372FhYQH6//bP55yX23fvoVFryJsnd+L2AvnzsXnrNl6cOPnz50vSjltR18Rir2wZbzZt3sbqNevx9a3NRb9LdGjXmnPnL5I/33+TD+XP58zxE6fw9CjFg4cPGTt+EgUL5KdWzep4e3km+1yNTa/Xc/jwYZo0aaJYDmW8S1OrZnWjxQsLC8Pe3t5k4wkhBEixJ4R4i7+mTKdjh7apsqTCoCH/o1KFcjRt0pAvBwzmWXg4Wq0WOztb8udzpoy3V6qslffrz98zZNhwoiLDyZcv33v3ValUb90eERHx1hkh37X/h7wrXkp9KN7Dhw/RalJ2b0/mzA48CQkhKioqyXa/S5eJiIhEr9ejVqvR6XRoNBrUahUJ+uf32qlUKrSa//7daF75Wa3WvNjn+RWMmJhY4nU61Co1ev1/ldPLoaKOWbIkbqvvWydJLgn6hCTFqEqlJj4+ntq1qmNnZ8utgADOnDnH5i3bmTKpVLJ+b2fOniMiIgLHzJnRxccnyePlz3E6HZpX+lelVqNPSHgjL7VaRXz8i77h+Xm/j3upkly4eAlb20zY2dlSuVIFzp47j1qtJiFBj1qtQq1WE58QT7my3lhYWHDz5i2u3/BnzbqN9OjWiUoVy3/0ub4UGPgQPz+/j97/Xa+/p0+fsmTJEqpWrUqWV/pNCCFE6pNiTwjxhuUrVrNyeepOuvFS61bNyZUzJ1HRUZw9d4HpM+cQHR2NT+WKRm2nZIniBD96zM6dO/nss88+uP+rhcZLOp3uncPQ3rb/h7wvXkp8KN7Lq2gp4V6qJB6lSrJ9x24sLCwo6urClSvX2LRlG7ExsfhUrkhQ8CMu+l3C08Odhw+DyJzZAXhe0Lw6ZC4uLi7xZ4sML/JVqXjw4EHi9sioSDLZZiIoOBiAzFky8/jxE5yd81Da04NDh48SGBiUJMfPcuZMEiMwKIiCBfLzz+Jl5MjhRJtWLQDo/9U37N13IMk9ee9z4uRpNm7agqtLEUqX9mDbjl08fvKEHt06AzBrzjwKFypIUFAwUa/08aNHj8mWLSs5cjhx/sJ/RdODh4HkeOX+Ub3+/RPQ5MmTizXrNmBrmwkP91IA5MyRg1Onzybu8zAwkBxOTixbvpIEvZ62rVsQp9Mxesx4Hjx4+FHn+bo9u3cSFPjgwzu+8K7Xn42NDX369MHV1fUtRwkhhEhNUuwJIZIICQlFo9EkGSKW2kqUKAZAGW8vIiOj2HfgkNGLPYDq1apSxrs0LZunbCiZqQ/b+ph4des3TXH8xo3qs2LlWsaOn0TWrI6EhISSO3cumjVpRPFiRTl56gyLFi9n2/ZdBNy+Q6MGvs8PVKmSzKipi/+v8FO9uOKlAuzs7Jg0eRoxMTE4ODhQq0Y1ZvjfRK1WU76sN1euXGPBoiVs37mHu3fvUqVypST5eXt5smjxMn7+dRQJCQnExsbRvm0r1q7fyD9LlnPs+Emio2OwtbWlik/SY1/3NOwpXw8aRmxcHHFxcRQuVJB6vs/ve6tapTKLlyznl99Go4uPJy42jtKe7gQFP8LO1pYh336PvZ0d+w8eZsaUiTg75+XUqTN8+78fsbXNxP37D2jdqnliWy+/KLCzs+Pu3fuM+Ol3KpQvk/i8V2lPihdz48JFP3qW7wJA82aNOXPuPD/89CtWVlYEBgbRvm0roqOjWbJsBdev+6NSwcPAIGrXStnQxdZt2iee88eQYYhCCGF6pNhLZ65f92fLth0cPHQY/5sBhIeHf3Da8tSmUqmwtLQgh5MTHh6lqF2rBhXLl02VIYLCcBcu+lHyRfGlhIIF8rNl2/ZUiV3FpyI7du5JcbH3qStRvBglir/7tfFV/z5v3T5z2qTEn7t16Zj4c8kSxZnxYiIRVCrs7e3o2vlzHjwMTNzn5ZUsgH59erwR+/btO4k/e3t5vvX+tCaNGtCkUYN35v265s0a07xZ43c+X75cGcqXK/PG9hs3bpKg1/NV/+eziHZo1zrxueHfDXlrrAVzZyb+XK6sN/8uXZD4uE7tmok/Dx701RvH/vLj8LfG/NgrliJ1hD19yq5de9mxaw8X/S7x5ElIkqvZpuz5/2tLcuRwwtOjFHVq1aBC+bJmM3OpEOJN8tebDjx+/JiJk6axZt0GnJyyU69uLQZ9/SWFChXAztZW8fV39Ho9MTEx3L//gOMnTjF33kL6fvE1bkVdGTjgC5lZzMT437yVZKKMtJaQkIBFBotUiV2wQH7m/L3gwzuKNKcC9AnPr3DlzOGUuP1D929u27GLJ09Ckj0F/cvJVd7m5fDM5FKpVOgTEsj12oylIv3T6/Us+3cV02fMJuzpM6r6VKJh/boM/3YwWbM6ms2Xm3q9nujoGO4/eMCx4yeZNWc+vfsNoHixovTq0VUmuBLCDEmxZ8bCXgwzOnn6DL16dOXIgV1kzGijdFpvUKlUWFlZUaBAfgoUyJ84fGn6zL8ZOXocj5+EMOq3H1Nl2J5IvvDwcPwuXVGs/WvXb5A3b55UiR0WGkbkaxOMCNPw44tlDJLL3s6Ovr274+lR6sM7vyJXrg/ft5lcLZo3oYVcNf7k/D13IeP/nEzFCuWYNWOyol+WGUqlUmFtbUXBAvkpWCA/bVs/v8916rRZjJ84mRE//87o33+mYoVyCmcqhPhYUuyZqTlzFzB2/CS+Gfglf8+epnQ6KdK7Z1d69+zKRb9LfPX1ELJnz86cmZOxtrZWOrVPWqZMmSjqWiRN27xw0Y+IiEhOnznLhYt+9OrRNVXasXewx0ZeX+lKy9U5BokAACAASURBVBYpuwfRFNadE+btxo2b9B8wmKJFXdiwdjn5nNPuPue01rdPD/r26cH58xf5auBQcuXKyazpk7GyslQ6NSHEB2gDAgKSfVBoaKhRkzD1eCnpo/cxJL+EhAQGDR2OVqPhxJG9Rp22XSnF3IqyY+t6Zs6ei3f5qvwx6hfcirq8c39Tf72Y++svo40112/4G7XN91mzdgNqtQpQkSvXZ3Tr0jFZi10nh7//LbJny2pQn5r66+VD8eLMZCFpobxHj4KT/bdi7u9/H2vVmvX8PW8h06f8+Uld5SpRohi7tm9g6vTZeJf3YdyY33ApUjjF8Uz9/dRUX3/mEk/6zzDG6j+VPpnzhaeH2eiSIyAgAGcjfltnSH4REZHUrteEpo0b8M3AL42Wkynxu3SZVm07MfK3H2lY3/eN50399ZIeXn8hoaHU8W3CscN7jNbuS+s3bk7W/m97DRhi8LDhlPX2SvFQO1N/vXzsbJwzpk3COZWGyor0YdCQ76hRraqis3Ga0v/fV4346XeOHD3G6hWLsbExvVsn0sr5Cxdp074LY0f/hm/dWsk+3tTfT0319Wcu8aT/DGPM/pNhnGYiJiaGGnUa8EXfXklmeEtv3Iq6snfnZmrWbYRGrUnWBw1hHJkdHNDF6wgJCSFz5sxGja30zLC7du3l26GDFM1BCGG+hv/wC1euXmPrpjVKp6K4EsWLsXLZItp06IxGo0nxEh9CiNQlxZ6ZaNS0Nd26dErXhd5Ljo5Z2LZ5DVVr1CNPntyUKO6mdEqfnFYtmzFj1lyGDRlo1LiNG9Y3arzkWL12PQ6ZHchi5AJWCPFpmDl7LqdOn2HT+pVKp2IyXF2LsHXjGqrVqs/K5Yso6vruWzCEEMpQdk5+8VEGDxtO8eJu9OjWSelU0ky2rFlZvHAO7Tt2IzY2Vul0Pjn9+/Zm/sLFZrM21MeYO28R38lVPSFECpw7f5Ep02axesVipVMxOU5O2Vk4b9b/2bvvqCjOt43j34WFBaQJKnZE7L0rgr333nvvNWp8E/MzRqOJscVYYtfYe8FeEFDsqIi9Y6LGDgLSlt33DyKJiQ1YmF24P+fknLg7cz/XPDuy3kyjU9feaOWaYCGMjjR7Ru7M2XMEBJxi5vSpSkdJc6VLlaRPr+4MHmbYo0vi0zJlsqFn9y58Me5rpaMYxO49+4iNjZVnRAkhkqV3v8GsXLYQjUbuPvk+5cuVoWvnDgwdMUbpKEKIf5Fmz8gNGzmWxb/OVTqGYkYMG8S16ze4cPGS0lEynC/HjiLoUjDbtu9SOkqKPHz0mLHjv2Hl8kVKRxFCmKCZs3+huldVypZJ2rMcM5oxo4cTFBRM8OWrSkcRQvyDNHtGbPPWHRQqVJASxTP2NWszp09l3P99o3SMDGnn1g18O3kaBw/7KB0lWZ48fUrjZm2YP3cW2V2yKR1HCGFiYuPiWLp8FVOnTFQ6ikn46ccpjBs/QekYQoh/kGbPiM2Y+TNTvpUfmlUqVyQ2Npar164rHSXDcXR04OC+nYz/aiLzFixWOk6SBJw4Ra26TZg+bTK1a1VXOo4QwgT9umgZbVu3xMrKSukoJsHL04PwiAhu3rqtdBQhxF+k2TNSV69dx87ODlfXvEpHMQojhw1mztwFSsfIkLK7ZOPUcR9OnT5D3YbNCQ6+onSkj3rx8iUDBo9gzJdfs2j+HBrUr6N0JKNStGhhjh0/oXQMYeTOXwiiUKECSsdQ3Mrf1jJi+CClY5iU4UMG8vMvC5WOIYT4izR7Rmr5yjX06tlV6RhGo1nTRhwPOKl0jAzL0tKCNauW8r+vv2ToyDF41azP/IWLuXP3nuJ37NTpdPz55Clbtu6gVdvO1KrbhArly3Hy2BHy5s2taDZj9NWXY/h+2k/S8In3iouL49vvpuLklJkC7vmVjqOou/fuY29nRxZnZ6WjmJRWLZtx1Ndf6RhCiL/Ic/aM1NGjfnzz1bjEP69es4Ez5wJp37YV1byqpmmWnbv2cPrsOaZOTr1rFg4d9uGPh4/o1eP9Da5arcbVNQ+3bt+hQvlyqZZDfFz1ap74HdnHvfshbNy8lUFDRvLnk6eKNnxmZmY4OzlRqWJ5xo8bTeVKFRTLYgqyZs3C7h2bGDpyLPcHDVc6jjAyZmZmNGnUgK0b1ygdRXG7vPfSovmnnw06YPAI9Ho96PVoNBpy5sxB9WqeeFatkgYpU8f6jVso4O5GxQrlk7yuhYUFuXLl5Paduxn+FwZCGANp9oxQdEwMWq0WBwd7AG7evM3ZwPOUK1uawPMX06zZO3joCPXr1UFlpgJ96o0TcOIUv//xEJVKRcCJUx/8gqxdqwbHjp+QZs8IuOVzZfzY0Qzq3wcHBweD1Q0LCzNoPfF+7u752fcZD4YOCQnB1dXVYOMa+vM19nofmr9JkyYBMHFi0n6BltR8ERERDBkyhFWrVhmkXkZz1Nefad9/+8nltFotvXp0xc7Ojvh4LZeCr7Bm3UaTbfYuXAziXOB5Cri7ceFiULLuQlqrRjV8/Y5JsyeEEZBmzwjdu3effG5//wPh/oMHmJmpKFWyOPMXLuHqtesUK1oEgLHjvyEuNpZcuXJSpkwpVq9ZT4Xy5QgNCyM6Opqpkydy6vRZFi5aSrmyZYjTxhES8jtzZ09HpVJ9MMOXX/0PB3t7bt2+Q2xsHG+7vcVLV3Dl6jUKFSzIrdu3KV6sKP369GTc+G/IlSsn8fHxhEdE8Pp1ODOnf88RH1/Wrt9E2TKliYqK4vGfT+jWpSP37t3nxs1bhIaGoUdPtqxZAYiMjCQ8PIK1GzZRqUI5Xr58RXx8PN99OwGPypVYtGR5qs27EEKkN7a2tkpHMFn374fgnv/zm5XSpUoAYG5uzu69+wGYNHka+fK5cuHiJdq0as7lK1e5fOUauXPl5Oat27Rs3pQWzZsw9YcZhIdHYG9vx5079+jQvg3xunh8jvoxfdpkAGbOnouTkxO9enSlYdPWFCtSmMxOmbly5SptWrWgXdtW9O43mAH9elO5UgUO+/jivXsvP8+azs5de9i+05vChQry8NEjihcryqABfVmxag2BgRfIkyc3IQ8eUKliBZ48ecqTJ8/Y6b2X+nVrs2TZSoIuXSZP7lyEPPidqh6V6dq5w0fnwqNKJdZv3ELf3j2SOftCCEORa/aM0J279975bdi5c+cpX64s5cuVJW/ePFy5ci3xvRcvXtClcwdGjRxKQMBJGjaoy/ChA/nf119ibm7O3n0H+ePhI2rVrM6IYYMYM2o4ep2Oo77HPprhzZsoBvTrTcf2bbG1zZR4YC/gxGm6dOrAoAF96Nq5IwEnTiW8oQKNRsOwIQPo3KEdT548AeDEydPUrF6NYUMGMHL4YKytrbh77z6oVPz55AnfT/4fP/0wBVSQJYszQwcP4HjASZo1bsiwIQOZ+M3/EafVcvDQEfK75eOPPx4acKaFECL9ypQpExEREWi1WqWjmBy9Xk+cVotGY/nZ61y9dp2gS5cJunSZbFmyJLyoUvH4zyfMmfkD1byqsuDXpfTs3oVxY0bSvWsnDvv4AnDj5i3atG7B+HGjqVunJm+i3qDT6d6pb2ZmnnC66F9GjRxKz+5d6NKpAydOnv5PHjOVireLHz5ylA7t2vDl2FFMnfwtgecvAnDlyjWaNmnEl2NH0bVzR2xtbRn7xQjMzFS0aNaY6tU8OXb8JN27duLLsaPo1KEtPkf9PjkX7vnduB/y4LPnTgiReuTInhF68uQpObJnBxLuiHb9xi0KFSzAlq07KFGsKGfPnadd21YA2NjYULFCwmmNT58953V4OGfOBAKgMlPx4uVLihQuyKHDRxn5xZdotVp0Oh16ve79g//F0tICZ2cnIKEJu3v3PgDm5masW7+Jdes3JYzx19FBFSpcXLJiYWGBxkpDtmzZ8N69j2fPXySe829paYlT5sy8fPmSLM7O2Nnaolb/dxd89vw5p86c/fvLS6XixctX2NvbEx4RkdxpFUKIDEWlUtGoUSMmT57M2LFj5ShfEsTGxmFpYfHZy6/fuAWVCnQ6Pbly5qBzp/ZAwmeQJ3euxOWqV/PEe/devHfvBRJOpQUoWaI4i5euoIB7fvLnz0eLZk3Y6b3nnTHUavU7l1S8rauLj2f+r0sS/v8fDaK5+d/NYWjYa06eOs3JUwnfqzbW1gCUK1uazVu3c+ZcIPny5qFEiWKYmb17HMDa2oqyZUolrGdjw7lz5z85Hw4ODrx+/fqTywkhUp80e0YoOjqaS3/d3v5i0CUKFy7In0+eJr7/9NlzjgecxMvTA7N/nIqpVqupW7sm2bK9+/DoI0d9sbe358uxowAYPfarT2b4528P42Lj0P/1DaPT6ejapeN/V1BBvDY+8Y/x8fGo1eZoLC2J0/598w6tVotarUalUv3nC+Wf29Gwfl2cnJzeeV0bH4/2H2MIIYT4uI4dO+Lt7c2oUaOIjY1VOo7JiNfpiEnCfHXq0BYvT4//vK4C1ObmiX/W6XQ0bFDvP8uNGT2cc4EXePT4MX5+x3nx4iUuLu9+l8fGxWKD9WdneueIror3jtu5U3vatG6Jn/9xzl+4yLUbNylXtsw7y/zz3wOfewF/XFwccXFyRFkIYyDNnhGytrKmZIliQMIpnM2bNaFhg7qJ7/8yfxGB5y/g5elB/D9+i1e4UAGCL1+lXt3s6HQ6NmzcQt06tdBq47HSaNBq49m9dx/m5mb/+uH9X/v2H2L4kIEAXLt+I/Hnu4O9PfdDQmjbuiW+fsfwOepHhfJlUaHi6rUb3A95gDZOy5MnT2nUsD6///GQq1ev06xJI86eC+T+/RAqVaxA2OswtPHx6PV6VCoVKlTodDouXAyiUEF3gi9fZfiwQVy8eIkNm7bQqEE91ObmqNXmH0kthBDi35o1a0azZs3+87qp3uAmuZKSLzY2looeNVM8pkqlQhv/9y8pw8PDiY2NpUZ1L476+nMp+ApVPSrz1YRJfPu//6NUyeKEh0cQEvKAggXciYiITLzbcXh4BA729om1Dh05StkypThzNpByf91ExdLSkjdv3hAfH8/1GzcTv+tz5chBSMgDOnVsR+D5Cxw85ENVj8p8+91UGjWsT+1aNbCy0rB67YZ38l8MCkar1XI84CTVq3ny55On1Kjh9cnttrCweO+ZO0KItCd/E41QtmxZuXr9Onv3HSSTbSby58/3zvtly5RKPL3Dxubv3/INGtCXOXMXsGz5KtQWasqWKU3DBnWxsbFml/deRo8ZT5nSpShapAi7vPdSt06tD2b4cuwoBg0bTQH3/NSrUyvxlMr27Vqz78Ahjvj4YW9vR+2aNYCEL7SyZUox++d56HV6mjVtBED/vr2YOfsXBg8bjaWlBV5eValdqzo7du1+5xeERYsUYs++gzx5+ozxY0cxa848Rowah4WFBeXLlaFunVo8fPQIO1s7Q0yxEEII8UEWFhaf/UiZjzU1KpXqnV+utm3dkq3bdrLTew96PTT66xe5OXK4MGjoKGxsbLC0sKBli6Z4eXrg53+c0WP+DytrK/K75eOfv6c9e+48u/fsA6BZk4TvXM+qVVi/YTO7du+lSqWKvF2hWdNG7PTew+mzgeji4xMv/yhcuBDLV65m7bqNxMTG0qBeHQCKFinM/IVLade2Ja1aNGPrtp3s2r0XvV5Py+ZNPzknoWFhODrYf3I5IUQa0CdRaGhoUlcx6Xr37983aL3PyXfl6jV9i9YdDTpuahv/9UT9zl17UnWMY8dP6Lv17GfQmrL/pe96Mn8pI/OXMh+av2+//Vb/7bffJrmesW9vetv/Spatoo+OjjFoBkNp0KSV0hE+yueon77/oOEfXUb2v/RdT+YvZQw5f+q3FwcnRXLWkXqfXy+Ls1PCHStT2YjRX773dY/KFenYoW2SaqlQffLU0JQ6dfosZcuUNvnPV+pJPamXsetFR0cneyxT3F5TrZc3T25u37lD8WJFDZohIzh1+iylShT/5Hynp/1F6kk9Y62nTur59cZ+jr+h64WGhiqSz8LCgrCw14kPVk8NP8/60WC1pk5J2sOBk8PnqB/fTfzaqPeX9LL/pZd6Mn8pI/OXMh+aPysrK4Akj2Xs25ve9r+6dWpx8NARo2z29u/epnSEjzrq68+CebM/Ot+y/6XvejJ/KWPI+ZPn7Bmp2rWqs3ffAaVjGA2tVsv9kAcULOiudBQhhBAZQIvmTdjpvVfpGCYnNjaOPx4+eud5wUII5UizZ6R69ejKspWrlY5hNLz37KOaV1WlYwghhMgg3PK58jrsNc+fv1A6iknZsdOb2rWqKx1DCPEXafaMVLGiRQh/HU5IyAOloxiFn+cuZOTwwUrHEEIIkYH06NGFOXMXKB3DpPwyfxEjhsn3tRDGQpo9Izb2ixF88+0UpWMo7uSpM6gt1BQtUljpKEIIITKQQf37snX7zsSb6oiPO3b8BJky2VCwgFxyIYSxkOfsGbG2bVry08yfCb58hZIliisdRzFjvvyaX+bMSNI6f/zxkO07d3PkqC8hIb8TExNNKt8s1CBUKhW2tpkoVLAgjRvWo3SpEkpHEkKIDMvS0oK+vXvw1YRJzJoxTek4Rm/s+AksWfiL0jGEEP8gzZ6RmzvnJ/oPGs7JY0eUjqKIOXMXULRIYcqVLf1Zy+/Ze4Bp02ei0+lo3bI5k7+dgLt7fmysrT+9shHQ6/W8Dg/nypVr7PLey48zZpPfzY1JE7+mVMmM2/ALIYRSvhg1jApVarB5y3batW2ldByjNWPWXMqWKUVJ+a4SwqhIs2fkKleqQDWvqnwx7mtmTv9e6Thp6lLwZZavXE3gaf9PLnv37j369B9ClixZWL54AYUKFUiDhIanUqlwsLenqkdlqnpU5oepkzjq68/gYaNwz+/Gr/N/xtraSumYQgiRoSxfsoDuvfrRvFljNBqN0nGMzvkLQaxZt5Fzp/yUjiKE+Be5Zs8ETJ82meDLV1i2/Delo6SZZ8+f07lbH9b+tgwLC4uPLrtm3Uaat+7IxG/+j80bfjPZRu9DatWsznHfg1T1qExFjxpcDApWOpIQQmQopUoWZ9CAvrRq21npKEbnyZOndOvZj/VrlqNWyzEEIYyNNHsmYtf2jSxetpI1azcoHSXVPX/xgvqNWjJ92neULFHso8vOnPMLy1f8xqnjPtSsUS2NEipjQL/ebFy3ki7d++Drd0zpOEIIkaEM6Neb8uXL0q5jN6WjGI2nT5/RoHFLZs+YJjdRE8JISbNnIqw0Go4e2s2vS5bz08yflY6Taq5eu07NOo2ZMmkCjRs1+OiyK39by969Bzh8wBtb20xplFBZxYsV5cDeHQwaOorLV64qHUcIITKUyd9OoGjRIjRo0ooXL18qHUdRwZevUKteE36Y9h3169VROo4Q4gOk2TMhNjY2+Pvs5/yFINp36kFk5BulIxnUkmUrad+pBx3btaBJ44YfXfba9RvMmjMP752bMTPLWLtx7lw52bB2BZ279SEuLk7pOEIIkaF8N/FrOrVvS806jQg4cUrpOIr4dfEyOnfrw7rVy2lYv67ScYQQH5Gx/pWcDpiZmbF+zXIa1K9DhSrVWbbC9K/ju3LlGnUaNMPX7xjjRg/5rFNBevcbzNJF80zmLpuGVrpUSXr26MLwUeOUjiKEEBlOzx5dWLV8EeP+7xv69B/Cq1ehSkdKE5eCE47mnTh5mrOn/OTxQEKYAGn2TFSfXt05ddyHgBOnKFXOg/kLF5vckT7/YwE0bdmO/oOGM/Gb/2Ptb8uwsbHB0tLyo+utWbeRokUKU6li+TRKapxGjxjK2XOB3L8fonQUIYTIcNzzuxHgdwiPKpWoVrM+A4eM5NbtO0rHShW+/sdp3Lwtg4eNYsqkb/htxWKs5K6kQpgEuW2SCXNwsGf2jGnExWmZPXc+Vbxq4+KSjYb161KzRjUKFsiPnZ2d4qc56vV6YmJiePjoMWfPBrLvwCHOnjtP0SKF+erLMVT1qJykerPmzGPPzs2plNa0fPXlGCZN+YEVSxcqHUUIITKkvr170KdXdzZt2Ua/AcMIe/2aWjWqUb9eHUqVLE7WrFk+eVdpY5H4ff3wEafPBrJv/yECz1+geLGifDFyCHVq11I6ohAiiaTZSweyZHHm++/+x/ff/Y/bd+6y/8BhZsyay73794mIiESn0ymaT6VSYWlpSfbsLpQvW5revbqzdNF8LCySvvtduXodl2xZyZEju8Hy7dm7n8tXrxP15g1OTk6UKVOK6l5VP3v97Tu8CbxwkSmTvjFYps/VqmUzJkz8Dq1WK7e8FkIIhahUKjq0a0OHdm0Ie/0an6N+7N67jx9/ms2Lly9N5vrqt9/XObK7UL5cGfr37YlHlQWo1WrCwsKUjieESAb512E6U8A9P0MH92fo4P7JWj8sLAwHBweD5QkJCcHV1dVg9bZu30nXzh0MVm/7Dm8OHDpM0yaNcMqcmZAHv7Nq1VrMVCq8PD0+uu7b0ydVKhXoDRYpSVQqFZUrVeTY8RPUqlldmRBCCCESOdjb06pFM1q1aJak9Yz9+1cIYZqk2RMm5dTps4z7YqTB6j3+8wkF3N1p+tfdP6t6VCZTJhtUZioAVq9Zz5lzgcTFaSlUsAAjhg3C3Nyc39asZ/3GLRQuVJBaNavxttvz9TvOgYOHefHyJVmyONOoQT2qeVVlp/cejgecJCI8guw5stOwfl0qV6pgkG1o3Kg++w8elmZPCCGEEEK8Q27QIkzKy5evyJYtq8HqFSlckLPnApkzdwF79u7n7LnzNG/aGE+PKvj4+uN3LIDOHdvTr09PdDodK1atAWDBwiXs897KnJk/EBQUnHhgb8u2HVSsWI7FC+dSqWJ5tm7fBcDefQdp3qwJC+fPoXChghzx8TXYNpQrW4bg4CsGqyeEEEIIIdIHdXLOwTb0eduGqPfg9z/YvsObYwEn+fPPJ2i1WgMkSx4zMzMyOzpSrlxpWrVoRrmypd953xjnz1jqxcTEoNfr37uOVhuPWq1OOG3SQGrXqoG1tRVXr93gwsVL/PHwEVu37aRTx7bcu3efQgUL8PvvfwCQN09uLgRdAnjnFM/ChQtx6VIwAJGRkWjjtGzavA2A0NCE23FnzZKFo0f9ePnyJQXc89OxfRuDbUO2rFl59vz5Z89zetpfpJ7UM8V60dHRyR7LFLdX6kk9qSf1pJ5y9dRJPT/c0OeUp7TeseMnmDBxMrp4HR07tGHhvNm45s2j6J2v4uPjefb8OcePn2Tu/F+5c+cew4cOpG/vHkY3f6ldLzQ0NEn1NBoNGo3mvetER8ekShNvZ2tHn17dAbh58zabt+3gxMnTgAqVSkXkm78faVGoYAGAxNM8AdTm5olH9v69fI3qXgC0btWcO3fvcevWHXbu2kPN6l5079bZIPnjdTq0Wu1nzbOx7y9K73+fYuzbK/NnXPU+NH9WVlYASR7L2LdX9j/jqifzlzIyfykj85cyhpw/k71mLzY2jl59B/Hk6VN+mfMTpUoaz4M9zc3Nye7iQts2LWnbpiUvXr7kqwmTWLbiNxbOm02Z0qWUjmiS1Gpzg99xctSY8VT38qREiWIAFCpUAEsLC2Jj48idKyf374cw9osRQMKpmLa2mYCExvOtP588TbxBi06no3ixoonPANy7/yAAN2/eomOHtgDs2XsAX/9jBtsGczOVydzWWwghhBBCpB2TbPaePHlK42Zt6NWzW7LvOpmWnJ2cWLTgZxYvXUnnbn2YPeMHGtSvo3Qsk6NWq9Fqtej1YKgzOevWrsW2Hbu4eCkYp8yOPH32nMiISLp07kDFCuU4F3iBKdN+wimzI4HnL9K6VXMALC0tmPz9j9jY2GBlpUH/V7fnWdWDtes3EXj+Ag8fPSaLszONG9YnKPgyt27fIVu2rNy4eZvixYoYZgOAp8+ek8XZ2WD1hBBCCCFE+mByzd6r0FDqNWrBjB+nUL+eaTVM/fv2pEXzxtRv1BILSwtqy90Tk8zJKTNPnj4lu0s2g9Rr0rgBbm75+PPPP3kTFUWZMqXJmSM7BQu4AzDt+2/fu97M6VPf+3q/Pj3e+/q0Kd/ic9SPiIhIihcrimfVKikP/5cLF4OM6si2EEIIIYQwDibX7LVq05mJ3/yfyTV6b7lky8beXVuo27A5vof34mKgpiWjqFK5Ikd8fOnSqb3BahYrWphiRQsbrN6H1K5VI1Xq7t6zn+5dDXP9nxBCCCGESD9M6tELP/w0i9KlS9Dmr1PpTFWuXDn56Ycp9Og9QOkoJqdNqxasWbtB6RhGQ6/Xc+ZsINWrVVU6ihBCCCGEMDIm0+xFRr7ht9XrmfHj90pHMYimTRpiaWlp0OetZQTFixXhydNnPP7zT6WjGIXtO72pXKmiwW9cI4QQQgghTJ/J/Avxl/m/0r1rp1S56+AX477Gq2oVWrVsxvCRYwmPiECtVmNvb4dbPlcqVayQeHdFQ5ry3TeMGz+BqDcR5MuXL1k1IiMjyZQpk8EyGbre06dPyZIli0FrfjFyKF9NmMSKpQsNVtNUTf1hBpvX/6Z0DCGEEEIIYYRMptnbtGU7WzetSZOxOrRvQ64cOYiKjiLo0mV+XbyM6OhoqlfzNOg4pUqW4NnzFxw5coScOXMmq4ZWqzXoUR1D14uKimLt2rV4enrSu3dvg9Ts0rkD8xYu5szZc1SqWMEgNU3R7J/nU7FCOdzc8imcRAghhBBCGCOTaPZevQrF3Nwct3yuaTZmyZLFAahUsQJv3kThf/yEwZs9SLhpR6WKFWjXpmWy1jf2h0KGhITg6urKhAkT8PPzo0YNw9ykZNni+XTs0gvfw3txcspskJqmJCgomBWr1hB42l/pKEIIIYQQwkiZxDV7l69cpdRfzZcS3PO78WcqXSNWo7oXASdOpUptYzJw4EB2795tsHrFihZh9MihtOvYjfh4ncHqmoI/Hj6kU7ferF+9XB6mLoQQChbysgAAIABJREFUQgghPsgkmr279+4nPvdMCTqdDksLy1Sp7Z7fjZCQB6lS25g4Ojry5s0bg9bs2b0LTRo3pG6DZkRERBq0trG6cvU6DRq3YsG82RQvXlTpOEIIIYQQwoiZRLMXERHB1Ws3FBv/1u075M2bJ1Vqh4WG8SYqKlVqZwSjRw6lb58eVPGqjZ//caXjpKpFS5bToXMP1v62jJrVvZSOI4QQQgghjJxJXLNna2tL0SKF0nTMy1euEhn5hgsXg7h85SoD+hnm5iL/5uDogI21darUzii6dGqPR5VK9O43mCxZnJk6eSKFChZQOpbB/DL/VzZs2oZ7/nycPemLtewvQgghhBDiM5hEs+eWzxX/YwFpNt6OnbsxM1MBKnLlykmfXt2pUrliqox19+598uXLmyq1M5L8bvnwPbyX3Xv306ffEHQ6HS1bNqVh/XoUcHfDysoKlUqldMxP0uv1hIeHc/nKNXZ572XfgYPkd3Nj4bzZil63KoQQQgghTI9JNHslSxYnOPhKqtT23rOPmjW8Ev+/Xr3a/1nmVWgo3nv2AdCsSSODju/rfwxPjyoGrZmRNW3ckKaNG/LHw0ds276L/307hfshD4iJiUGv1ysd75NUKhW2tpkoXKggDRvUo1vXDhQvVkzpWEIIIYQQwgSZRLOX2dERbbyWV69ekTmzYW+zr9MpeydHHx8//u/LLxTNkB7lzpWT4UMHMnzowI8ul9xHTcTGxtKvXz9WrVplkHofEhISYrBaQgghhBAiYzGJZg+gfbvWLFqygvHjRhu0botmTQxaLym27/TGMbMjTgZuYEXasLRMnTu0CiGEEEIIYQgmcTdOgGGDB7Jq9Tri4uKUjmIwK1au4Ss5qieEEEIIIYRIBeqwsLAkr5ScdQxRr1OHtnwx7mvmzp5u0PGVsHvPfqKjo6lQvmyK51OpzyMp9SIjI9Hr9Z+s/fbauo8tZwzbGxcX98GcxpDvLb1eT2hoGM+evyAiIkLx05Y/xdzcHNtMmciSxQlHR0eD3FTHmD4PqSf1AKKjo5M9lilur9STelJP6kk95eqpk3p9kaGvSUpKvf9NGE+NOo3Ytn0XrVs1N1iGtPbw0WPGjp/A0cN7UzyXSn4enyM0NBQHBwfMzc1RqVSfrK3RaNBoNB9czli2NzY29r3bk1rzlxSXr1xl3frN+Pof49WrUDJndsQlWzbs7e0wMzPug/nx8fGEh0fw9NkzXr5MuEa3Vs1qdO7QLlkPkU/O/H2Msex/aVVP5i9lPjR/VlZWAEkey9i3V/Y/46on85cyMn8pI/OXMoacP5O5Zu+tnVs3UL12Q2ztbKlf9793zjR2T54+pXGzNsyfO4vsLtmUjiPSCZ1Ox+IlK1i0dAXZsmWlS6f2jBw+mGzZsiodLUWePH3GgYOH6di1F2q1Of379mZAv15G37QKIYQQQhgDk/sXk6OjAwf37WT8VxOZt2Cx0nGSJODEKWrVbcL0aZOpXau60nFEOrF2/SZKlq3C7Tt3ObRvJwf2bKd7104m3+gBuGTLSveunQi+cIqD+3Zy585dSpatwtr1m5SOJoQQQghh9Eyu2QPI7pKNU8d9OHX6DHUbNk+1Z/AZyouXLxkweARjvvyadauX0aB+HaUjiXQgNDSMxs3b4L17H/5H9zNj+vdkyeKsdKxUkzVLFmZM/x5/n/3s2r2XJs3bGvz8eCGEEEKI9MQkmz0AS0sL1qxayv++/pKhI8fgVbM+8xcu5s7de4rfsVOn0/Hnk6ds2bqDVm07U6tuEyqUL8fJY0dwy+eqaDaRPgSev0jV6nXp0bUzG9auwNnJSelIacbZ2YmNa1fSvVtnPKrV5VzgBaUjCSGEEEIYJZO7Zu/fqlfzxO/IPu7dD2Hj5q0MGjKSP588VbThMzMzw9nJiUoVyzN+3GgqV6qgWBaR/hz28WXkqHFs27yWIoULKR1HMR3ataZM6ZK0adeFn2dPp07tmkpHEkIIIYQwKibf7L3lls+V8WNHM6h/H4PeDSckJARXVzkaJ4zD6TNnGTn6Sw4d2EWO7NmVjqO4woUKcmj/Luo1asGyxfOoXKmi0pGEEEIIIYyGyZ7GKURG8+zZc3r2GcTObRuk0fuHHDmys3PrBnr2GcTTZ8+UjiOEEEIIYTSk2RPCRLTv3IPpP0zGPb+b0lGMjru7Gz/9OIUOnXsqHUUIIYQQwmhIsyeECZg771cKFnCnWZNGSkcxWk0bN6RgAXd+mb9I6ShCCCGEEEYh3VyzJ0R6FRUVxcJFSzl/5pjSUYzez7OmU66SF316dcPGxkbpOEIIIYQQipIje0IYuWk/zqJUqRJYW1srHcXoWVtb0btXN6b9OFPpKEIIIYQQipNmTwgjptfr2bx1O6tXLFY6iskYPnQQW7btRK/XKx1FCCGEEEJR0uwJYcT8jwXgUaUSlpaWSkcxGRpLSzyqVGLfgUNKRxFCCCGEUJQ0e0IYsR279tCnV3elY5ic3j27sXrNeqVjCCGEEEIoyqRu0KLX6zlx6jR79h7gXOAFnvz5hNi4OKVjfZJKpcLa2pp8rnmpXKkCbVq3kNvni89y/catTz4o/OChI3jv3oeDowMqlYrw8HDQQ/t2ranqUTmNkhrW5StXWbNuIz98PylZ61epXJH+g4YbOJUQQgghhGkxiWbv4aPHTP3hJ3yO+lO6VAlaNm9K/z49yZkzh0mc3qbX64l884Y7d+5x1NePvgOGEhoaRu+eXRk0oC9qtUl8DCKNvXz1Cjs7O9Rq889afsqkbxL/f+68X/E/FkBVj8qs27AZZycn7t2/z8D+ffA7FsCNGzdBD4UKF6RmdS8ADh324X7IAywsLChUsEDiuubm5nRo15qoqCi279xN547t2LBxCwBmZmY8f/ECN7d8NGpQj+07dxMVFUX7tq1Qq9Ws27AZgM4d23H23HmuXL3GmzdR5M2Tm6ZNGgJw4uRpbty8RXx8PK5581Cvbm0uBV9BF69j3YbNtG/bipOnznD9xk202njc8+ejZo1qH/27r1arsbe3I+z162TMvBBCCCFE+mDUp3FGR0czcMhImrZoh0flSly+eJoNa1fSsUNb8uVzNYlGDxKO7NlmykTpUiUYOXwIRw/t4fD+XTx+/IRS5TxYsmyV0hGFEbp9+y4FC7gna117O1uio2MAOHDwMMcCTqDRaPA/FsCy5b/h6OBA5syOrF69Hj//4+zdfxDvPfvJkd0Fa2trli5fxbnAC9y7d/+dujNmzQXgdXg4Dx89Jk6rJbuLC1O+n86hw0fRWFoQfPlK4vK///EQrVYLwKrV64iL05Indy78jwewZu0GAJavWI2trS3ZsmZl3/5D7N6zHwsLCwAsLCw4deYcy1euxsHBgVw5c7BthzcHD/l8cg4KuLsTEvJ7suZPCCGEECI9MNpDSj6+/gwbMYaB/fvw6/w5SscxOGdnJ6ZOmcj4caMZNnIMm7duZ+PalWTO7Kh0NGEk7oc84NWrV5+9/E7vPahUKkJfhXLU7xjNmzYGQKfT0bB+Xbw8PZi3YBGVKpanfbvWaLXxvImK4lLwFfLkzoVabY6zszP165Uhn2teKpQvy569BxLrq1RmlCxRPOH/URH2+jV9e/fA2tqaO/fuce/+fbK7uAAJR/wALNRq9Ho9e/YdwNLSkn59eqDVxuPgYM+OnbspXLgQcdo4nDI74uVZlaxZs+BRpVLiuO3atGTJ0pUUK1qE9m1bAfAqNJRLwZcTjwx+iFs+Vx4+evzZ8yeEEEIIkd6oQ0JCkrxSaGioQUP8u97qtRvYtXs/+7y3kjdvHoOOZWzs7e1YtXwRW7btwLNGPX6e9QOFChZIUo3U/jxSKiQkhDdv3qDT6fjU/hYWFoalpeVHlzOG7Y2Li0Ov1783p6Hy3bt3j3p1aydh+YQs9nZ29OnVnerVPBPfs7LSJGQLe83Tp08ZPmps4nsuLi60bNGUh48es3b9Rlav3UCJ4sWoXKkCcdp3r4k1M1Ml/I8qYZy3MtlkIjLyzXuWNwM9vH4dTmxszDvjAlSsUI4G9euyd/8hNmzails+VywtLd5Z5nV4OPb2f49la5uJ8IiIT86Hs7MTYWFhn9znksoY9r+0rCfzlzIf+xlhjN+/xlZP9r+UkflLGZm/lJH5SxlDzZ/a1dU1SSuEhYXh4OBgkMHfV++nmT9zPOAUJ/wPZahr2dq2bknhQgVp36kHG9aupHSpEp+1Xmp/HikVEhKCq6srERERmJmZ8an9zcHBAY1G88HljGV7Y2NjUalU/8lpyHx2dnbEx+s+e/mRwwd/cplMNjYULlSQgf37YG5uztlz56lYoRwAZcuUYvDAvpw+c5YVq9ZyxMcXczNzIOF5dZevXOXU6bNAwqnJUVHRWFlZ8fjxY2JiYrCxscbMzBy9Xo9Op8PMzIzw8HAcHR2wsbFGo9Ewc/pUAM4FXqBsmVIAFHDPT5tWzQm+fJV9+w9y/sIlcubI/o95sCUy8k3in6PeRH3WA+bNzMzQ6XSf3OeSwlj2v7Sq9/bvr6EY+/am1fw5OiacwWFs37/GVk/2v5SR+UsZmb+UkflLGUPOn1F1U+vWb2Lv/oMcOeCdeBpYRlKyRHG2blxD247dOHp4Dy7ZsikdSSho586d1KhR0yC1dLqEhq1kieJs3LyVwz6+2Fhbs2//Qe6HhPDs2XPCIyLR6XTExsYCCdfL5cjhwt279zl2/ATBl69SuVKFxJr29nb4+PpRtEhhDhw8zOiRQ7Gytubp02ccO36C1+Hh2NjYoNfradGsCXv3HWTTlm3kzpWLwPMX8PU/RrEiRTh0xIfXr8OxsbEmXqdDo7HEzExFdHQ0Pkf9KFK4EL+tXs/BQz5orDQEXrj4zlHLDwkPD8fOztYg8yeEEEIIYYqMptm7e/ceU3+cwanjPhmy0XurWLEizJj+PW07dOPY0QOfXkGkW1YaSx78/sdnLVukSOEPvlelciVUKhU6nY66dWqi1cYRFBRMvE5HhfLlaN2qOQBr123kqK8/arWapk0aUr2aJ9WreTJn7nyOB5ykZIni6PUJTaNKpfrrNNbfCQy8QP++vahfrw4AD0IeEHDiFDlz5sDKyipxnV49unL6zDlu3rpD7lw5GdqtMyqVivj4eM4GnicuNpYC7vnp2rkD167foGDBApy/GMSYUcOJioriYtAldDod1at50qpFs0/OyR9/PKRmjWqfNX9CCCGEEOmR0TR7PfsOYsEvs7G1ld/EN25YnwMHD/PD9FmMHzda6ThCIdZWGm7duvPJ5erXq5PYaL3PkEH93vlzwwb1aNig3n+W69K5w3vXHzl8yHteVaHT6+jauT0xMbHvvNO1S8f31qlSuSJVKv/3mYHNmjaiWdNG77xWtEhhiv6jgW1Qvy4N6td9b90PuXX7Dj26d07SOkIIIYQQ6YlRHELbsHELrnnzfNapWRnFjB+n8tua9YSFyXPCMiqNxpJHj43zbpIqFeh1eiwtLXF2dsLZ2UnpSP/x8NFjsrvIqdBCCCGEyLiMotn7ccYcxnwxQukYRsXCQs3Qwf2ZMm260lGEgrJlzcLdfz3rzhj07tmNL0YNM9pnXd69d5+cObKjUqmUjiKEEEIIoRjFm71Tp8+S3y0fpUt+3t0nU2rP3gOJ/+07cOijy+7es58J/5vMxs3b0iTbv/Xv24vde/aj033+HRlF+lKvbm3Wrd+kdAyTs27DZlq3aqF0DCGEEEIIRSne7K1avZ7BA/um2Xh6vZ6g4MvsP3gYjaXmo8se9vGlfLkyOGXOnEbp3qVWq6lcqQI+R/0UGV8or0WzxmzeukPpGCZny5btdOnUXukYQgghhBCKUvwGLReDLlGjuleajde0SUOaNmnIsBFjEo+YHfU7xsWLQcTGxiU886t1C35dvAxdfDxPnj4lNi6O8xcucvrMOV6FhpHDxYVePbumSd5OHdqyeesO6taplSbjic9z69YtXFxcUn0ce3s7ChV05+BhH+on4QHrGdnBQ0coUMAdR0cHwsIM+4BTIYQQQghTouiRvefPX+Do6KDIw9P1QFxcHKdOn2XFytXkc3WlYoVynD57jk2bt+Hmlg8AN7d8ODo6sG79ZizUFlTz9OBVaCjTZ8xJk5weVSoTeP5CmowlPs+9e/eYNWsWvXr1SpPxvvt2AhMnfZ8mY6UHE7+byuRvJygdQwghhBBCcYoe2bt+4yZFChdSbHytVsvtO3cpVLAAuXPnBKBWjWqcOHmGyZMmsGfPfjQaDTWre7Fl6w5Kl064rrCalwdz5/2aJhnt7e2IjHyDXq+Xm00YmF6vZ8WKFQQFBSXpusjMmTMzZswY3N3dUzHd34oWKUzBAu6sWLWGXj3S5oiyqVq+cjUFC7hTtOiHnzsohBBCCJFRKNrshTz4PfEImhJUKhURERFEx8Sw03vvR5c1MzN7ZxlX17ypHS+RjY0NUVFR2NjYpNmYGcGECRNwd3dn6dKlmJubKx3no+bPnUWlqjVp3LA+LvI4gfd68vQpP838mTMnfJWOIoQQQghhFBRt9l6/fo2DvX2ajLVj524uBF1i0v++AiA+Ph47O1vs7OwwNzNj0sSvAfDzP/7eawhjY2OZMumbxD+fC0y7UyutrayIjo6WZs+A7t+/T2xsLG3atDH6Rg/Azs6WGT9OoW3Hbvj77JejvP+i1+tp16E7M6Z/j52drdJxhBBCCCGMgqLNnrm5OdHRMWkyVv78+di1ey9Llq0EPZibm5E9uws2Ntb4HPVjzbqNZMniTMCJU9wPeUCPbp3fWT93rlz8PG8hRQsX4uatO7x69YoK5cumSXadTofKTPEbp6YrDx48oEiRIkrHSJImjRtyISiYjl16sXHdSqXjGJWOXXpRr15tmjRqoHQUIYQQQgijoWgHkSWLM8+ePU+TsUqVLEH/vr3Q6XTo9Hp6dOtC4UIFqVihPP369CQ6Oprbt+9QqUJ5unbuAEClShUS1588aQJZnJ25cfMWzs6Z+ebrL9MkN0DkmzfYWMtRPQET/m8suXLmoHO33kpHMRqduvYmd66cfPPVOKWjCCGEEEIYFUWP7OV3c2P9hs1pNl6VyhWpUrniZ7/+tul7S4nndun1emJjY9FoLNN8bGGcZs2YxsRJ31O7flO2bVqDo6Oj0pEUERoaRpv2XfDyrMqkiV8pHUcIIYQQwugoemSvUKEC3Lp9R8kIRu/ho0dky5ZV6RjCyEya+DWDBvTBo1pdtu/wVjpOmtu+wxuPanUY0L+PNHpCCCGEEB+gaLNnY22NmZk5r17Jg48/5MCBI9SuWV3pGMIItWvTCt8j+1ixag0Nm7Qi6FKw0pFS3cWgYBo0bsnK39bi57OP9m1bKR1JCCGEEMJoKXoaJ0C9urXYvHUH/fv2VDqKUVq/aQvzf56pdAxhpFyyZWXX9o0cO36CkaPHE6+LZ0C/3rRs3pRMmdLHdZ6RkZHs2LmbRUtXYGZmxncTv6Z6NU+lYwkhhBBCGD11WFhYkldKzjof0qNbZ3r1HSzN3ns8evwnr16Fkj17to/OuSE/j9SqFxkZiV6v/2TtmJiYTy5niHxRUVHExsYarN4/KVGvVMni7Ni6jjt377Fy1Vqmz5iNRqOhTOlSlC1TClfXvDjY2xv9YyZ0Oh2hoWHcDwnhYlAwQUHBREVHU7O6F3Nm/oB7fjcgaXOcHj5fqZe+6kVHRyd7LFPcXqkn9aSe1JN6ytVTOzg4JHngpK7zKVmzZsHX7xg1a1QzaF1TN2nyNEYMG/TR+Tb052HoeqGhoTg4OGBubo5KpfpkbY1Gg0aj+eByhspnbW2NpWXCTW+Mef4gafnKlS1DubJlAHj56hUXL17iUvAVDh85yuvX4cTExKBWG+6AvlarNWg9nU6Hs7MTrnnz0rFDW36YOgmnzJmTXe/t/mcoxv73LbX+/hqKsW9vWs2flZUVkPSfPca+vbL/GVc9mb+UkflLGZm/lDHk/Cl+GifA9Gnf0avvIE4HHFU6itG4fecuZ88GsmjBz0pHESbKKXNmateqQe1aNRJfM/YfbqnRLAshhBBCZFRG8aTuYkWLUKlCeab9KNemvdWn32BmzZimdAwhhBBCCCGEiTKKZg/g59nT2bp9J/7HApSOorgxX06gXLmyclqrEEIIIYQQItmMptkzMzNj2+Z1DBg8gitXrysdRzFz5i7g6rXrzJajekIIIYQQQogUMJpmDyBvntxsWLuSth26cur0WaXjpLmpP85k9559eG/fqHQUIYQQQgghhIkzqmYPoHSpEuzeuZmBQ0Ywb8EipeOkiejoGDp3601w8BUO7d9l9LfHF0IIIYQQQhg/o2v2ANzzu3HmhC9nzp6ndv2mBF++qnSkVLNuw2bKVfLCs2oV1q9ZjkqlUjqSEEIIIYQQIh0wikcvvI+lpSW/rVjE8YCTDBwyEns7W0aNGELdOrUwMzPKHvWzvX4dzpp1G1iybCUlSxTHz2cfWbNkUTqWEEIIIYQQIh0x2mbvLS9PDwL8DnIu8Dw//7KQEaO/JE+e3Fio1XTv1okc2bMnPhzbWEVERhIS8oCLFy9x5tx5YmJiaNa0EQf27CBbtqxKxxNCCCGEEEKkQ0bf7L1VoXw5Vq9cAiQ8cPzcufNcuXodn6P+xMbGJi6n1WpRq5O/WREREQDY2toCEB0djZWVVQqSQyYbG/LkzU2Txg0ZNWII+fO7paieEEIIIYQQQnyKyTR7/1TAPT8F3PO/972wsDAcHBySXXvatGnUrl2bypUrAxASEoKrq2uy6/1bWFiYwWoJIYQQQgghxIeY9sVvqUCtVpMpUyalYwghhBBCCCFEikizJ4QQQgghhBDpkDR7QgghhBBCCJEOSbP3L/b29jx79kzpGEIIIYQQQgiRItLs/UuTJk1Yv349UVFRSkcRQgghhBBCiGQzybtxpqbcuXPTrl07Bg4cSMGCBYmPj0/xoxf+KaWPhjDmeu7u7rRo0QILCwuD5RFCCCGEEEIkjzR771GvXj1q1arF3bt3efjwIS4uLgarHRkZadC7fRpTvfPnzzNw4EBmz56Nvb29wTIJIYQQQgghkk6dnOe+GfpZccZaz8XFBY1Gg6Ojo0HqpXe5cuUia9aszJo1i1GjRiW+HhYWRmRkJHq9/pOfTUxMzCeXM8TnGxUVRWxsrMHq/ZPUk3pST+p9rF50dHSyxzLF7ZV6Uk/qST2pp1w9dVIfQJ7Sh5abWr3Q0FCjzmds9erXr8/69esTa7ydP3Nzc1Qq1SdrazQaNBrNB5cz1PZaW1tjaWkJYFTz9z7GnM/Y68nf35SR+UuZD83f20sD5Pv342T/SxmZv5SR+UsZmb+UMeT8yQ1ahEGpVCr0er3SMYQQQgghhMjwpNkTQgghhBBCiHRImj0hhBBCCCGESIek2RNpIjIykoiIiE8u5+3tzfXr11M9z82bN/H390/1cYQQQgghhFCKPHohg4iLi2PoiDEcO34iTa6pK1qyQpJe/6cz56+w/LeNho70XlW86qTJOMnVsGmbNBmneLGiLJw3m6xZs6TJeEIIIYQQIvVJs5dB1GvYgrZtWrJw3mzMzOSArvibXq/He/c+atdvyrlT/mg0lkpHEkIIIYQQBiD/6s8A/PyPkyNndoYO7i+NnvgPlUpF82aN6dShLb8uXqp0HCGEEEIIYSDyL/8M4PKVq3h6VFE6hjByNWtU41LwFaVjCCGEEEIIA5FmLwOQx94JIYQQQgiR8UizJ4QQQgghhBDpkDR7QgghhBBCCJEOSbMnhBBCCCGEEOmQNHtCCCGEEEIIkQ5JsyeEEEIIIYQQ6ZBRPFRdr9dz8tQZdu/dz7nACzz58wmxcXFKx/oklUqFtbU1+VzzUr2aJ02bNMQ9v5vSsYQQQgghhBBC2Wbv4aPHTJo8jWPHT1C6VAlaNm9K/z49yZkzB5aWlkpG+yx6vZ7IN2+4c+ceR3396DtgKKGhYfTu2ZVBA/qiVhtFL21y9h84zMuXL/HyqkrePLnfu8zGTVsB6NC+TVpGS3UbN21Nd9skhBBCCCGUoUg3Eh0dzcgvxnP6zDm+GDmUhfNmY25urkSUFFGpVNhmykTpUiUoXaoEI4cP4cWLl8yc/QulynkwasRQ+vXpoXTMFFu/YTN+xwIwNzcnOjqaLFmcadSgHjVrVEu1MS8EXcLLq+oH3w958DvZs7sYdMze/QajVqtRm5tjqdHgls+VGtW9KFO6pEHH+bcFvy7By9ODUiVLEPLg91QdSwghhBBCZBxp3uz5+PozbMQYBvbvw6/z56T18KnO2dmJqVMmMn7caIaNHMPmrdvZuHYlmTM7Kh0tWdZv3MyJk6fp1aMrlStVAOC3NetZv3FLYrN3POAkr169IpOtLbVrVgfA//gJAOK18cTGxZLfLR+vXoXy5MlTsmd3oWKFch8dV6uNT/z/4wEnefnqFfZ2doljVqlSKfF9nU7H4SO+xMTEkCWLMx7/eC+pRo0YQtEihbl48RLHAk6yeOkKBg3oQ8kSxdFqtRw+4kt8fDwuLlmpUP7j2wDg63+c169f4+jgQPVqnv95/9jxEwRdukzJEsUTtqtyxU/W9PH1JyIiAqfMmalSuRJqten9okQIIYQQQqQ+dVhYWJJXSs46AEuWrWTTlh3s895K3rx5klXDVNjb27Fq+SK2bNuBZ416LF8yn6JFCgPJn78P+VS9mJhoNBqrZNUOCDhFnTo1Exs9gO5dO1Hqr+Zk+YrVXAq+TLFiRfjjjwucCzzPuC9GEhBwksyZHYmNjeXZ8xcEBQUTHR2No6MDO733YGVlRVDQJUJ+/wP0emztbLl65RojRwx5Z/zfVq/j1JlzlCpZghMhp7lw8RKjRgzhxIlT5MyZg+peVRn/9UScnJxwdEio/eLlS3LmyMGSZSspUrgQ5uZmnD13gYH9e392I1imTCnKlCnF6LFfEXz5KiVLFOeLcV+TK2cOrKw0bNm2gz69u+NV1YOh6m2iAAAgAElEQVRGTVtTpEhhChZw59r161QsX47u3Toz++f5PHv2nHz5XPE/FsC16zcY0K83Y778mhzZXXjzJopMmTLx6tUrzp47TzWvqixaspzq1TwpW9GLRQt+plLF8pw6fZYFvy7ltxWLmPbjTKKjo8mVKyeHj/hy9+49unfrnDAHmTNjb2/H+QtBNGvaiGZNGiX589ZqtUneP9N6f5Z6Us/U60VHRyd7LFPcXqkn9aSe1JN6ytVTOzg4JHngpK4DMH3mHHx8/DjhfyhDXcvWtnVLChcqSPtOPdiwdiX5XPMka/4+5HM+j+Q2egAvXr4iZ44c/3m9TJlSAPgfD6BP7x5U8/QgLi6O/gOHE3j+AqhUxMbGMXzoIHx8/dmydTvDhgxErVZz4+Ztnj17DioVoaFh/PTDZABmzZmHz1H/d25y43csgO5dO1OjuidarZZBQ0e9k2OX917i4+MZPzbh9c1bMnPy1BkaNagHgJdnFcqWKc2evQeIj48nqXLnysnz5y9Yt2ETTpkdGTdmJFqtlg2btnLmbCBeVT3QAyOHDcLVNS979x1g/8EjdO/WmYtBlxg+dBDly5XhxMnT/Lp4GQP69UaFCnt7e74YNZxr129w6vQZ6tapCZCYsWWLpty7d59yZUtz9959ChV0B+D6jZusWr4IgKO+/qzfuIXu3Trz8OEjmjdtTMUK5XBxOYCDvX2StxVArVYnaf9M7s+DtKoXGhpq1PmMvZ7MX8p8aP6srBJ+JqfV96+p1pP9710xMTFEx8Sg1+k/q97r8HAcHAx3VtHr16+x/4zvFjMzMzQaSzQazUeXM/bPIyPvf1qtlujo6HfOskqqtNj/VCqwsLDAysoKM7OkPWDA2D8PQ+5/adJ1rVu/iX37D3HkgHeSP4z0oGSJ4mzduIa2HbtRukRBNGl885kcOXORK7drsta1stKg1Wo/+P6Zs4EMGzLwrz+psLK24vXrcFRA1izOAJibm6PRWCUe2TQ3N0OrjUMF2NlmSqzl5JSZR48ev1P/7Lnz2NvbsWXbDgDU/7q288XLlzg7O/9dw9mJly9f4eXpQcCJUyxYuJRcuXJSuFABmjVN+pGu2LhY7OxsefbsBaFhYQwbOTYhh9oca2vr/yzfuFED5s5PaMasra0pVTLhCKiVlYYLFy/9NU2qT15vWKZ0Sc6du0Cb1i0IDr6Cp2cVABwd//7BaWdnl3iEoKpHFZYsXYn3nn2453ejVYumSd5WIYQQxuHNmzfsO3CY3Xv2cfnyVSIiI9FoNFhpNKjMVErH+yidTkdMTCwxMTFkypSJUiWL07RJIxrWr4uNzX+/N4XyzpwNZOOmrZwLvMCz588xNzfHysrK6C8T0eshLi6WqKhozM3NccvnSt06tWjZoukHb/CXEaV6s3f37j2m/jiDU8d9MmSj91axYkWYMf17pk6bwTHfAwar+zm/SVjw6xL0n/eLwP/ImzcPN2/dxrNqlcTXbt66zf4Dh6lezRO9Xo9OpwMSGiBdfDzmajUqlYp/Dqn/VwALCwtQqd5pJOO18Qmv/0NcXBwd27f94NFgjUaDNi6OuLg4LCws0MZpE5f9YtRwgi5d4uXLV+zavRcLS0vat2312dt++fJVbt68TacO7bh1+zZ5cuemRnWv/ywXHh6O+h+5nz17lrA98X9vj06nT9xWlYpP/l1o0awJ23d4cy7wAs9fvKBJowYA785XfDwqVcKX/qABfahcqQIREREcOnKUeQsWM3Rw/8/e1rf++D2EatWqffbdcLVarUGP1Bu6XnR0dOJRFEMw9u2V+fsvOzs7Bg/+f/buMiCqrA3g+H/oRgWbNglFDLA7sdtdu7v71V133V1rdVfXtbu7VwRUTEqxCwUDdVHXAqRj5v3Ayoqi1Ax3wPP7BHPvfc5z7wzDPHNPjKB58+ZKaze33k92JQgf8w+4wPxff+f+g4c0btSAvn16UrWKMyYmxlKnliNRUe+4fOUqBw79xawff8HO1oapk8dTu5ab1Kl99V68+IcFCxdzzOs4DvYV6NyxPRPHj6ZkyRJpny3yk8SkJEJCQvHw9Obb3gNITExk6OAB9O/b66uuPyAPir1+g4azfOnvGBkZqboptefesjle3ieY/+vvTJsyQSkxZTKZSv8o69Wpxdr1mzAw0KdsGTsSEhM5ffocKSkpVHGuRId2bQgJvU+N6lXxPn4SBVC/bm0CAi6Q9MFaiUlJSYSE3qdc2dTuiNra2shkpLs7dv/BA1yqOKdrv2OHttwJvku/Pj05d96Pvzw8qVa1Stp2WxtrTvqc5uKly9Su6cbtO8GUK1uG7Tv38OTJU5o0boiZmRmlSpXM0oer6OgYAi8E8fz5C875+mFna0Ozpo1QKBTs3X+Q2rVcqenmyp/LVwOKtFwuXb5C6VIl2bh5G+3atgZSi9+jHp60dm/Jw4ePaO2eWrDJkJGSrmuEjPj4hE9yqeTkSGjofZwrO6U9FhMTy4mTp2japBH37oWkjX2dPHUmXbt0pH69OtwLuc/bt28zPdeMaGpqMW7cOAoXLpyl/WNiYjA0NMx8xyxSdrwXL15QvLjyZm1V9/MV1+9Tr1+/ZtiwYTRs2JD169crre3ccHd3p3379vz8889SpyKoiavXbjB2/BQMDQ3o1KEdgwrATN6QOn9Bwwb10iZX8/UL4Kc5C4iPi+Pn2d9Rp3YtiTP8+sTGxjJp6kx8/QIYPXIoc+f8iM5HX7TnRzra2jg62OPoYM/kCWMJf/acXxcuppJLTSaOH82Afr2lTlEyKi32du7ai7WVZYazEH6tFs6fg3O1WgwfOghT05yNq8pLTZs0Qi5X4OcfwOkz59DV0cXevkLaHa6OHdriccyLYSPHUqRwEbp37QR8WoQaG/9X7BsYGKBQKJCRevdv1uw5vH37Fhtra1q2bIavbwBF/p29tHPH9hzz9GbYyHGYGBtTr1765Rhq1XTlydO/2bP3AFu37qRMWTvGj0qd5GXZijVs2LSVlJQUypUtQ59e33zxXIsVLcr+A4dRoEBXV5cqzpVxrV4NgObNGvPy1St27t7H5q07KVvGjgnjRv17bsY8efKUMeOnYGRkyJyfZgHQrUsnvE/4cOSoJyWKF6NLpw6p10ZDhuLf+572FSvg5ladTVu241qjGjY2/3W3da7sxOmz52nWtHHatezRvTPHT5xi7/5DWJQuRbs27gA4OTmwbccu1q7fhKWFBa1aNsvS8/uxkqVK07lz1tf5U/c+72FhYVhb56wLc0bU/XzF9ctY165dMTc3586dO9jb2yut/ZyqWrUqLi4uuLm5sXjx4gy/XDEzM6No0aISZCfkJYVCwYRJ0/EPvMAfvy/AtUb1zA/Kx+rUrsmxI/sIvBDE2PFTqFXLld9+nZsv7yTlR/sOHGLm9z8xeuQwli/9Tep0VKpUyRL8vmgeEZGRtGzdkU1btrN14xosv8LunTLFx/3rMpGdf9YuNeqycf1KnCs5Zb7zV2T5yjU8fBTGr/Ny/61uVp6PZStWo1CQo259qrRj114ePHjI4IH9AND/ty+/cSZ3gcPDn7Fx8zYsLEpnWsDlhZZtOrFq2eK0f1b5daZZP/9A1m3YzLrVy7J8jChWCna8gnT9pk2bhqmpKdOnT1dKvKzI7Ppt2LCBZcuWERMT88m2Z8+eYWlpycWLF9O60qr760W8/rLn1avXtO/UgyaNGzD7h5lKyys/mfXjLxw/eYpD+3dS1Nw8V7HE6+/Lxk2Yyp3gu2zfsh4zsyJKyyO/OH7yFGPHT2H+3Nm0bd1K8ucjM8p8/anszt55X3/sbG0+W+gF373H/fsPMTc3Szetv6odP3GKN2/foKOtg6Vl6SytlaZsQwb1p5JLTebPmf3V9yNWKBQUK5a9b683bN7GnTvBuLlmvibdh/YfPMKpU2cy3LZ0ycJsxfpQTEwMWlpalC5dKscxBEFQLX19fRITE6VOI53+/fvTv3//z26fN28erq6uXL9+PQ+zEvLC/fsPadepO/PnzKZN65ZSpyOZH2fNoEaNajRs4s6RA7uxs7OROqUCqUv33pQuXRIvj4NSpyKZZk0acdbHkzYduhIe/owe3bLeiym/U1mxt3rtBkYMG/TZ7Tdu3ubx4ycYPjXMk2Iv6NIVtu3YjZ6uLpaWFsTFxXHM6zhXrl5Pu7OUV7S0tHBzrY7PqTM0bdIoT9tWJ99075Kj42ZMm5Sj4zp1aEunDm1zdOyXnDulvAl3BEEQ3ps2bRpz587l9evX6WYdFvK3v8Of0bZjNzasXZGnX3arqzbuLTE3M6NNh64cP3ZIfHGqZJ279cLJyYEfv/+f1KlIztzcjLM+njRr1Z6UlBRGDBssdUp5QmXFXtClK6xfs/zz24Mu06B+XQ4d/ivd4ytXr6NoUXNCQx8weeJYvLxPcPP2HVCkzmjZrEkjFMCZM+e5eesWiYlJ2NnZ0rljOzQ1Pz9FrIenN1ZWFowf89+i3f4BF/jjzxWULWNHo4b1CbxwkUuXr5GYmIBz5Uo0aliflavXYWZmRtfOHYiLi2PTlu0MGzKQlavXAamzKr569ZoKFcrRuWN7AI78dYzgu/dQKBRUKF+O9u1af5LPN927sGffwa+62BMEQRC+rESJEqLYK0CSkpJo16Ebf/6xSBR6H6jpVoNlfyyibcfuBPr6fDIzt5Az4yZMxdLSQhR6H9DR0cHr6AHqNGiGk6PDVzGviEr6EL569ZpChUw/OyX22fN+vI2IwM7OBjMzM4785ZG2zc8/kHshoZQrWwafU2fZu/8QTg4OVHJy5KiHF2fOnuf69Rts2baDihUrUKumK2fOnMPT6/gXc3r48NEnb6y1arpSycmRu/dCuHDxEmvXb8bSsjQVypdn89adnPf15+Wr1+mOWb12478/yYiNjaNkyRJUdanCtu278fI+wZmz5zlw6AguVSpT1aUKBw4d4ew530/yqVXTLXXxcUEQBEEQvgp9+g+hX99eNG5YX+pU1E6jhvUZ0K83fQYMlTqVAmH/gcPcDr7L4kXzpE5F7ejp6bF/9zaGjRzHu3fvpE5H5VRS7AXfvUfFCuU/u/3SpctUr1aVihXK4+LizMVL/xU9CoWCBvXq0qljO27dvk31alUxNy+CmVlhatd05dbtYKq6VGHMqOEUKVwYhUKBtbUVr19/eap5uVyOqfGns1+ampoSHR3D7TvBWFpa0LZ1K1q1bEaPbp2RyWQkf7B8gEwmo5KT478/p47Vali/Ho0a1qN2LTcehT2mQf26DBsyEAMDAzS1NCldqhRvIyI+adfExJiYmNhP1p8TBEEQBKHgOXDwCDExsYweKYqZzxk1YgjR76I5cPCI1KnkazExscz4fjbbt6yTOhW1ZW1txdRJ4xg0dJTUqaicSrpxhj1+gq2tTYbbbt68ze07dylRvDjfzUqdjfLJ07+5GHSZGtVTJ0t5v6Dzu+gY4uNf83d4eNrx+vr6BF4IYvPWHVhalMbExCRLBZOGTIN30dGfPB4dHY2JiQnJScnof7B4cIvmTQA4eiz9eKwPpwc2NPpvfSd9fT3i4xM4cfIUu/cewM7WBkNDQ+QK+WdzMjAwIC4uDgMDg0zzFwRBEAQhf5IrFHz3w8+c8DosdSpqb83KpTRt2Y727Vp/9ZPY5dSkqTMYPXIo5qL79xf17dOTzdt24ucfSO1ablKnozIqKfaioqIwNcl4Dbkbt25RvFgxmjX9b6zahYuXuHzlalqxx79rkJkYG2NibMSYUcMBOHfej5puNdiybSfWVpZMnzoRgJnf/0TJEl/OydKyNJcuX6Wm238zOF6/fpO790Lo+U03YmJiefzkSWrrCgUbN29DX08PbS2ttGLy+o1bBF64CKQWfdHRMRgbG/H06d/ExsZRpEhhrt+4RRXnSmmDPsdOmPLZnPT19IiPjxfFniAIgiAUYCtWrqFli6aUKF5c6lTUXokSxWnZvCnLV65VuyWj8oN//nnJ6TPnWPHn71Knki/8tmAOYyZM4czJY1KnojIqKfY0NTWJj0/IcNvFoMvUq1M73YDI5ORk9uw9QPDdewDI5anFVZUqldm4aSt79x9EX1+f4yd8ePs2AlMTE65eu4GX9wkePHxEkSKFiYyK4qiHF63dW2TYbssWzdi4eRtz5i3E1taG+Lh4gi5fxqWKM00aN+TylascPebFjp170NbW5szZ8wwZ1J930dHcvhOMxzEvbt66Q62argDIkFG4UCH2HTiEvp4+Rz28mDljCo8fPyH0/gO8vE9y+04wpiamvH0bwZmz59MWIn9PLpcjE99aCYIgCEKBtmrNBs76FNwPk8o2Y/pkGjRuKYq9HFiwcDGTxo+ROo18w9m5ElpaWly/cYvKlRylTkclVFLsmZub8ejR4wy3VXWpQvnyZdM91rhRA8KfPSck9D4tmjdN6ypZv25tUCi4E3yXlJQU3Fu1oHnTxgAkp6RwL+Q+tjZWFCtWjOs3bn0xp9q13DAyMuL27Tu8fPUaXV0dOnVoR5PGDdPy6tenJzdu3iIlJYX+fXtRu5YbtWu5sW7DZh4+ekyNGtUoVapkakAZyBVyEhISefbsOdOnTqDpv7G2bt/FvZBQnBzt0TcwIDj4boY5xcTGYqAv7uoJgiAIQkHl5x9I2TJ2FCpUSOpU8o3ChQtRrlxZ/AMupH3JLmSNh6c3c375Qeo08pVxo0ewdNlK1qxcKnUqKqGSYs/O1pYdO/dkuK3Xt92z9Xj9enUynBa1e9dO6X53rVEt07wqV3L8YtVeq6Zrhm8qA/v3yWBvGQq5gvZtW6Opmf7u3MfnUrd2zU+OVigUJCYmoqurk2negiAIgiDkTxs2bWXQgIw+R+S9y1euAVDVxVniTDI3sH8fNmzaKoq9bLhwMQgH+4ro5KOlK7Zu3/XZGiCvtGrZnKn/+17SHFRJJcVe+fJlCQm9r4rQX/TL3F8zfFxHR4fJE8cqtS2ZLLVg09HRztF6MH+Hh1OsWFGl5iQIgiAIgnoJvBDE0sUZfz7Ja+fO+wGpxd7iP5ZzLyQEDQ1NNGQytHV0qFG9Kj26dZY4y1SNGtVn2oxZUqeRrxw4+BddOndQasy16zfh6xfAkEH90wpvn1NnOXLUg98X5n5Zh4tBl6lXtzbWVpa5jpVTWlqaWFqUJiTkPuXKlZEsD1VRSbFnoK+PpqYWb99GULhw3nVbmDF9cp61NWhA31wd7+V1Ms/W2dHW1s5wJlJB+FBCQoJYyFYQBEGJoqOj0dbSQu+D2b7ViZOjQ9qEcqdOn2X/wcNERkYxdHB/iTNLncROW1uL6OhojIyMpE4nX/APCFTJ0h4N6tXlmKd3WrGnofHfzPTJycn4B1zgn5ev0NPTpXWr1LkzTvqc/ndfDaLevaNcmTLExccRFvYEM7Mi6eexUCjYf/AIxkZGaRM4nvQ5ja6eHq9evqJD+zYEXbrM07/D0ZBpULp0KapVraLcc6xflzPnfAtksaey2UHcWzZnz76Dqgqf7+3YvZce3brkSVtNGjdkr3guhEysXruRNu4tpU5DEAShwAi9/5AyZWylTiNLGjWsT9vW7vj6+UudSpqyZewIvf9Q6jTyjX9evqJkZtPT54ACBYlJSezeewBIvwzZvgOH2b5zD5GRkdy5c5fpM35AoVBw/8FD7oXc58bN24SE3mfT1u0c+esYr9+8YePmbQQEXkyLsWnLdt68ecOY8ZP562jqREbbduxm95793Am+i59/IMtXriU8/BmPwh6zdt1Ggj5Yo1sZ3Fyrc/nKVaXGVBdaYWFh2T4oIoNFwj/W2r05YydMY8igfjlIq2ALf/acN2/eoqenQ06u/8cyez60NDVwrV6NZq3aM2n8aExNTXPdplBwJCQksGrNehISEqjkZJ/t12RW3g+kjKeMv7EPqfv5iuv35f0yOx91u35JSUmEh4ejq6sLqP/rRd2u38fy+nwvBl2ijJ2dUttUpeLFi6X7IC81W1sbgi5donChjJfz+tjX/PpLTk5GU1NTJc+fQqGg1b+z2jvYV0jXhp9fAG3btMK9ZXMARo6ewEmfMwC8fPmK72dO5eq16/y2eBnjx47EpUplnjx5ytOnf4NbDRQKOX16f0vxYsXQ09PjytXrtGndiqBLV1i1fAm1arqyZOkKqlV1YcSwwSgUCpatWMPNW7epXs1FaedoY2NN6P0HuXrO1fX1p2VtbZ2tAyIjI7NULFhbW1O0qDmnz5yjYYN6Oc2vQPrxp7mMGzOC7F77jGT1+Vjy+wJ8/QLYsXMPMbGxn90vJTkRTS1tQDlvFvHx8UrtvpKcnIyWlvJ6H2c3nkKRAoBMpqmUeJlR9vXL6PnV1tamR/cutGvjnu14WX39SRUvLCxMKX9n76n7+Yrr93nvZ0L80vmo4/XT1tamVKlSWFtbq/3rRR2v34ekOF+FQsGjsIxnJ1dHSUlJalXsFStqjkLx5b/b9770fMTHx5OcnJyttp88eYKlpfLGkUVFRWHymTWolREvOjoafX3VdRduUL8ut27fwcv7ZLpJEd9FR2NuViTtd1NTEyIjI5HJZBQpUhhI7cppaGiAS5XKab+/fz5kMhkyQF9fj0KmpkRGRQFQxbkSOjqpQ0tev35NRGQUw0aOA1Ln4rCxVu4YP1MTE+Li4nL8nqPO738qGbP33oK5s+k/aDiBvqdU2Uy+Enr/ARcvXmLV8iV53nad2jWpk8HMoB8aPnw4P/zwA8WVtPBrQfhn/aElS5ZQuXJlGjVqpJR4mVH29VP28ysIgiB8XlJScqb/d9XJrdt3KF68mNRppNHW1iEpKSnHx7948YI5c+YQFxeX7THpcrkcDSWuhaxQKJRaSH8cLyIiEk2NjL+IVkZbAA3r1+PPFatxcnRI26atpUVi4n/PUVJSMlraWsiQpR33PkZI6H3KlU0dE/f++fhgl4++MJfhYG+fuq+ODlVdnOnXp2fa60HZcwxoammSkpyi1JjqQqXFnoN9RVyrV2Pu/EVMnzpRlU3lGwMHj+C3hXOlTuOzZDIZhoaGUqehtrS1tTEwyL9rI4rnVxAEIe8YGhrw4sU/UqfxRf4BF4iJiSH47j0CAi/St/e3UqeUJiYmhhIlcvblpFwuZ/r06YwbN47KlStn+/j89mV1bGws9RqpaNz9vwWZg0NF3Fs2x9P7RNqmcuXKcvXadWq61eC8rz+v37yhVMmSvHr5Ol2hnpKSkq6Y0tFJXXpMBtwNCUUBBN+9Rxnb92NcFdy+c4dqVV2oWKE8AYEXCLwQhJaWFn95eFKhfDmlzhybkJCITgFdDk2lxR6kdh90rd2QOrVrZrhe3tdk0tSZVKrkKLq1CoIgCMJXoESJ4lz5d207dfT8+QuOeR0HwNzMjOFDB6nVncjwZ89yvCbg+fPnqVatWo4KvfxIT0+P+Pg4lcRW8N/ttzatW3Lj5i3i4lLbatyoPj6nzjJh0nSMjI3o0rkD1apW4fqNm+nujJYsUSLdCKEUeWrhZ2xizI0bt/A45k3xYkUZ0L83ADYfFNpdO3cgJiaGXXv2oVCAo4O90pcIefXqFeZmZkqNqS5UXuxpaGiwf892Wrh3YO+urTg6VFR1k2pp8R/LuX0nmB1b1kmdiiAIgiAIeaBcGTuWhIZKnQYA3//4y6c/f9AN8NXr13gdP4nX8ZMAzJ41I0/zy0hI6APKlMnZBDfPnz/HxsZGuQmpMQ0NDTQ0NElMTEy7a6YMGS019mFvvaouVajq8ukyCAP790n7uXIlJypXckr7/Yfv/5f2888/fpdhu7N/SP/669enZ9aTzoG7d0MK5LILkAfFHoCVpQU7t22kS/debFi7gppuNfKiWbUxZ/4ifHxO4+VxkGix3p0gCIIgfBWsra14/Pip1GkAMKBvb6lTyLZHj8IkXWw7v7GztSEk9D6ODvZSp5LvnPfzp1GDvFn/Oq/lSbEH4FzZib8O7aFzt54MGtCXUSOUv+ijuomPT2DA4OEoFHDc87BazXAlCIIgCIJqaWlpYWpqws1bt9NNaiEFGxsrSdvPrucvXlC4UCGlznBd0DVt0ohjnsdFsZcDvn6BzJg+Weo0VEJli6pnpIydLRf8TnPh4mUaN2/DjZu387L5PLV95x6qutalTu2a7Ni6XhR6giAIgvAVcm/VgjNnfaVOI9/Zt/8Qrd1bSJ1GvtKhXWsOHT4qdRr5zus3b0hJSSmwY/bytNiD1Nl3Nm9YxexZMxg2chyt2nTC+/hJ5HJ5XqeidFFR71i+cg0uNerg6XWcMz7HGDl8iNRpCYIgCIIgkb69v2XLth1Sp5HvbNm2i7591Gdm0PzA0tKChMQEwsOfSZ1KvrJx0za6dukgdRoqI9m98bp1auF7xpvTZ86xbsNmxk6YiqWlBdpaWvTp/Q0lS5RQ6gBTVYiOiSEs7DFXr17nQtBlEhISaNumFV5HD1KsWFGp0xMEQRAEQWKWFqUxMjLiytXraYtKC192+co1DA0NsChdWupU8p2hgwfw629L+H3hPKlTyTc2bd7G2VNeUqehMpJ3hHapUpktG9cAqQuOBwVd5tbtYHxOnSUxMTHb8dIvyJh78fHx6OnpZbjN0MAASysLWru3ZNZ30zE3L5i3fwVBEARByLnvZ05jxvc/4nF4n9Sp5Aszvp/N9zOmSp1GvtS/by8qubgRERFJoULKW9evoNq0ZTtubjUK9LWSvNj7UNkydpTN4RS77yl70UplL6opCIIgCMLXpX7d2syZ+yvex31o3qyx1OmoNe8TPijkchrUryt1KvmShoYGE8aNZvykaWxYu0LqdNRaYmIiCxb+zlmfgntXDyQYsycIgiAIgvC1Wbl8CRMmTychIfu9lr4WiYmJTJw8nVUr/pA6lXxtYP8+PHwUxomTp6RORa2NHDORgf37YmZWROpUVEoUe4IgCIIgCCpmY23F8KGD6NV3kNSpqK1efQczbMggsbaeEmzduIYx46fw+vUbqVNRS9t37uHxk3oeK7kAACAASURBVKdMGDdK6lRUThR7giAIgiAIeWDk8MGYmBgzbcYsqVNRO9P+NwtjYyNGDh8sdSoFgoVFaebN+ZHW7bvmaA6MgszPP5C58xexd9cWqVPJE6LYEwRBEARByCPrVi8j+O49vv/hZ6lTURvf/fAzd0NCWLd6mdSpFCjt2rjTv28vmrVsR3x8vNTpqAVfvwAGDR3F9s3rMDYykjqdPCGKPUEQBEEQhDx0cO8OQu8/YOCQkSgUCqnTkYxcLmfQ0FGEhj7gwJ7tUqdTIA0d3J9+fXpRp0Ezwh4/kTodSW3fsZvho8bjcWQfVlYWUqeTZ0SxJwiCIAiCkMe2b1mPlaUFteo24U7wXanTyXN3gu9Su15TLCxKs2PreqnTKdD69+vFb7/OpVWbTmza8vUV1YmJSQwZPoZNW7bje/Y4NtZWUqeUp0SxJwiCIAiCIIFZ303n90Xz6NlnIGMnTCX82TOpU1K5qKh3jB0/hZ69B7L4t/n88N10qVP6KjSoX5dAv1Mc8/SmSfM2XL12XeqU8sSmLdupUr02FSuUx8vj4FfTdfNDWpGRkdk+KCfHiHj5J15UVBQpKSlKi6fu55udeElJScTGxn7xGHU/X/H8inhfY7z341Uy21/dzlculxMdHZ0WR93yE/FyH8/BvgKnjh9l7frNNGvZntq13Bg7ejhOjg5KyFB93Lx5myV/rsDPP5D+fXtx6sRRQLnPyYexEhIS0NTUzFV8dXy95DbequVLCLwQxJhxk9HW0WHsqOG4t2qOlpZaLb2dK69fv2HDpq1s2rKd6tVc8Di8h8KFC39yvdTh+ciLeFrZXYBc2YuWq3u8iIgItc5P2fEATExMMFLSNx8F7fppa2tjYGDw2WPU/fUHyn1+pX4+MlPQXn95Ha8gXT89PT2AL+6vjtdPQ0MDIyMjTE1N1f71oo7X70Pqfr6DBvRhwrhR7D94hIlTZvD06d9Uca5Eg/p1qeJcmVIlS2BgYICGhnp3ylIo5MTExPJ3+DOuXb/B2XO+XL16HQuL0gwZ3J/VK/5AJpOp/PnQ1dVFT08vx20U5Ndf82ZNaN6sCTdu3GLJnyuYNmMWlpYWNKhXB9ca1bC1tUEul1PU3Fxp+apKQmICL1++Jjj4Luf9AvDzDyQlJZkunTpw7pQnhQoVyvA4dXo+MqLM11/BKeMFQRAEQRDyMZlMRueO7ejcsR2JiUlcunyFc+f9WLpsFc+fPyc2Lg65XJ6lWPIUORqaXy4M308OI5PJMo2nUCiytJ9MJsPQwICSJUtQycmRkcOHUK1qFXR0dLKUt5B3KlVyZO2qPwG4cvUaV65eZ//BI4SFPSYyl72AsvL6y47Pvf50dXQxMytM+fLlaNywPt/9b0qBXyQ9u0SxJwiCIAiCoGZ0dLSpVdOVWjVdc3R8WFgY1tbWX9xn5cqVAAwbNizTeKroSSSoDztbG1yqODOgX2+lxMvK6y87xOsv50SxJwiCIAiC8BUqXry41CkIgqBi6t3xWxAEQRAEQRAEQcgRcWdPiRQKBX4BgRz18CLo0hVePH9BYlKS1GllSiaToa+vj421FRFvX/PwURiVnBylTkvIR/4Of4b38ZOcOXuekND7REYqd8ZPVdLQ0EBfXx9Li9LUdKtByxbNcK7sJHVagiAIgiAIuSaKPSX4O/wZc+b9is+pszhXdqJDuzYMGdiPUqVK5osByQqFgpjYWO7ff8ip02cYM34KERGRDOjXi+FDBxWo6XgF5YmLi2fFqnXs2XcQPT1dmjdtTO1abixaMIdChUzR1NSUOsUskcvlxMbG8SgsjPO+/nw36ydC7z+gUYN6TBw/Gjs7W6lTFARBEARByBHxKT4X4uPjGTdxGoEXgpg4bhR//P5rvvmA+yGZTIaRoSHOlZ1wruzEuDEjef36DYt+X0rlqrUYP3Ykgwf2kzpNQU0kJyfz48/z2Lf/ID26dcHL4wDmZmZSp5VjqVPbG+Lk6ICTowPDhgwkOTmZvfsP8W2fgZQqWZLfF87F2tpK6lQFQRAEQRCyRYzZyyGf02ep5lYfRwd7rlw8T6+ePfJlofc5ZmZFmPPzLALO+3De15/m7h14+zZC6rQEiXl6n6BKtdro6upy/Uog38+clq8Lvc/R0tKiR7fOBJz3YdCAvrTr1IMfZs+ROi1BEARBEIRsEcVeDixdtopp/5vFsSP7GD1yqNTpqJSJiTGb1q9iyKB+1G3YnJu3bkudkiCRKdO/Y978RXgePcDM6ZPRKkBfbnyJe6vmXLl4nojIKNp3+obIyEipUxIEQRAEQcgSUexl04JFiznq4Ynf2eNYWVlKnU6e6dKpAzu3baBrjz5cu35T6nSEPNalR29iY2I5ffIYFhalpU4nz2loaLB40TxGjhhC3YYteBT2WOqUBEEQBEEQMiWKvWzYvmM3xzyP43Fk31c5aUklJ0f27drKN7368+Kff6ROR8gjHTp/QyUnR/78Y5HUqUiua+cOrFq+BPe2nXn69G+p0xEEQRAEQfgiUexl0YMHD5kzfyFHDuxCQ+PrvWwODhVZuOAXunTvLXUqQh4YOmIs5cuXZdbMaVKnojZq13JjxZ+/07ZjN+LjE6RORxAEQRAE4bO+3qolm/oNGs7ypb9jZGQkdSqSc2/ZnKouzsxb8JvUqQgqtH7jFl68+IcFc3+SOhW106B+XUYMG8w3vftLnYogCIIgCMJniWIvC3bs2ou1lSX169WROhW1sXD+HDZv3UFkZJTUqeSpwMBAQkJCpE5D5V6+fMXC3/5g2+a1UqeitgYP7IeOtg4bNm2VOhVBEARBEIQMfX0Dz3JgwcLFbFy/Suo01Iq2thajRgzh57kL+HXez1KnA6QuDn8x6DJ/HfXkQtAlnj17TmJiotLbuXD5Fr/MX6y0eDKZDD09PaytLKlbtxZtW7eifLmySoufEyPHTGD2rBkYGhpKmoe6W73yD2rWacy3Pbqiq6srdTqCIAiCIAjpiGIvE0GXr2Bna4NzJcccHX/UwwuA1u4tMnxsxvez+WX2958cN+vHX3BycqBr547Zam/5yrXI5SmMGqH6JSGGDOpPJZeazJ8zW9JxjP+8fMnc+Yvw8j6Jg31FOrRrTb8+31K6dKl88QFcoVDw+vUbnr94wanT5xg5ZiL//POS3j170L5tqzzP59btO4SHP6dL5w553nZ+Y2piQr8+Pfll3kJmz5ohdTqCIAiCIAjpiG6cmdi1+wAjhg3K8fHnff15Fx2d7rFnz59z9foNAK5cvZ7hcW6uNTA0yP5dFRtrK+xsbbOfaA5oaWnh5lodn1Nn8qS9jyUlJTF+4jSatmiHk6MD1y75sXfXFnr17IGdnW2+KPQg9c6eubkZTo4OjB45lOPHDnHW5xgxMTG06/QNS5etzNN8Zv88n+9nTs3TNvOz8eNGsWfvAVJSUqRORRAEQRAEIR1xZy8TN2/dpkH9urmKofnRXS9Njf8Wo1YoFBw/cYqr166joSGjd69vKFa0KGGPn2BuXgQA/4ALXL5yleTkZKo4V07L5/0EGkZGhtR0c6VG9aqEPX6SFjsg8CIXgy4RHR1DyZIl6NPrGzQ0NFi5eh0O9hUJunSF5JRk6tauRe1abjk6t2+6d2HPvoM0bdIoR8fnVEDgBQYPG0PvXj24ftk/T9vOC6ampsz6bjqTJ45j/KRpNGzSil3bN1G8eDGVthsTE8ut23do3qyJStspSHS0tWnSqAH7DhyiW5dOUqcjCIIgCIKQRisyMjLbB+XkmPwY7/XrNxQqZJrrNfV0dHXS/a6tnT7emXPnaVCvDi9fvmLOvIUsXjSf58+fY25eBP+AC2zYtJX27VqDAtZv3IqOjg4XLl4iKSmJunVq8fDhI3bt3keN6lVRKBTI5al3GDZu3kajhvWo4lwZX/8Ali5bxdjRw7l0+Sov/nlJ/Xp1eHD/IX95eOa42KtV043/fffjF6+5sp/f5SvXsGbdJvbt3ir52DZVMzDQZ9XyJXh4etOwqTvLl/5GVRfnXMWMior67F2o3XsP4N6yea7iK8NfHp4AtHFviffxk0orPr2PnwRQejE7dMgAJk/7jhY5iKuu738FLV58fHyW9le385XL5URHR6fFUbf8RLz8HS8hISFb7ean801ISEBTUzNXbeSn8xXxRLzP0TI1Nc12w9k9Jr/Gu3HzNhUrlM91HE1NzXS/fzy+rU4tN5o1bcyjR2Fs2b4r3babt25ja2tD61apY/60tLWQK+SMHT0cX78AUlJSsLS04NSZc+mOO+Z5HF1dHbp16YRMJkMBbPs3tkwmo27tWjRqUA8dbW18/QNyfG4mJsbExsZhYmKCTCb7ZHtERIRSn9/fl/zJocMe+J87gZ6entLiqjv3ls0pX64s7Tv1YM3KpTkuzgFMTEw+u4TIMc/jzPzf5ExjbNi4lef//MP0KRNynMeXhITex9DAAIBTp88prTh79eo1Dx6FKb3Yq+TkSFjYY4yNjbM1flWd3/9A+X+/Up7v+/eLL+2vjtdPQ0MDIyMjTE1N1f71oo7X70Pqfr5SXL/3wx2y0q66n+/H8XR1ddHT08txG+L1lzvi+uWOMq+f6Mb5BWGPn2Bra5PrOO+/OXsvNi6OD8uiVl+4k5KUlIz+B0XN+zsHS5et4v6DB1hbWaGtrf3JcbFxcRjoG6T9rq+nl25mSmPj1A/7MpkMuVyRrfP5mIGBAXFxcRgYGGS+cy4c/suDPXsPcsbnWIbnXNCVLWPHX4f24N62M8f+2o+NtZXS27h7LwQHewelx82N7t06Ky2Wg4M9Dg72Sov3IVtbG0JC71OhfDmVxBcEQVA2TU1NTp48SceO2ZsMThCE/EMUe18QFRWFqYlJrmKYmprw6NHjdI89ePgIK0uLtN89PL0pX64sZkWK8CgsLN2+xYsV5fadYCB1fN/GzdswNDDg8pWrDB08gJpuNTh1+ixBly6nO87E2JjomJi0u20xMTFp3+DJZLJ03fg+7laaXfp6esTHx6u02Hv+/AVTp3/PudNeX2Wh956tjTWrV/xBtx59CPQ7leHd1JyKi4tDR0cbPT2dzHf+jIDAi2zdtpPixYuRnJxCfHw83bt1pqqLM3PmLSQ+Pp6k5GRMTUyYNmUCu/bs56TPaezsbHn69G8qV3JkyKD0C5UvX7mG1Sv+YNqMWekeL16sGGNHD2f2L/NJTEzEyNCQh4/C6N+3F7VrubFt+y6CLl2hSJEivHr9ih7duvDw4SMePAqjinMlVq5ex+07wZQuVYqwsMfUr1eHHt27MG7iVCqUL8c/L18RFRVFsaJFmTp5fKbnXq1qFa5cuSaKPUEQ8o127dqxf/9+FAqFUv+fCF+H5ORk4uPjSU7+dGhI1Lt3REQor1tjVFQUihzem5DJQFtbGz09PUlnj5eKKPa+QFNTk/j4hMx3/AI31+qs37iFpctWUqxoUR4+CuPly1d07tg+bZ+zZ33R1tLizNnzad0137Oxscbr+El27dmHTCbj1OmzjBg+GCMjI+6FhPL8xQsCA4NITk7By/tk2nHNmjbi6DFPNmzaSqmSJfAPuEBVlypp25OTk9N+zu2YRLlcjkzFfzz9Bg5j4fxfMDczU2k7+UG9urVp0bwJM76bzZyfZ2V+wAdKlCjB7du3cXV1/WTbi39eUrxY7iaACQi8QMWKFRg1YggJCQnMmbeQu/dCuBN8l8TERGb/MJO4+HjmzFvIqdNniYyIpFWLZnTs0Jaz53zZun3XJ8Xe+zvj75co8fQ+gccxbzp3bM+Fi5coam7GyOFDSE5OZsnSFdy+E0ztWm4c8zrO2NEjqFa1CitXr+NC0CWKfvD68fULYMyo4VR1qcLZ875s37GbHt27ADJ0tHWYNXMaAYEXWbVmfZbO3b5iBe6FhObq+gmCIAiCurpw8RL7Dx7G3/8CL1+9QlNTEz09PbS0NDM/WEIKBSQlJRIXF4+mpia2NtbUq1uL7t26pLv5UlCJYu8LzM3NPrkrl12NGtbHwMCA27eDefHyJRYWpWnVohnOzpUA6PVtd3p+041VazYgk5G2QHm5fyceqVa1Cn17f8vNW7eRyxUMHtiPmq41kKfIuXb9JokJiXTu1J6wsMc8e/4cExPjtLZ7fduD6zduEhJ6nyrOlenQvg2QWix8OI6wTu2auTrHmNjYdF1Glc3jmDf6+vrp1ir82s3+YSbO1WozetQwSpYonuXjunfvzty5cylUqBDly6cfj/r69RvMcllMP3/+D66u1YDU8RLFihXl5cuXJCYmpc0kqq+nx08/zAQgRS7n4sVLTJo6g5SUlC8uX6BQKAi8EMTefQfp37cXNapXBeBeSCgzZ/1EbGwsCoUibTyiiYlJ2j4jhg0GYPuO3WnxjI2N07abGBsRGxsHpN75trAsDYCzc6UMv7HMSPFixfDzy/n4V0EQBEFQNy9e/MOChYs55nUcB/sKdO7YnjEjh1GyZIl8eTc4MSmJkJBQPDy9+bb3ABITExk6eAD9+/YqsHf9RLH3BXa2tuzYuSfXcdxcq+PmWj3DbT2/6QbA0MHp72b0+rZ72s91atf8pCCrXcst3SQd1au5fBK7ejWXDB//MPbHcbJLoVCQmJiIrm7Ou/5lZvYv89m6aY3K4udHMpmMqZPG8cPsOaxaviTLx5UoUYLvvvuO5cuX8+rVq3TbIqOiefEyIld5aWlpIU+Rp/0ul8uRyTQwMTYm4YMxo5cuX6FaVRd27NxD+7atadfWnfO+/mzYtPWzsa9cvc6+/Ydo19Y97e/h0OGjXAy6TM9vuuFSpTLLV65N1/Z7QZeuoKGR/p+S4oP+IKldmFJ/lsnST6L08XGf8+DhI+L+nfFREARBEPKz2NhYJk2dia9fAKNHDmXenB8LxDAaHW1tHB3scXSwZ/KEsYQ/e86vCxdTyaUmE8ePZkC/3lKnqHSi2PuC8uXLEhJ6X+o01Nrf4eEUK1ZUZfGv37iJqakJZcvYZfvYox6eJCYloyGTYWhogLm5GVWcK6sgS2l806Mrv8xbSEJC9ortMmXKsGjRok8ev3zlKot+/zNbOVy7fiPd77Y21oTefwCkTi4UFvaEenVrY2CgzzGv4wAkJiaybv1m3kXHkJSURNGi5sjlcq5cvQ5AXFzGBZP38ZPY21fAvWULkpNTiImJJS4uDlNTE2q61SDwQhDv3r3DwMAAuVyOXC7n9JnzNKhfB/+AQGQyDYoULpQWLzY2lrPnfKlXtzbh4c8xNzcHQIaMpKQkIHWNzKx+02dnZ8PVa9ezcfUEQRAEQf3sO3CImd//xOiRw1i+9Dep01GpUiVL8PuieURERtKydUc2bdnO1o1rsCxA3TtFsfcFBvr6aGho8PZtBIU/+JAo/MfL6ySNG9ZXWfzVazcy9KMxXFkVev8hiYmJaGlpERMbS3j4MywsStO2dSsqOaluxsmz5/24cCGISRPGqKwNSL371LRJI44cPUaXTu0zPyATRQoX5vWbN1ne/9GjsHR30qpXc2HwwH78MvdXxk6YCqTOINq+XWsgdabP0eMmIZcrcHJypGH9uty5E8y27bvYsGkrrVo049GjMH76ZT5Fi5mnxX0/Zf7Tv8P5OzycK1evAandRHv3/IbLV64xbuI0DAz0qVG9Kkc9vDA3K0Lb1q3Ys+8A+w8exsTEmA7t2nDvXkha3I7t27J7z34OHPoLGdC+rTvwfoba/+4Kvp/YKDPPn7+guAq/+BAEQRAEVRs3YSp3gu9y/rQ3ZmZFpE4nzxQyNSXgvA/HT56iReuOzJ87m7atW0mdllKIYi8TDerVZc++gwwZ1E/qVNTSjt17Wbbk07tEynLunC8L5s7O8fEGBvqMHD4ESB3btXffQQ4d/iut2Nu0ZTvh4c8wMUm9O/R+Mg8TE2MiIiKJjHpHJUcHypUtQ4UK5Tjy1zGC795DoVBgX7ECLZo3QUdHh5Wr16Grq8ubN28xNEwdv7hy9TqGDRnIwcN/ce9eKJqamjhXdqJpk0YA7Ny9jydPn6Kvp4+TkwMN69fN9vl926Mri5cuV0qxV7x4MV68+CdL+/bv14v+/XpluG3G9IzX6Rs1Yugnjw0fOijd7x07tP1kn/fdVFf8+XuGcT9eZL5j+/9itG2T/o36w27NHdq3SRvH+qGFC35J+1lHR4eVyxZn2O7HgoPv4qTCLxEEQRAEQZW6dO9N6dIl8fI4KHUqkmnWpBFnfTxp06Er4eHPGDp4gNQp5VrBHImoRN27dWLdhs1Sp6GWwp89JyIiggoVVDPVfExMDJpamkpb0qF8ubI0bFCP4Lv3APht8Z+Ehz+jTp1aGBkZsmXrDiB1uuCnT8OxsbGmciVH9h88DKQukeHh6U2VKpWpWrUKR495cer0WSD1rlV8fDyWlqXR0UntUmlra8Ohw0c5fuIULi7OlC9flu0793De159tO3Zz9+49XGtUx8rSgp279ubonFxcnLl1607uLsy/9PX1SUxMTDdTq5B1l69cw6WKc+Y7CoIgCIKa6TtgGI6O9iz5bYHUqUjO3NyMsz6ebN+5h/Ubt0idTq6JYi8TJUsUp2hRc06fOSd1Kmrnx5/mMmbUcJXFv//gEXa2tkqNaWRkhKZm6g3t6zduUr9eHfT1dHGwr8D7le5lyNDV1cG9ZXNat2qBhUVpLl+9xq1bd6jq4kyzJo1o2rghzpWduBOcWjhGRkYxfOggunXplNZWi2ZNuH7jJrVruVHI1IQSxYtRvZpL2vT80TExyIAWzZuw5Lf5OTofXR0dQKG0Aq1ihfJcv3FTKbG+Ng8fheVobKkgCIIgSGnchKnY2Fjz4/f/kzoVtaGjo4PX0QMsW7Gas+d8pU4nV0Q3zixYMHc2/QcNJ9D3lNSpqI3Q+w+4GHQpWzNBZtfTp39jbWWp1JgxMTFpszCmpMjTJg0B0qbsBzA0NEz7+f2i8TGxsZQuXeq/x/X1efs2dfZKAwP9DNuLjo7hTvBd7gTfTXuseLFiDOjXm/j4eI56eLFt+y4cHOwZOzpnhbOpqSkRkZFKWYOwU8d27Ny9L92ajELmrt+4hY2NdYGdtlkQBEEomPYfOMzt4Lt4f8VdNz9HT0+P/bu30aptZwJ9fTA2Ns78IDUkir0scLCviGv1asydv4jpUydKnY5aGDh4BL/9OlelbURFRWFiaqLUmL5+AVT8t9uplpYmzZs2pn69OkDqYqGQOkFHdHRM2jFxcXEYGhpSyNSUd+/epT0eHR2TViB+MIt/OiYmxpQqVZI+vb5BU1MTP/9AatdyI+jSFewrVmBg/z4EXbrCshWrOe/rT906tbJ9ToYGBqlrxClhvfkO7dswb8EiFsz9KffBviKr1qynX5+eUqchCIIgCFkWExPLjO9nc+60l9SpqC1rayumThrHoKGj2LV9k9Tp5Igo9rJoye8LcK3dkDq1a6YVB1+rSVNnUrWqCw0b1FNpOxqaml9cZDurNm/dQUxMDCGh91HIFfTq2QOAGtWrceLkKWJjY3n1+g1+/oG41qiGTCYjOTmZw0c8UKDg0uWrDOjfh4cPH7F95x5KFD8KstRlB96vk/hhntpaWryNiGDv/oNUrVqFvfsOUrhwITQ0NDh61JO4+Hhu3rxFbGwcUe/eER0dg4ZMI23WyexKkcvRVNIdJUMDAxzs7fHyPkmL5k2UErOgS0xMwufUGf74XYxzEARBEPKPSVNnMHrkUKX0DCrI+vbpyeZtO9O+sM9vRLGXRRoaGuzfs50W7h3Yu2srjg4VpU5JEov/WM7tO8F4HM7ZhCLZYW5m9snC39nx4ZTBxsbGNG3SiLJ2dpQvXxaAEcMGceDQEUJCH2BkZJjuzoyZWREiIiN59y6acWNHYmNthY21FQqFguC7IWhoyOj5Tbe0gvfDO3IuLlWIT0gg+l00XTp1QFdHh7v3QpDJZHzToysNG9SjSaMG7DtwiODge+jq6tKvb89PZpXMqndR7zAyNsp8xyz6fuY0hg4fI4q9LPpt8VK6du6Apqam1KkIgiAIQpb8889LTp8599mZroX0flswhzETpnDm5DGpU8k2Uexlg5WlBTu3baRL915sWLuCmm41pE4pT82Zvwgfn9N5NiWvjY0VDx48yvHxvb7tnuk+H07T/55MBgqFgj69vvlkW+NGDWjcqMEX23JytMfJ0T7TYzp3zP1yCQDvoqMxUWI/ckeHipQsWYI9ew/QtUtHpcUtiKKioti0ZTtXg/L34G1BEATh67Jg4WImjVftesAFibNzJbS0tLh+4xaVKzlKnU62iNkEssm5shN/HdrDsJFj+XP5KqnTyRPx8Ql823sAN27c4rjn4Ty7g2FlZcmTp3/nSVvpyVDIPzMIT828ffsWIyNDZDKZUuMuW7qIWbPnEBMTq9S4Bc2Q4WOYNmVClhdeFwRBEAR14OHpTe/en36pLXzeuNEjWLpspdRpZJso9nKgjJ0tF/xOc+HiZRo3b8ONm7elTklltu/cQ1XXutSpXZMdW9crvaj4Ei1NTQoXLsTff4fnWZsAE8aNYuCAPnnaZk75nDpLndo1lR63WNGiTJ44lp59Bio9dkGxZt0mEhIS6dv7W6lTEQRBEIQsC7wQhIN9RXS0taVOJV9p1ao5vn4BUqeRbaIbZw7p6OiwecMqzvv6M2zkOEyMjRg/diRNmzTK99OvR0W9Y+v2naxZt5FKTo6c8TlGUXNzSXLp2L4t23buZsrEcZK0r+62bNvJjOmTVRK7f99e+AdcYMr078TsnB85feYcy1asJuD8SalTEQRBEIRsOXjoL7p07qCy+P0HDkdXTxeZTIampgbGRsa0atlMqRMcrly9jooVKtCwQV2lxcyMlqYmlhalCQkJpVy5snnWbm5pRUZGZvugnBxTUONVcnLA4/Aerly9zqo1Gxg7YSqWlhZoa2nRp/c3lCxRAh0dHaXmo2zRMTGEhT3m6tXrXAi6TEJCPC2bN2XPzs1pRV5urmluju3csR0dHPMVSgAAIABJREFUunwrir0MREREcv/BQ8qXK5Ota5ydfX+d9xO9+w3hh5/m8sN303OSZoHj6x/AiNET2LdrCwkJCSQkJOQqXn5+/8tP8eLj47O0v7qdr1wuJzo6Oi2OuuUn4hWMeJGRkVnquZOfzjchIQFNTU3JPr+oczxf/wBGjxyq1Fw+NmbkMBz+ncxw0+btHDpyNNNi77yvPy/+eYmBvj6tWjZLe/zMOV8i3kZgbGJM44b1OelzhidP/qZc2bKc9DlDk8YN8Dl1hrf/7tO8aWOVnVeD+nXxOn6SYsWKfrJNXZ7fj2mZmppmu+HsHpOf40VERGQpXsMG9dJmZgy9/4CgoMvcuh2Mz6mzJCYmpu2XnJyMlpbybqgqI56hgQGWVha0dm/J+LEjsbOzVVJ2Wb9+n2Nqaop9xfIcPuJBu7buSsurIJgzbyFDBvXP1vXNyd/H4QO76NqjD6PGTOTPPxZlN80CZe/+Q/z40xw8juzDxtoq1/EKyvtfVkl5vu+XNvnS/up4/TQ0NDAyMsLU1FTtXy/qeP0+pO7nK+X1MzExQUNDg+TkZOLj40lO/nTZo6ioKExMlLf2bW7iyWSgra2Nnp5eWm+qj6+frq4uenp6Ob6mBfn19+rVa0qWLKG0XDJjZWXBOV8/AEaNnUiPbl2oW6cWAYEXWbt+E2tX/cm+A4fw9DqBm2t17t69h39AILN/mMna9Zu4f/8hFSqU48bNW1y4EISJiTFvI95yJzgYO1tblq1Yw5MnT6lYsTw3bt3m2vUbjBoxFP0cLmn1JW6u1dl34PAn116d3/9EN04VKFvGjrJl7DLcpk5/7J+Lp27mz5lNu049aNumVZ6OGVRnz549x8PTm+uX/fOkvT07NzN56kwaNnVn26a1lC5dKk/aVRdyuZwJk//H1avXOHfKm0KFlPc3JwiCIJULFy9hbFqYRk1b8/LVKzQ1NdHT00NLS72XklEoICkpkbi4eDQ1NbG1saZe3Vp079YFK0sLqdNTa0nJyWhqaqr881RkVBSBF4KIiYnhvF9A2udiuVyeto9MBvw7H56vbwAd2rWmtXtLIHUNQJ/TZ3n27DkVK5ZPGx9/5ux5GtSvy4jR43FydKRhg7r0HTCUkcMH41qjOgB9BwxLfZGogI2NNWGPH6sktqqIYk9Qe1ZWlri3as7/vvuRuT//IHU6aqH/oOHM/fmHPB0f+uv8n1MXW2/dkR7dOjNtykS1/0CgDEc9vPjfdz/SqUNbDu3fqdQvVwRBEPLaixf/sGDhYo55HcfBvgKdO7Zn+tQplCxZIl9+oZqYlERISCgent5823sAiYmJDB08AHlyAklJSVKnl6mYmBgUOShMYmJicjQ7enR0NPr6yr/j9bG/jh5DLlegb6CPjZUVbm6phVj6u8YyFP9We5FRUXgd9+HIUU8AtLW0iIyMpE7tmhw+4kHQpcuUKlWKmq4ZL3v2vtAD0NHWIujSFerVra308zI1MSEq6p3S46qSKPaEfGHOT7Oo06AZHse8cW/VXOp0JPXjz/OwtLSgbZtWed52i+ZNaNLYlx9/mkflqm5079aFkcMGY25ulue5qFJycjJ79x9i8R/LKVmyOIf278TG2kot73wLgiBkRWxsLJOmzsTXL3W81rw5P6JdAGZj1NHWxtHBHkcHeyZPGEv4s+f8unAxx0+eomunNlKn91n+/v6sWbMGPT29HBXZCoUiR8dFRESiqaH6L2p7ftM9bcze5yQnJ6cVulqamnTq0DZthvH356alpUXjRg24dPkqt+8Es3P3Xho1rJcujlyh4NLlq1SrWgWAFLlcZcuEaWppkpJBN2d1Joo9Id84uHcHDZu2omhRc2pUryp1OpJYu34Tp8+cw8f7L8ly0NLS4qcfZ/K/aZNYsnQZLdw7oKevR/OmjWnSuCEVK5ancKFCebYeY27JFQpiY2J49Ogx5/0COObpTUhoKI0aNmD7lnXY2dpInaIgCEKu7DtwiJnf/8TokcNYvvQ3qdNRqVIlS/D7onlEREbSsnVHfM74sXXjGizVqHvngwcP2LBhA4sWLaJw4cI5ipHTYTyxsbHUa9QyR20qQ+HChXj27DlBly5z+crVtMfLly/H5avXMDExIT4+nh279tKtS0d27d6He6vmNGvamKh370hJeV9oyUhMTOD0mXOULFGceyGhOFd24qiHF4YGBtSq6aqS/BMSEtHRVe+JFz8mij0h3yha1JytG9fSs+8g/lyykMaNGkidUp5a8ucK9uw9wEmvI2rR1UZfX4/hQwcxbcpEwp89x/v4Sdau30xISCiRUVEfvCGrN5lMhoGBAVaWFtR0q8FPP8ykcmUnqdMSBEFQinETpnIn+C7nT3tjZlZE6nTyTCFTUwLO+3D85ClatO7I/Lmzads673vEZGTXrl0MGzYsx4Vebujp6REfH6fSNiwtS392W5NGDfD0PkngxUvUrVOTly9fAzB+7Ej++HMlmzZvQ09Pj0YN6lGvbm1SUlI4ffY8R456UsjUlI4d2gKpE6V4eHpTy82VTh3acfyED+MnTcfcrAjdunZS2bm9evUKc7P81ZtJFHtCvmJnZ8Nxz8O079SDbl06MmVSwV+SITk5maHDx/L67RtOn/BQ6myuylKqZAn69elJvz49cxVH2RMOhYWFYW1trbR4giAI+UmX7r0pXbokXh4HpU5FMs2aNOKsjydtOnQlPPwZQwcPkDolXr16hZVV7md0zgkNDQ00NDRJTExU2dJgs3+Y+dltzZs1oXmzJmm/d2jXJi2vcWNGfLL/h7Pdf6hv72/TJm0BqOmW8Vg+Zbt7N4Ry5crkSVvKkr9X/xa+SqVLlSTQ14f7Dx5Sr2ELLl2+InVKKrP/wGGqVK+DvX0FDu7doZaFniAIgqB+Ro2djKOjPUt+WyB1KpIzNzfjrI8n23fuYf3GLVKnk+PxdspiZ2tDSOh9ydrPz877+VPLTTVdRFVFfHIU8iVNTU1WLV9C0KXLTJwyAy0tLcaNHkHLls3QyidjxT7n5ctXHDpylJWr12FpURpvj4OUKlVS6rQEQRCEfGLchKmUKWPHj9//T+pU1IaOjg5eRw9Qp0Ezypaxy3SBb1WJjY3lzZs3mEnYFbBpk0Yc8zyOo4O9ZDnkV75+gcyYPlnqNLJFFHtCvla9WlVOn/Dg2vWbLFm6nCnTv6NUyRK4udXAydGBUiVLoKurK3WaXxQbG0vY4ydcvXaDi0GXiI6Owb1lcw7t20lycpIo9ARBEIQs23/gMLeD7+L9FXfd/Bw9PT32796Ge7suHDuyF21t7c9+RoiMjOTNmzdKazsqKoonT56wfPlyevXqpbS4OdGhXWu+7T2QSRPGSJpHfvP6zRtSUlLEmD1BkIJzZSfWr1kOwMNHYVwMusTtO3c5c/Y8CQkJnz0uOTlZqV0jcxLPwEAfC4vSNG/WmP9Nm0TxYkX/z959BzRx/mEAfwIJYQ9FUUFBATe4AUXcKLj3Vtyjat1Va63aWq1aq7Zuf9q691bEUa0L90DcgoqKgCKyIYzk94c11TpYB5eE5/MXJHffe/ISlG/u7n3Vz4WFhQmWjYiIdFtSUjKmfv8Dzvx9ROwoGsvevgy+GT8ak6ZMg00xq89eTpmZmSnorNIqlQpFixbFqFGjUKmSuGfUSpe2gyJNgRcvIviBcg78uW4TunRuL3aMHGOzRzqnrIM9yjpkb1IOoScEEboeERFRdk2YNBWjRgzVujMPBc2vby+s37QVo0Z+hXp13T+5jdATfGna3wdDBw/A/F8XY+EvP4sdRWusW78Jp09q3wcpnKCFiIiISMu9fPkKf586g6+GDRY7ilZYMG82pnw3Q+wYounv1xtHj/2F2Ng4saNohXUbNsPdvQ4sLTWnYc8uNntEREREWm7eL4swYSzvwcqu6tVcIJVKcTP4tthRRKGnp4dxY0Zh7ITJYkfReGlpaZj3yyL8/NNMsaPkCps9IiIiIi3nH3AUffr0EDuGVhkz6iv8vnSF2DFEM7B/Xzx+Eobjf50UO4pGG/H1eAzs3xdFixYRO0qusNkjIiIi0mKXLl9B5UoVYSCT5Wi/kJBHOHDwMJYsW4VlK1bj0GFh7kc6euwvjBmf9zNGGzZtxey5CwRI9Gm+vs1xLvBCvtXXBhv/XI2vx36D16+Fm3lUl2zeugNPnz3HuDEjxY6Sa2z2iIiIiLTYnr0H0blTzmYJvHvvPv7csAnXbwTBxqY4ihQpgr9PncEPP83Ncx5LS0v07N4lz3UqlHdGsyaN8lznc6T6+ihtZ4uHDwvvAuN2drb4efZMtGrXBWlpaWLH0SiB5y/i57kLsHPbBrGj5Aln4yQiIiLSYucvXMSoEUNztM/fp85CKpWiZ4+ucHIsBwCoUrki/A8fRcDR4yhmbY1Tp8/i6bPnMDIyRD0Pd7Rp7YtV//sDSqUKMTExiHnzBnVq10J8fDzu33+I4sWL4ZsJYxAbG4vA8xfhVqcW9h/wx+Ur15CSmooypW3x9cjhAN5OeHHr1h1kKpWoWMEZQwb1BwDM+HEOihezxpOwp3CpWgXPnofDrU4tnDh5CqdOn0NsXBxsihdD0yaN4O5WGwcOHsalK1eRkpKK0na2GD1qeI7GoWGD+jh15hycnR1ztJ8uadu6JZ48CYO3T1sc8d8LQ0NDsSOJ7lzgBQweNgr++3fCzNRU7Dh5wjN7RERERFrs5atolCxZIkf73Lt3H64uVdSNHgC4VK2CSRPHwqd5M/x18m9IpVIsWvAzmns3xe69+3Hp8lVIIEFcXByaNmkEnxbeOHHyFKwsLeHXtxdeRETAP+AoACA2Lh4AsHP3Xnh7N8Evc2dBKpVi+cr/4e9TZ3D6zDl07tQePbt1xs2btxBw5BgA4PHjJzA0NEQr3xYf5N2ybSdq16qBxb/Oha1tKew/4P9v/aaN8cvcWTAwMMDS5atzNA7ubrVx7fqNHO2ji/z69ES/vr3h2dAbYU+fiR1HVJu3bMfwkWPhf2AXHLK5lJcmk+Zm0ebY2FhBQ2h6PaEXttb018vx06x6HL+84fjlja6M37vtsno9mjZ+6enpePHiBeRyOQDNf79o2vj9l6a/3tzUy8jIgL6+/mcXB//SfibGxp99PiTkEfr06g4AaNzQC/6HjyAyMgoSiQRSqRTubrVxM/g2lEolqlapjIoVy8PK0hJxcfEoWsRKXcfU1BRBQcHIyMj4YFkIIyMjREZGIVWhgLV1USQmJQEAlEolXF2qoHatmtiwaat6e319ffi0aAYAqFSxgnpSEVNTU9y4+bb+8KEDczQGAODgYI+Q0EeffK8Vtvdfk8ZeMDU1hm/rjpg0cSz8+vQUtL6mS0tLx8jR4xEa+ghbN66FBKocvQc09d8/aU4XjNT0RaiFrqfpi2pqej2OX95w/PKG45c3ujR+lpaWAPDF16OJ4yeTyVCqVCnY29tr/PtFE8fvfZr+enNbLyEhEUZGOb/srmjRIp+clOPipctwd6uDzMxMGBgYqB+XyWRv7+mSSNQfPkgASKVSVKxYXr3df5tOvz49EHzrDk6ePI3NW7ajfbvWkADYvfcAPOt5wMzUFKr3tpdI9FClcuWPcsmkUiiVb7fU19eHSvX26769e+DW7Ts4eeoMNm/ZgXZtW6FNa99sj4OFuTlSUlI+eq8V1vefvb09fHyaY/DQkVi/YTMWzJ+N6tVcBTuOplq3YTPmzl+IQQP8sGr5bzneX5P//eM9e0RERERaKlOZCX09/RzvV7VqFZw7dx7VqrmgSuVKAN7e+7d0+WooFGkwNzfH65h/m8G4uHhYWJgjLj4eGRkZ6seVSiXuP3iICuWdAQDy9xpEAIiMfIlBA/yQmZmJLVt34EZQMMzNzFCjuisG9OuDjIwMBF64+N4eKty5ew+1alb/oM67M38AkJycDNk/M49GRkZhYP++yFQqsXXbTtwIupmjZk9fqo/MjMxsb18YmJmaYuumP3Eu8AJGj5sEqVSK0SOHo6Vvc0ilutM6vH4dg7XrNmD9hi3wcK+DM38fQdEi2rm8wpfozk+MiIiIqJAxkMmQlp6e4/1qVHdF2NOnWPTbMlSsUB4qlQo3g2+huXdTNPDyxMuXr3DIPwCvXkXj9esYWFpYoFnTxvjjz43IzPy32cvMzIRSqVR//99mwD/gKJ4+ewYrKytcv3ET1au7wsjIEH/99TfWb9yChyGhsCleHGFhz3Di5CmoAPVZu/dVKO+M+QsWwd6+DIJv3UZ9z7oAgIAjxxD29BmKFLHCjRs34epaNUfjoFCkwUBukPWGhZBnPQ+c+uswgoNvY/GS5Zg8dTpKl7ZDQy9PuNWphbJlHaBUKlHM2lrsqFlSpCnw6tVr3Lt3H2cDLyDw/EVkZmagc8f2OHMyQH31hy5is0dERESkpQwNDZGampLj/ZydHDFx3GicPXcekVFR0NfTR+NGXqhVswYAoHOn9ihevBiiol6iWAVn+Po0BwCULm2L0qVt1XW6demobvDq1XVXP97K9+32vy+aD/+Ao0hJTkGb1r5o1NALwNvLJ9/ExqGVbwt4uNfBgYOHIZfLseGPVeoaJWyKo4RNcQDA5G/GIeDIcSQkJMDXpzka/1Nn8cJ56vqtWvqgcSOvHI1DdHQ0rIsWzdE+hY2LSxX8b+USAMDDkFCcORuI3XsPICzsKeLi45GZ+fGZUWWmEnr6ws0DqVKpcnxf6vvkBnIULWqF8uWd0aRRA4weNQxlHRwEy6fJ2OwRERERaSk9PT3o6ekjLS3tg3vssuvdGbJPaeDl+dFj3s2aqL92cakCF5cqn3zuHQMDA7Rv2/qLdQB88tLL/27zboKW7NTPrvv3HxbqZRdyytnJEc5OjhjQr88Xt9OGex4LCy69QERERKTFypV1wMOQwrsweF6cDTyPuu5uYscgyjds9oiIiIi0WLOmjXE44JjYMbTSucCLqFfPPesNibQUmz0iIiIiLda+bSvs239I7Bha53VMDDIzM3nPHuk0NntEREREWqx0aTso0hR48SJC7Cha5c91m9Clc3uxYxDlKzZ7RERERFpu6OABmP/rYrFjaJV16zdh2OCBYscgylecjZOIiIhIy/X36w2XGu6IjY2DpaVwsxbqqnUbNsPdvQ7HinQez+wRERERaTk9PT2MGzMKYydMFjuKxktLS8O8Xxbh559mih2FKN+x2SMiIiLSAQP798XjJ2E4/tdJsaNotBFfj8fA/n1RtGgRsaMQ5Ts2e0REREQ6YuOfq/H12G/w+nWM2FE00uatO/D02XOMGzNS7ChEBYLNHhEREZGOsLOzxc+zZ6JVuy5IS0sTO45GCTx/ET/PXYCd2zaIHYWowLDZIyIiItIhbVu3RId2reHt0xapqalix9EI5wIvYNDQkdi/ZxvMTE3FjkNUYNjsEREREemY7l07ol/f3vBs6I2wp8/EjiOqzVu2Y/jIsfA/sAsODvZixyEqUFx6gYiIiEgH9e/XG+XKOcC3dUdMmjgWfn16ih2pQKWlpWPk6PEIC3uKc6eP8YweFUo8s0dERESkoxo2qI+LgSdxOOAomjZvjRtBN8WOVCDWbdiM6rXroWKF8jjiv5eNHhVa0ri4uBzvlJt9WI/1WI/1WI/1xKr37r6lrLbXtNerVCqRmJiorqNp+VhPe+qtXLYYFy9dwddjJkJmYIDRI4ejpW9zSKW6c5HX69cxWLtuA9Zv2ILatWrAf/9OWFlZ5npctenny3qs9zlSCwuLHB84p/toc73Y2FiNzqfp9Th+ecPxyxuOX97o0vgZGhoCwBe318Tx09PTg6mpKSwsLDT+/aKJ4/c+TX+9BTF+zb2borl3UwQH38bCxb9jynczYGdni4ZennCrUwtlyzpAqVSimLW1YDnyiyJNgVevXuPevfs4G3gBgecvIjMzA507tseZkwGwtLTMU32+//KG45c3Qo6f7nycQ0RERERZcnGpgpY+zVDOwQ7duvfAmbOB2L33AMLCniIuPh6ZmZkf7aNSqSCRSATLkNd6cgM5iha1QvnyzmjSqAFGjxqGsg4OguUj0hVs9oiIiIgKGQcHB0RERMDZyRHOTo4Y0K/PF7fX9DMhQl9CR6QrOEELERERERGRDuKZPSL6LKVSiaiXL/H8+QvExLxBWlraB88npyTD2MhYsOPltZ5EIoGxsRFsbIrDzs5WsFxERERE2ojNHhF9IPTRY2zctBVHj53Am9hYFC9eDKXtbFG0aBEYGBiIHe+LVCoVkpKSERUVhWfPw5GYmARnJ0d07tQenTq0hbGxcI0pERERkaZjs0dEAIBdu/fhl19/g4HcAL17dMOu7RtRooSN2LHyRKlUIvjWbWzash1z5y9ENdeqmDHtWzg7O4odjYiIiCjfsdkjKuTOBV7A2AmTUaG8MzZtWINyZR3EjiQYPT09VHN1QTVXF8yb8yMOHDyM3n6DUKlSBfy+6BeYmXGRXSIqnNLS0nRqjT0i+jRO0EJUSKlUKowaPQGTp07HujUrseHP1TrV6H1Km9a+uBh4Eg28POFWrxH27T8kdiQiIlH4+/vDw8ND7BhElM/4kQ5RIRQXF4fW7brCwsIcZ04eETtOgRvQrw/atPZF1x5+uHz1GmbNnCZ2JCLRJSQk4Pnz51CpVLnaPykpCSYmJoLliYqKQlJSkmD1hM6n6fU+N35paWnYu3cvzMzMUKNGDcGOR0Saic0eUSHz8uUrePu2w7Sp36Bzx/ZixxFNMWtrnDx2CH4DhmLYV6OxYtlisSMRiWbJkiUICgqCo6Njrhe6zsjIEPSywNTUVBgaGgpWT+h8ml7vc+MnlUrh6+sLd3d3wY5FRJqLzR5RIZKUlISWbbtg7pwf4NO8mdhxNMK6tSsxeNgojB43CYt/nSt2HKICt2/fPiQmJmL16tV5qiP0ItlhYWGwt7cXrJ42LAquyeNHRNqJ9+wRFSK9/QZj4vjRbPT+Y/WK3xEW9hQrVq0ROwpRgTty5AiGDx8udgwiIsoHbPaIConvZ8xCtWqu6NWjq9hRNNK2zeuwbMX/8OBhiNhRiApUamoqTE05My0RkS5is0dUCNx/8BAH/Y/g1/mzxY6iseRyAyxfshADh4wQOwoRERGRINjsERUCX4+ZiF/nz871xAuFhWc9DzjYl8GWbTvFjkJERESUZ2z2iHTc1Ws3kJmpRKOGXmJH0Qrz5vyIufMXih2DiIiIKM/Y7BHpuDlzF2DqlAlix9AaJUuWQIXyzjhx8pTYUYiIiIjyhM0ekQ5LTU3FvfsP0LhRA7GjaJXRo4Zj6Yq8TUNPREREJDZJbGysSuwQmiw2NhaWlpZix9BaHL+8yev4HQ44hnOBF/D74l++uN3BQwEAgNatfHDk2F9IT0uHRCKBsbERihSxQjVXl1xnyA8bN29DVNRLDOjXB1ZWH49PVNRLrFi9Fh7uddDCu2mujlHJpTYCTx+Dnl7h/UxMG35/X7+OwdFjJ5CUnPzF7Y4eOQwAaN7CtyBiAcjLouD//rc8YdxoTJryHYoVKyZcsP+4eeMqXKrVzNY9vXoSPbjVqYWqVSvnW553tOH9p8k4fnnD8csbjl/eCDl+0pwu4Knpi4gKXS82Nlaj82l6PY5f3uR1/I79dTJbSy08Dw9HQkIiWrfywePHTxAT8wYymQzJycl4EREJB/syaN3KFy4F8AdedqWmpn7x+erV8tagVqxYHk+fhaOaa1X1Y5r+ftG0999/CZ1vxco1WLpiNbp37ZRl3TZt2wt23OySy+Xqr3M7N9KSZSsFSvN5bh6e2d42M1OJH36ai+LFi2HDnx+e/S5s7z9Nr8fxyxuOX95w/PJGyPGTClKFiDRS0M1bWPjLnBzvZ2hoiHFjRqq//3n+Quzasy/LZu/Y8ZO4e+8+TE1NMKBfHwBvJ4i5dv0GYmPjUMzaGv38egEA/rd2HSqUd8bN4NvQ09NDfc+6uHb9Bl6+egWXqlXg07wZ1vyxHkaGhkhKSkZcfDyqVKkE3xbeHx33f2vX4c2bWNjYFEff3j0AAK9eRaN0aTsAwNFjJ3Dn7j0olUo4OzuiTausz+408PLE2XPnP2j2SHO8io7G0hWrcSnwbxgZ5ebsGeXW1yOHYcjwr7F6zZ8YPLCf2HGIiOgLCu/1SUSFQFJSEszNzfNcp0mjBrh37/4Xt9mz9wCOHDuOShUrQKVSYfK30wEAW7bugEQiQZ3aNREbF4fZP7+9pPTW7Ts45H8E5cs7IT4+Hif/Pg1TU1M4liuH3Xv2AwBiYt4gIjIKJUraoHx5J3z3/Y9QqT688nzyt9ORnp6O2rVq4OXLV5i/YDEA4PaduwCAEydPYfvO3XB2dkTVKpUREHAMB/0DsnzNNapXQ9DN4JwNFBWYQ/5H0L1rJzZ6Ipk6eQK27dgtdgwiIsoCmz0iHZWSktv7hT5mYmwMufzLtc5fvIS6Hm7wbtYYA/v3ReNGb5d6iI2LQ9/ePdCooRc8POrgzt23TaMEEtSr5w7vpo1RtqwDoqOj0alDW1StXBGZmZn4ZyPo6emhcaMGcK9TG61atsDW7bs+OO6r6Gi4u9WGhYU5Gjfywo2gDxu023fuoZqrC1r5tkBz7yaoVbOGuhH8kjJ2tggPf5G9AaICl5iYBEtL4S6ZoZwxNTXN8lJqIiISHy/jJNJRqampgp31SFWkIj09/YvbKBRpMDYyVn/fonkzAB/etySTytRn5iQSCUxNTf/5GjAxMYH6m39IIIGZmSmgeru9kZEhUlNSITOQqbfR19fH9h171N+XtrP9IFdSUhKKF/93cgtjYyMkPf3yZB4AYGpmivj4eGzfvh12dm8vB01JSYGRkVGW+2aXpteLjo5GeHi4YPWEzPc6+hWs83HSEiIiIl3AZo9IR6lUqmzNrpcd5y9chpNjuS9uU7x4MSQkJqi/37x1B3p27wKFQqF+LD09HRK9fzJJJFC+O4MHIOO9r/X19f/ZRILExCT146kpqTA2Mf6g8Uw6OMleAAAgAElEQVRPT8fMGVMhk75tAG8EBX2Qy9zc/IMaiUnJMH3XWH6BBBKoADx+/Bhv3rxRH0smk315xxzQ9HpJSUmIiIgQrJ6Q+VJTsm7YiYiICjs2e0Q6Si6XIzVVkfWGn7Fl6w4kp6TgYUgo4uPi0bdPzy9uX93VBUePn4C5mRmeh7/A/QcP0bN7FxSztsaf6zfBybEcrt+4iWoubyc8kUiA9IwM9f7vN3DvL3eQlpaG02fOAQB27t6H29OnYuPmbepG1rZUSaz+3x+oVKkiQkJCEf4iAiOGDVbvX7VKJazfuAUHDh6GVCrF1WvX0a5tqyxff3JKCkxMTDBp0iT1Y5o+e5fQ9cLCwmBvby9YPSHzLVm2SpA6REREuozNHpGOMjY2QkpKSra2lclkKFLECsDbJlEulyNVoYC+nj7qurvB2dkJlStV+GKNVi1bQKlU4u69BzA1MUG3Lh0BAD/O/A7rN25B0M1glCpZAj26dwEAuFSpDKn033+CHMqUVn/t4VYbwNsze8WKWSMyKgrx8QlY+MvP6m1sbIoDAGb+0/wFBQXD2rooZn4/FS9fvlRv18DLE+kZGbhz5x4AFTq0a4Pm3k2yHJOIiEiUsLHJcjsiIiIiTcVmj0hHSSQSGBgYICUl63v3Bvbvq/66v1/vXB+zTeuPlzSQSqXqZRje1++943Tp1EH9dXlnJ5R3dlJ/r1Kq0M+v1wdn+3r37PZBLb//nHV8ERGB1FQFJHh79q9p44Zo2rhhjl7LzeBbqFK5Yo72ISIiItIkbPaIdFiF8s64fecuateqIUi9X379DYlJSZ98bsa0KYIc430SiQRKlTLH++3avR92drZwdnbM9bFPnzmH4cMG5Xp/IiIiIrGx2SPSYb4+3ti3/5Bgzd6EcV8LUie7xo4ekav9Zv0wLc/HvhEUjNo1a+a5DhEREZFYuM4ekQ5r27olDh0+InYMrXPv/gOUKGEDudxA7ChEREREucZmj0iHFSlihSJWlrh1+47YUbTK70tXYtAAP7FjEBEREeUJL+Mk0nHjx47CT3PmY8vGP8SOohWSU1Jw8u/T+H3RfLGjEGk0qb4+Lly4gJIlSwIAEhMTERsbK1h9Idd4BD6dT19fH7a2toKtSUpEpGnY7BHpOF+f5vh+5k948DDkg1ku6dN+nDUXA/r1+WD2TyL6tN27d8PQ8O1sv5mZmdDX1xesdlpaGgwMhLuU+lP5MjIyEB4ejsGDB6N+/fqCHYuISFOw2SMqBObO/gEjRo3DsYD9YkfRaE/CnuLQ4QAEXT0vdhQijZeRmYl58+apv4+Li4OFhYVg9cPCwmBvby9Yvc/li4+Px9ixY+Hk5IQSJUoIdjwiIk3Aj66JCoEmjRuiRAkbLFm2SuwoGs1vwFAsmD+Hl3QRFSLm5ubo0aMHDh48KHYUIiLBsdkjKiTWrFqK1Wv+xOUrV8WOopHGTpiC2rVqwLtpY7GjEFEBK1GiBN68eSN2DCIiwbHZIyokDAwM8Of/lqFv/6F49PiJ2HE0ysLFSxESEooF82aLHYWIiIhIMNK4uLgc75SbfViP9VhP/HrlypXFksW/oHW7Lti5dQMqV64oWG1tNX/BYvgHHMWubRuyNdaa/PMtTPUUilT1xCAFqd/AYVCpVB88JpFIMGXSeFQo7yzIMXbv2Q9IgI7t2wpSL7+oVKqPfp6a+n7Jql5ycjIyMjJyfDxtfb2sx3qsV3jqSXN6M7XQN2Brer3Y2FiNzqfp9Th+eZMf49e0SSNs2bgWnbv3wU8/fI8O7dsIVl+bqFQqDBsxBq9eReOvIweyNfumpr9ftOH9J1Q9ubzgG713hg0ZCFNT03ypfenyVTx7Ho7SpW1x6fJVuNWplS/HEYJEIvng56nN7z9jY2NIpdIcHY+/v7pdj+OXNxy/vBFy/DgbJ1EhVM3VBWf+PoKuPfxw+Mgx/LZwnihnScRy/UYQhgwfjVYtW2DlssVixyEt5FK18gff/33qDH5dtATz5vwICwtznD13Hus2bMbqFb/jx5/mIiU1FUWLFEHwrdvo2aMrmjdrgoFDRsDOzhbmZqZ4+iwclSqWRxErK0S9fInExEQkJibh+fNwBBw9jsqVKiI6+jWMTYzx7aTx+GPdRgTdvIVyZR3w9NkzlCvrgK+GDRZlLIiISHOx2SMqpIoWKYK/jhzAb0tWoEad+hg+dCC+Gj4EUgHXydI0l65cxZKlK/HwYShWLluMmjWqiR2JcknMCVNPnT6LU6fP/ptFT4JJE8Zi994DuHzlKhp4eeLW7buoWqUyjh0/iciol1j62wIolUocOnwEZ84EonmzJlAqVXCvUxstfZsj4Ohx+B8+it8WzkPwrduoVKkCOrZvi6/HTET7tq3R0rc5lEolBg8dhTNnAxES8ggNvOqhY/u2uHT5Kl6+eiXegBARkcZis0dUyH09chgG9O+DH2fNhUt1dzRr2giDBvRDNdeqYkcTRGpqKgKOHMfK/61FdPRrfDN+DLp07iB2LNJi1au5fvpxVxfcunP3bbN36za6dOmI8OfhMDY2wsTJ36m3S0xIBPC2YS1WzBoAYCCTQZGa+lHN+IQEFCtWVP29VRFLvImNRZ3aNXHQPwCXLl+FfZkyqF2rupAvkYiIdASbPSKCqYkJ5s75AT/9+D127d6Hb6fNxKNHj2FrWwquVavA2dkJxYsXg4FMJnbUL1JBhaSkZDwPD8edO/dw+85dpKSkwsuzLn76YTrP5AkkNjYWFy5cQEpKSo72UygUkMvlgmQIf/4MtnalBamVUxYW5qjr4fbR45UqVcC6DZtw4eJlyGQyNPTyxLYduyCTydCuTatP1np/TUd96cf/Jevp6SEzMxPA20XMMzMzoa+njzatfNG+XWucPnMOQTeDsXnLDtSprbn39xERkTjY7BGRmlQqRbeundCtayeoVCo8ffoMwbfvICTkEa5fv4G09PQPtk9PT4dMwAYwr/UkkMDYxBilSpbAwP59YWFuBhcX3ThDqSkCAgKwfft2NGnSBCYmJmLHEc2Vq9c/esytTi0cOOiPW7fvoHr1t2f/7MuUQcCR41Aqlajr4YbtO/fg2bPncHerDQDIyMhQ7//+hykqpQo3goJhX6YM7j8IgYe7G65evYbo6NcoVqwopnw3A61b+qCBlyf09fURdPNWPr9iIiLSRmz2iOiTJBIJ7O3LwN6+zGe30fTZrMLCwgSrRW/P6G3fvh3Lly/P1Rk6IX++LyLFuUfN0sIC27bv+ujxrl07Ql9fH9WqueLKlWv46cfvAQAe7nXw9NlzbNu+C5u3bIeVlSVatfQBAJibmX20jAMAVKxYAf4BR1GzRnX4tGiGg4cCMHL0BMhkMnRo3wZudWojMvIldu3Zh3UbNsPQUI6Wvs3z94UTEZFWYrNHRETZcuHCBTRp0kSwSzG10aJf537x+W5dOqJbl44fPNa1cwd0/cR9ou/XatK4IZo0bggA6NWjK3r16Kp+7t1ZwPe1bdMSbdu0zFF2IiIqfLJeWIqIiAhASkqKRl26+YmTYkRERPQeNntEREREREQ6iM0eERERERGRDmKzR0REREREpIPY7BEREREREekgNntEREREREQ6iM0eERERERGRDuI6e0RERJRjUn19fPPNNzA0NAQAZGZmQl9fX7D6aWlpMDAwyF02qRR169aFt7e3YHmIiLQRmz0iIiLKlY4dO6JkyZIAgMTERJiamgpWOyIiQl07p9LT07Fv3z6cOnUKs2bNEiwTEZG2YbNHREREOZaRmQkPDw/193FxcbCwsBD0GPb29rned/z48fj5559x5swZeHl5CZiKiEh78J49IiIi0km+vr64dOmS2DGIiEQjefLkiUrsEEREpPlOnjwJAGjcuLHISYCNm7fDwsICI78aInaUQun16xi0ad8VWzauETvKF4WGhuLs2bPw8/MTZDsiIm0jzeklEkJfpqHp9cLCwvJ0Gcl/afrr5fhpVj2OX95w/PLmv+P3rnZux1TIfJaWFlDxo0pR6enrffBe0MTf34SEBBgZGcHe3v6L+d7fLru07fc3rzT99XL8NKsexy9vhBw/XsZJRERERESkgzhBCxERaY2EhAQkJCQgJSUFhoZGYschIiLSaGz2iIhI46Wnp2PGjBmIiYmBpaUlINGDrZ1wlwgRERHpIjZ7RESk8WbOnIm6deuidevWAICly1fxnj0iIqIs8J49IiLSaElJSXj16pW60SMiIqLsYbNHREQaLTExUfDFuomIiAoDNntERKR1TExMEBcXJ3aMQisxMRGGhoZixyAioiyw2SMiIq3TqmULbN2+CykpqWJHKZR++vkXdOvSUewYRESUBU7QQkREWqeYtTVGDBsMt3qN0L1rJ17mmQ8kEnw0CY5SqcQh/wAUL14Mgwf2EyMWFZColy/xMOQRnj19hti4OCQnp8DQUC5Y/dRUBQwN5YJNtJSRkQ4bGxuUtrOFk5MjStgUF6YwkZZjs0dERFqpR/fO6NSpHQ75H0FiYlKe6ykUqZDLhbs0MS4uFhYWloLVEzpf2JNHKFasOIxNTLO9j1Sqj7lzfkT1ai6C5SDNoFAosHP3PmzZtgOhoY9hbV0Uzk6OsLcvAytLS8jleW/MJJJ/v37XOL7/WN5q6+HBwxAc/+skHjwMQXT0azg5lkOPbp3RqWM7yOXCNapE2oTNHhERaa1i1tbo17eXILXi4uIEPUMYFhYGe3vh1gIUOt93332Hbl07CZqRtE9U1EtM/2E2Tp85B58W3pj943S4VK0CiVBdmEhUKhWCb93Bug2bMWvOfDTw8sTM77+FDc/4USHDe/aIiIiIChmlUonJ306Ht29beNbzwO2gS/h1/my4ulTV+kYPACQSCVxdqmDBvJ9wO+gSPOt5wNu3HSZN+R5KpVLseEQFhs0eERERUSESdPMWarp5wcTEGDeuBKJPr+460eB9jkQiQZ9e3RF0NRDGJsao5e6F4ODbYsciKhBs9oiIiIgKiS3bdqK33yCsW7sC06ZOgp5e4flTUCKRYPp3k/HnmhXo1XcgtmzdIXYkonzHe/aIiIiICoEVK9dg45ZtCDx9HGZm2Z+YR9dUc3XBsYD96NytD+Li4zFsyECxIxHlGzZ7RERERDpuy9Yd2LRlO04eOwSZTCZ2HNHZ2BTHiWMH0di7FSwsLNCjW2exIxHlCzZ7RERERDosOPg25sxdgGMB+9novUcmk+Hwgd2o16AZKleqiGquVcWORCS4wnOhNhEREVEho1Qq0XfAEGxYt5rLDnyCmZkpNq5bDb8BQzlLJ+kkaVxcXI53ys0+rMd6rMd6rKfd9RQKRZ6PkZt9ExISoFQqP7mvNo2fJtZLTEwUtKamvd7k5GRkZGSo63yu3n+3K6h8BVFvxo9z0L5dG1RzdRG0ti6p5uqCTh3aYsKkqZj+3WT149rw82U91suKNKcLtAq9qKum14uNjdXofJpej+OXNxy/DykUCqSmKqBSqbJVLz4hARYWlkLFQ3x8PMzNzbPcTk9PD3K5AeRy+Re30/Sfx3/ff+9eT26Pkdt8qamp0NPT+2hfbRu/vBI6HwCYmpoKVlMTx8/Y2BhSqRQWFhZfzPf+dtmlDe+/1FQF/jpxCkFXAwWrq6umTpmI6rXrYdKEsbCxKa7xv7+aXo/jlzdCjh/v2SMijZScnIzDR47j4KHDuHXrDhKTkiCXy2Eol0Oip9nrQSmVSigUaVAoFDAxMYGrSxW0buULn+bNYGxsJHY8Iiokpv8wG9+MH63Ta+gJRU9PDxPHj8H0H2ZjxdJFYschEgybPSLSKOcvXMLc+QsR+ugxmjRuCL++vVCzejWYm5uJHS1X4uMTcO36DezZdxDTZ/6EcmUdMGniWNSr6y52NCLSYWlpaTh95hyWL1kodhSt0btnN8yZu0B9yTqRLmCzR0Qa4UZQMEaP/QYmJsbo2KEtBg3wEzuSIMzNzdCooRcaNfQCAJwLvIBZs+chJSUFs36YBs96dUVOSES66MjRv+Dr05xn9XJAIpHAp4U3du7eh/r1+IEc6QY2e0QkKpVKhXETpuD8xUv4beE8uNWpLXakfOVZzwP+B3bh4qUrGD32G9St64Zf58/hH2REJKiD/kcw7+dZea5zOOAY4uLioFKpYGhoCOti1vDyzP8PqSZMmopOHdqhrodbvh/rff369sS302ay2SOdwaUXiEg00dGvUb9hc5iZmeLC2RM63+i9z92tNi6cOwFzMzN4NvTGq+hosSMRkQ4Je/oMLlUrC1Lr/MXLiIuPx7Pn4Th46DBGjZmIY8dPCFL7c1r6tMjX+p/jUrUKQkMfi3JsovzAM3tEJIrQ0Mdo27Eb5s7+Aa1b+YgdRzQzp09FnTq10KhpSxzYsx3lyjmIHYmItFxkVBSsrYsKesXAsCED1V9v274LW7fvgq1tKZw5EwhFWhq+HjkMALBw8VJUrVIZ3s0aY+HipZBK9QFIMGrEUKxcvRbhLyJgbGSEuh5uqFWrBkxNTHDQPwDBwbchl8vhVb8u6tSuhaCbN+Hh/vas3pZtO/HgwUNI9PTgUrUKWvp4Qy6XY+HipShatAhCQx+hSJEiGD1qeJ5fp0QigbV1UUS/joG9vX2e6xGJjWf2iKjAhb+IQJsOXbF29bJC3ei907qlD9asWorW7bsgPPyF2HGICh1DQ0MkJyeLHUMwISGPUN7ZKd/qd+vaCTKZDI8fP4G+VP+D554+ew7g7fI40dHRsLKyQpnSdli2YjXi4uLRuqUPypd3wtbtuwAAe/cdxKlTZ9HAyxP29mWw9s+NAIDgW3cAADt27sHlK9fg3awJGnp5wv/wEZw5dx4A8Dw8HIaGhvD1aY7wFy+wfeceQV6fs5MjwsKeClKLSGw8s0dEBSo9PR1t23fFkt8WwN2t8Fy2mRUP9zpY+tsCtOnQDRfPnYBMJhM7ElGh4ejoiMePHyMqKgo2NjZix8mzZ8/DUaZM6Xw9hqmpKRSKNKSnZ3zwuEwqVa+FGvMmFr17dlM/d+ZsIOLi4mBkaIjU1FTIpDJcvXYDNaq7wrOeBwCgmHXRD+rduXsPtWpWV89gfP1GEB4+DEWzJo2QmqpA184dAAAXL13Bq1evBHlt9vZlEBERKUgtIrGx2SOiAtW3/xD08+uNJo0aiB1F4zRu1AAD+vVB3/5DsWXjWrHjEBUaEokE48aNwzfffIP69evD2to6y30UCgUMDQ3VjU1eKRQKyOVyQWpduHAB5co5ClLrc+Lj42FhaYHwFxEfPiEB3g2JiYmJ+uEly1YiNPQxypd3hoGBTL1NZmYm5IaG6u0aeHl+UC4lJRVGRv+uT2ooN0RySgoAfLRuqVA/CytLS8QnJAhSi0hsvIyTiArMnr0HkJSUjFEjhoodRWON/GoIEhMTsWfvAbGjEBUqrq6uWLVqFRwd87dJKggqlSpfZ/jdtHkb9PX10bRxQ8hkMiiVSvVzCfEJUP1zGadK9e/jQTdvoWOHthg+dOA/l5iqYGAgQ4kSNoiNjVVvt2LVhx90WVlZIi4uTv19fEICzM3NAbxtFN8nkxkI8vrye/yIChLP7BFRgVCqVJg2YxaOH9kvdhSNt3rF72jm0xbt2raCnh4/kyMqKHK5HE2aNMnWtnFxcbCwsBDs2ELWS1Vk4EFIqCC13lm5ei3S09Px7Fk43sTGokun9gCA0qVtceDgYezcvQ/h4S9gaWmpPrWXmfFvM1a0aBHcDL6NiIhIXLx8FSqVCvsP+KN6NRes27AZpqYmeP06Bo8fh31w3Jo1q2Pb9l0wNTFBekYG7j94qF6HNeM/l5BK/3P/YG7FxsXBuqiVILWIxMZmj4gKxPIVq+HTohlK6MD9MPmtRAkb+DRvhmUr/oeRXw0ROw4RaZnSZUrj2F8nBavXoH499deO5crBwaEMKlWsAABo5dsCilQFYt68QdUqlWBnWwrvLqb0ql9Pfdavc8f2uHPnLlIVCvTs3gWvXkXjTewbtGvbCgAQEvoIFhYW6N6ts7ouAHg3bQy5gQFCQh9BKpViyKD+6vu9Gzaor85lZ1tKsNf79OkzuFSpJFg9IjGx2SOiArFy9R84feKw2DG0xtQpE9GwiQ+bPSLKMWencngo0Jk9Xx/vLLfp2KHtJx/v1LGd+uvatWqgdq0an9yugZfnR/fqvb/vp57/7zbvf51XDx6G4KuhA7PekEgL8PogIsp3gecvwsmx3NvLeyhbrKws4ezshPMXLokdhYi0jE3x4oiOfi3YhCWFiUqlQnT0a1j/Z1ZQIm3FZo+I8t0f6zZi4IC+YsfItg2btoodAQAwsH9f/LFuo9gxiEgLlSljh+Bbt8WOoXWCb92Bk2M5sWMQCYaXcRJRvrt46Qp+XzQ/X4+xbMVq3AgK/ujxVct/y3GtwPMX0adXdyFi5Unjxg0weep0sWMQkRZq3dIHf67fjF/nzxY7ilZZt2Ezevxz3yCRLmCzR0T5KjExETKpFIbvraOUX6pUrojRo7765HPH/jqJuLh4WBctgkYNvQAAaenpuHLlGl5FR6NokSKo71lXvf3VazfwJCwMlpaWaNq4ofpx/4CjSElOQbFi1p+8h0RIRoaGkMmkSExMhKmpab4eKzs4FTmR9vBp3hTtOvXEgnk/8Xc3m1QqFQ4HHMXsH79HZCQXVSfdwMs4iShfhYQ+hqNjWVEzLFj4O07+fRrx8fHYf9Afa/5YDwDYtXsfdu/dj1evorF9x25s3b4LACCVSuEfcBRvYmKxc9deHPQPQEZGBqZ8NwO379xFfEICNmzcgn0HDuV7difHcggJfZzvx8mO99fSIiLNZmBggAZenti4eZvYUbTGxs3b0MDLU7DF7Yk0gfT9hSqzKzf7sB7rsV7hrHf7zl04liu4+x/+24C1a9MKQTdvYcWyRTA2MsLFS1ewYtUaDOzfF0eOHsegAX6o71kXh/wD8CLi7Se5KpUSHdu3QZXKlaBao0JIyCNcK3YDtWvWgL19GdSuVQNKpRKhoY/y/fWULeuAO3fvoqxDmWxtn58/38DAQPTu3TtPx8jNvgkJCVAqlZ/cV9t/P8Sul5iYKGhNTXu9ycnJyMjIUNfRtHz5XW/82JHo1LU3evXoyjU7s6BSqTB/wWLs2r6x0L5fWE8360lzuoCnJi8imh/1YmNjNTqfptfj+OWNLoxfUlISnoQ9FeyYX6JQpOH+/YcfPtgGMDIyxLgJUwC8/bT73Qx1V65eVy9t0Kqlj3oXPYkeqlT+d40lhUIBtzq1cfHSVZw9dx6bt26HRCJBqZIl8/kVAcWLWePNm1jo62e9WHB8fDzMzc0FO3ZycjKKFi2KlJQUbNq0CZaWlqhevXqu6+X2/Zeamgo9Pb2P9uXvb96ZmpoKVlMTx8/Y2BhSqRQWFhYa/37Jj/FzdnJCS58W+GnOfEybOkmw2rroh5/mwreFN5ydHAFo/u+vptfj+OWNkOPHe/aIKF+lp2fAs55HgRxLLjf45D17mZmZWPb7r+r7VpTKt81ezRrVkJn59tLEv0+dhaGhHB7udfDfycqlUikOBxzDvfsPsPCXOQDezjCamJiUfy/mHzKZAfbs2Ys7t4Ky3FalUgl6b45SqYSenh4MDAzQqFEjtGsn3DpWRFQwZs+ajppuXmjbpiWqubqIHUcjBd0Mxt59B3D14hmxoxAJjs0eEeUrE2NjRL18KWoGudwABw4eRru2rRBw5DjOBp7Hzz/NRMUK5XHn7j3IZFKEhj5CRGQkPNzrICMj44P9DQwMgH96qFu37yA+PgExMW8glUpx5er1zy4ULISkpCT07t0L/fr2ynJboT9ZDAsLg729vWD1iKjg6enpYd3alejtNwiBp4/DzEz8yZ40SVTUS/TxG4xN69fwUlfSSXxXE1G+KlHSBi9eRIiaoUe3Lrh95y7GTpiCa9dvqC/ZnDh+NCIiIvHHuk2IevkSLZo3BQAU+89iukqlEr4tvOHkVA5/rNuEC5cuw6t+Pbx5E4tbt+/ka/YXEREoVbJEvh6DiHRbNdeq+HbyBPi26Yi09HSx42iMtPR0dO7WB1MmjYeLSxWx4xDlC57ZI6J85exYDotDQvL9OF8NG/zZ5+p71v1gWYV3ZDIZvp084aPHf5jxnfrrwQP7qb8e+/WIj+rmt4chj+DIBX6JKI96dOuMuLg4NPVujZ3bNsDGprjYkUSVkJAI3zYd0btnN/To3kXsOET5hmf2iChf2duXwdOnz8WOobWePAmDfZnSYscgIh0wbMhAfDVsELx92iLoZrDYcUQTdDMY9Ro0w4jhQzBsyECx4xDlKzZ7RJSv3s6EZ57vlzvqosioKFhZWkIq5UUYRCSMHt27YNP6Neg3cBhmzvpZPTtxYaBUKvHjT3PhN2AYNq77H3p06yx2JKJ8x2aPiPJdS5/mOHX6nNgxtM6u3fvQqmULsWMQkY5xcamCqxfPIDkpGdVq1cOGTVt1uulTqVTYsGkrqtf2RFJSMq5dOoNqrlXFjkVUINjsEVG+8+vbCxs2bRE7htbZsGkb/Pr2FDsGEekgPT09zJ3zA44d3odzgRdQpZobxn8zFTeDb+tE46dSqXAz+BbGTfwWVaq54VzgBRw7vA8/z57JWTepUOG1QUSU70rb2cLU1BTXb9xEjequYsfRCteuB8HExBh2trZiRyEiHWZjUxwrli6CQqHArt37MHXaTISEPoK1dVGUd3ZCmTKlYWlhAX19fbGjfpFSqcSb2FiEhT3Fw5BQREe/hqNjWfTo1gVzZk2HXC4XOyKRKNjsEVGB+P67yZj6/Uz4798ldhStMPX7H/D91ElixyCiQkIul6Nnj67o2aMrACAy6iVCQkLx7Hk44uLikJSUBLncULDjKRSpgtbLzMxAeSdHNG3SCM5O5WBTvHDPNkr0Dps9IioQDerXw+w583H02Ak0924idhyNdvT4CaiUSjRsUF/sKERUSJWwKY4S7y3PEBcXBwsLC8Hqa3o9InXfq54AACAASURBVF3BZo+ICsyKZYvRul0XXL14BnK5gdhxNFJaWhrGT5yCg/t2ih2FiIiItBzvUCWiAuNgXwbDhw5Cb79BYkfRWL39BmPYkEFcW4+IiIjyjM0eERWoEcMHw9zcDJOnThc7isaZ/O10mJmZYsTwwWJHISIiIh3AZo+ICtyaVUtx7/4DfD9jlthRNMa0GbNw/+FDrFm1VOwoREREpCPY7BGRKPbu3IKQ0EcYOGSETqzplFtKpRKDho5ESMgj7NmxWew4REREpEPY7BGRaDZvWIsype1Qt35T3L13X+w4Be7uvfuo59UMpe1ssWXjWrHjEBERkY7hbJxEJKrp06aguXdT9Oo7EF71PTF54hiULFlS7Fj5Kj4+AdOm/4gzZwOxbMlCeLjXETsSERER6SBpXFxcjnfKzT6sx3qsx3qfU7lSBZw8dgj/W7sezXzaoV5dd4weNRxVq1QWIKHmuHXrDhYvWY7A8xfR3683Th4/BEDYn4lYP9+EhAQ8ehyGp8+eIybmDdLT0wXLkJychGs3bmHBwt//eSTvl/1KJHowMTFGyRI2KOvgAFvbktDX19fI34/8rJeYmKgT77/PSU5ORkZGhrqOpuVjPdZjPdbL73rSnC5AqemLYApdLzY2VqPzaXo9jl/eFLbxGzSgL8aNGYndew9g/DdT8fx5OKpXc0HDBvVRvZorSpUsAWNjY+jpafYV6CqVEklJyQh/EYGgm8E4feYcbty4CTs7WwwZPACrlv8GiUSi8T+PrN5/f586gz/Xb8aVq9dgZGQIJ0dHlC1rj2LWRSGXywXJIJEAhoZydOjQXpB67yiVSsTEvEFw8G08DAnFs+fhKGJlhfbtWqNP7+6wKV486yJZ0PTfXwAwNTUVrKYm/vtnbGwMqVQKCwsLjf99E6qeQqFAaqoC8QkJsLCwFCDZW/Hx8TA3NxesXmJiIooVsxbs3wpNfP+9T1PfL/lVj+OXN0KOHy/jJCKNIpFI0KlDW3Tq0BZpaem4eu06zpwNxO9LVyIyMhLJKSlQKpXZqqXMVEJPX7jGUKVSQSKRZLmdRCKBibExSpYsAZeqVTBi+BDUqlkdBgbav5B8RkYGfl20BOs2bIarS1UM7N8Xq5Yv1onX9jz8Bbbv2I1WbbugeDFrzPj+W7jVqSV2LKLPSk5OxuEjx3Hw0GHcunUHiUlJkMvlMJTLIdHL+t8qMSmVSigUaVAoFDAxMYGrSxW0buULn+bNYGxsJHY8Ip3BZo+INJaBgQx1PdxQ18MtV/uHhYXB3t5esDz5cWZFm2zYtBVz5i5A547tcPHcSZiamogdSVB2tqUwbsxIjBszEoHnL2Lyt9NhYWGOFcsWCXKmj0go5y9cwtz5CxH66DGaNG4Iv769ULN6NZibm4kdLVfi4xNw7foN7Nl3ENNn/oRyZR0waeJY1KvrLnY0Iq3HZo+IiL4oKSkZPfsMgKGhIc6dOgYrK+EuDdNU9eq648Sxg9iz9wAaN2uFKZPGo0+v7mLHokLuRlAwxoyfBGMjI3Ts0BaDBviJHUkQ5uZmaNTQC40aegEAzgVewI+z5yE1JQULF8xF9WouIick0l5s9oiI6LMePAhBp269MXH8aPTt3UPsOAWuQ/s2qFfXHQMGf4Wr165j0YK5YkeiQkilUmHchCk4f/ESfls4D251aosdKV951vPA4QO7cPHSFQz7ajTq1nXHr/NnZ+syeiL6kGbPckBERKK5d/8B2nXqjj/+t7xQNnrv2NgUx6H9O6FQpMFvwFCx41AhEx39GvUbNoeZmSkunD2h843e+9zdauPCuRMwNzOFZ0NvvIqOFjsSkdZhs0dERB95/CQMY8ZPwa7tG1G7Vg2x42iE5UsWwtzcHMNGjBE7ChUSoaGP0bCpL6ZMGo8fZnwndhzRzJw+Fd9OnoBGTVvi0aMnYsch0ips9oiI6APp6Rno2KUXVq/8HZUrVRQ7jkb5fdF8vH4dg9+WrBA7Cum48BcRaNOhK9auXobWrXzEjiO61i19sGbVUrRu3wXh4S/EjkOkNdjsERHRBwYPG4l+fXuhfr26YkfRSJs3rMGaP9bj3r0HYkchHZWeno627btiyW8L4O5WeC7bzIqHex0s/W0B2nTohvT0dLHjEGkFNntERKR28u/TePY8HKNHDRc7isaSyWRYsXQRBg0bKXYU0lF9+w9BP7/eaNKogdhRNE7jRg0woF8f9O3P+2eJsoPNHhERqX0zZRqWL1kodgyNV9fDDQ729tiybafYUUjH7Nl7AElJyRg1gs3M54z8aggSExOxZ+8BsaMQaTw2e0REBAA4cOgwnJ0cUd7ZSewoWmHenB8w75dFYscgHaJUqTBtxiysWvGb2FE03uoVv2PajFlQKpViRyHSaGz2iIgIALBg4e+YNnWS2DG0RqlSJVGurANOnzkndhTSEctXrIZPi2YoYWMjdhSNV6KEDXyaN8OyFf8TOwqRRmOzR0REePnqFZKTk1GpYgWxo2iVr0cOw7KV/GOThLFy9R/4bspEsWNojalTJmLV6rVixyDSaGz2iIgIe/YeQNs2rb64za7d+7Bj1x7s2LkH+w/448LFy3k65qRvv8eBg4c/+/w3U6bh4KGAPB0jvzXw8kRQUDBUKpXYUUjLXbp8FU6O5WBpaSl2FK1hZWUJZ2cnnL9wSewoRBqLzR4REcH/8FG0a9Myy20iI1/i5atXCAl9hA2btuK3JctzdJw1a9erG7wW3s1gYmLy2W19mnvD2Ng4R/Wzsn7jFuzes1+wehKJBGUd7PHwYahgNalw2rx1BwYO6Jvvx9mwaSs2bNqqtfX/a2D/Pvhz3cYCOx6RtpGKHYCIiMQX+ugxKlbI+hLOGtVdUd/z7fp7Fy9dxi+//o6vRw7Htes3cPHiFURERcHUxASe9TzgWc8DK1evhUQiQUzMG8TEvIGxsRHiExKwZdtOREZGwsnREUqlEqdOn8XlK9egUqng7lYbNWtWR9DNm3B2ejtZzMLFS2BmaoYnT5+itJ0tOndqD1MTE5z4+zSuXw+CQpEGB4cy6O/X+5/tl6JK5Yq4dPkqVAAaN/TCi4gIPHv2HMbGxli/cQv69u6BVf/7E8+fh8PMzBSe9Tzg4lIFDx48xIWLl/H6dQysrKzg7lYbbnVqfXZM6tV1x/mLl1C+PCe2ody7cvX6Z2fC7dN/CIwMDZGRkaF+zMTEBL8vmp/j4yiVSrx5E5vrnFlSqfA65k2udj3592k8eBiKoYP7Z3ufxo0bYvLUGbk6HlFhwGaPiKiQS8/IgEQigUyW0/8SJADeXr54+kwgVFChdUsfPHkShm07dsOzngckEgkyMjJRsUJ53Lv/ALGxcahVsxwsLMxxI+gmnBwdcfrMOWzbsRvdu3WGIjUV69ZvhqmpCSIio9TNXnh4BOrXd8CggX74ZvI0HPI/gm5dOmLrtp3o3bM7zM3NsGv3PmzfuQddO3dA8K3byMzMRLOmjXHr9h0cO34CTZs0QvCtO6hUsQKsrYti4eKlSEtLQ6uWLfDs2XOs37gZ8+f+BP/DR1G6tB1q16qJJ2Fh2LFrzxebverVXXHi5OncDT4RgMTERBjIZDA0NPzk85kZGRj51RC4ulTN87HsbEvBzrZUltsd/+skYuPiYWlhjmZNGwMA/jrxNwAgIzMT6enpqFDeGS9fvkJkVBRsS5WCh3sdlCpVEqVKlVTXOXrsBBISEmBtXRQNG9R/W/vE3zA2MkJsbBxSFQp0bN8GAPDsefg/xzmFhg08cfnKNURERkImlaFNa99P5jQyNIRMJkViUhIsLCxyPS5EuorNHhFRIZcQnwBzc7NsbXv7zl3cu/8AqakK3L//AF71PQEAY77+CqfPnENsbBzMzEyRkJCg3icmJgZfDRsEAJj87XQAb+91O3T4CADgZvAtVKpYHo3++UNQbmiIzMwPp1PPyMxA+7atAQA1arji3r0H0NfXx6gRw5CUlIQ3b96gdGlbvHnz7xkFD/c68HCvg+TkZFy5eh0NvDxx7K+T6uOv37gFfn16Ii0tDTY2xWFuZo5Ll67AwMAAEZGRcHIsh25dOqFbl05fHJMype3w/J8/UkmzSCQSrZiaPyT0MRwdy372+S/dE7rot2V4+fIVKlRwxu3bd3Hz1m0EHNyNufMXonRpO/Ts3gUA0Lf/UKz/YyWeh79AZGQUmjZpBJ/WHVG1ciVUrFgB9+4/QGm7Uhg96iv8tmQ5XkW/hmO5srhy5RoehoRi+NBBCDx/ERYW5jAwMEBkZBTu3r2PzMxMmJub45D/EXi418GLFxF4/iICTZs0ws/zfkVycjIcHOxx+sw5hIU9Rd8+PbFv/yGUKlkCRYpY4fXrGEyfeRMzp0/Fmzex0NfXw91796BQpGLvvoNwd6uDxKQkfD12Ivr17YWaNap/NAZOjuXw5EkYbEtl3cQSFTbSsLCwHO8UGyvs6X9Nr5ebMfoSTX+9HD/NqsfxyxuOX9Yio6KyfW+cpaUllMpMFLGyQs0a1VCvrjuAt5dNhr94ASfHcpDJZOrtJRIJTE1Nv1gzM1MJI6N/z2i8a/p27dmnfkwm/bemXG4Ixf/bu/O4qMo9DODPwDAO24AiKLsobuWCqLmjuBIuuaaEay7hmuYtM0vLzGuZ5VZmZqkoaJm5V2ruiiKKW1dUFFDQtHtlBlBhBpj7BzY6wSg4k+8ZeL5/OTPnvOfh9zlT8zvvWfK0OHnqNL75djXq1AlEZVdX/P33sL1hlkRW4o/l/Px8o8cmuLiocD83F106hyIhIRHbd/6CFStXoUP7dobTQ0uicnZGZmZmifualPe//Px83Lx502LjAdL7/tra2uLixYuGcaTwfSvJiYSTqFWzpsnPFQoFYjdsROyGjYb3fH18MC5qFA4cPIwF8+eiZkANAEBYj74AgIKCAqMxbG1tSxz7xbAuqFu3Dtq1aYWPPy06jdTP1xfP1a+Pzp06YPeevdixs+jAjEwmg0KhQNSYkdjz2z5s3roDkyZEQSaT4ey588XGvpB0CatWFl3XG3csHqvWrMPQIa9AJgMCAmpg0Mv9cCLhpNHjE+zsFHht9Ai8N2sOOoa2x6CB/QEA0999H6mp10ps9gICauBC0sVSzViWhZS/v9YwHutnHkvVT+7v71+mFTQajUWnyaU+XlpaGspao8eR+t/L+klrPNbPPKxf6djYyiEr5bLeXp6Ga/Yede787xgzagRatmiOvfsO4NDhowAAmYlG61HVq1fDtWvXDa+XLV9Z7EdbQWEB7t/PBQDcvXsXzs5OuHLlKry8PPHmG68DAD6YMw/Vq3k8ss7DGZ1HG9C/KJVKtHihmeEUtcNH4tAkqDEST5/BmAfXDO07cAhr161/bLOnfzD+3/c1qe9/crkcnp6eFsso1e9vu3btsGLFCgwePBg+Pj4WSFYkKysLKpXKImPl5eUhNe3aY5fp2b3k0xjv5+bC1qb4/fa0Op3Ra1vbku/J16ljBwBAWto13Lj5BwAgOycHBw4exs5ffi36Dj84XRsyGdyqVAEA2NjYwN5eiTq1A5GcfBU2JWRwcLDH2AlTABQ1rA+vOZTBw73qg3FsizWmQNEZAW5V3QyvXV1ckGnix7SHe1Xcv59r0e+b1L+/Uh+P9TOPJevH0ziJiCo4Bwd73L13z6wxKld2xdlz55Gadg2nz5xFQUEBtmzd8eCavYc3lVAoFEhNu4avv/nO8F7f3j0xacpbWBuzATqdDqcSTxe7Rq5SpUqIXhuLatU8EH8iAV07d4LcTo4bN25i89btuH49HR7uVZGZqcbGTVsgk8mMfkDK5baG7V+7no4VK1ehZYvm+PnXPcjOzoFao8HJU6fRJKgRdv68CydPnUbNgBq4np4B9wc/Sk3Jzs554uwliTNixAgcOHAAK1asQG5ursXG1ev1kMlKe5jk8S5eTkHv3r1Nfq7VauHk5Fima/b+nkyr1ZZ63V937cGkCVFo1jQYv+zag1937TGMaWj8AOgLH38gp7CwEEsXfQoARs3g3+tWUqOoVCqheySzTqcr8aANUDQbqNOV/u8jqkjY7BERVXAuKhWysrKeuFz4i11Nfjbo5f74/T8XkK/TYUC/Prh16xaysrPh6uoCV9eio525ubno2SMM53+/ALcqVQwzBJUqVcKIYYORdPESbGxsMHrkcDQNDkJq6sNTWPSFevj5+SI9IwM9wl9Et66dAACFBQW4cbPoRi4eHlWRdPEyHBzsER7W1Wgmo12b1kV/Q1gXnD33OypXdsVLPbtj1+7fkJ5+A/YO9hg+NBJ2dnaYO2cWfvhxM9IzbqByZVe0bNH8sXW5np5u8dPHyLLat2+PoKAgyR7JX7V6HW7dvm3yc4VCgcxMNQ4cPGz0vkrljOfq1cWJhFPILyjA7j17DZ9VreqGW7dvI+FkIq6mpJhsTNesjUXvXj1wPD4BDRs8Z3g/P78A8ScScOToMRQW6qHVaiGTyaDTPTx4o9XpkHzlqsncer2+6LEuvbpj85btiD9xEnPnzIIMRc3bX/46xVQmAwoK8hF/IgF169bBmbPn0bVrZ8THJyA17Ro6tG9X4nbu3r1r+O8MERljs0dEVMHJ5XLo9UXXcMnlpv+30K/vSyY/a94sGM2bBT92O0qlEs2bNUXzZsXvbPnXzVRMba9QX4iwbp2Lrdc9PMzodUnX83QMDTH8u2lwEzQNbmJ43a1r8TEBYEA/07Msf5eYeAaNGpl/l0SquKp7VkPi6TMmP/f38zXcCfNRfXr3RPiLXbF7zz4cjTuO5o/MiL/QvBk2b9mOtevWo3HjhvD38ytxbJlMhlmz58LB3h4Txr0GAOjcKRQbftgEZ2cnhId1xW/7DmDeJ5/Bzs7OqGl0dXFBYK2aSE6+iqpubsXGjox4Gfv2H8SevftRzcMdPboXfV9VKmc8Oifo/eDunQ2efx47fv4Ft//8L2a9Ox1Lv1yOqf+aDqVSiRfDupZ4CjkA3Lh5E3Xr1jZZP6KKjM0eERGhVs0AJCVdQoNHjuxLib3SXnQEk47EHcfCBfNExyArVrtWTSxKTjb5+ez3333s+n9ddwoAq6NjAJg+ADNsyCtGr4dEDsKQyEFG7w0fGonhQyMNr9u0bllsnI6h7dExtD0AIDCwJma/P6NovMERhmXah7Q1PG7B1N/TNDgITYODHowZYnRwZuL414qtW5LLyVcxcviQUi1LVNGUfLUuERFVKGHdumDz1u2iY5j0wax3REcoUWFhIVJT01CnNh+oTk/P398P166li45htVJT0+Dj4y06BpEksdkjIiL069MLW7btEB3D6hw6fBSNGzW02I06qGKSy+VQOTvj/O//MXusX7Zv+keWlao/bt1CZVfXx56CTlSRsdkjIiJ4eLjDydERSUmXREexKouXfoWxDx4YT2SOLp1DceDgkScvSEZ+3LQF3cO7iY5BJFls9oiICAAwdcpEzP7oY9ExrMaNm38gJSUV7du1ER2FyoFBA/sjel2s6BhWJ3rdBgwb+sqTFySqoNjsERERAKBH9xdxOTkZly6bvlEEPTRt+kxMe3OK6BhUTnh7ecLJyQmJp8+KjmI1TiWegaOjA3y8eb0ekSls9oiIyOCTf3+IcRPYwDxJ3LF4pKSkYuDL/URHoXJk5rtvY8bMD0THsBozZs7GzBnTRMcgkjQ2e0REZBDaIQTe3t5YuPgL0VEkS6fTIWr8ZKxYvkR0FCpnQtq2RmFBIXbt3vvkhSu4XXv2Ql9YWOKjHYjoITZ7RERk5JvlS7FmbSwOH4kTHUWSIga/ilGvDkX9enVFR6Fy6KsvF+GNN6cjL08rOopkabVaTH1zOpYvWyw6CpHksdkjIiIjdnZybPohBqOjJuJC0kXRcSRl0pS34O7uhonjo0RHoXKqhr8fxkWNwuBhvMurKYOHjUbUmFHw9/MVHYVI8tjsERFRMTX8/fD5p3PRd0AkEk4mio4jCeMmTkFmphrLli4UHYXKuXFRo6FSOePtGbNER5Gct9+ZBWdnJ4wfO1p0FCKrwGaPiIhKVL9eXWzZtB4jRo3F6ugY0XGEyc7JQXivflAoKiF61dei41AFsfLrL5B08RJmvj9HdBTJeO/9Obh4+TJWfs1riolKi80eERGZVKd2II4d3osff9qCgZHDkZmpFh3pmfpp8za0aB2KiIEDsHDBPNFxqILZvDEWyVeuYuSY8dDr9aLjCFNYWIhRr01AcvJV/PRDxT3wRPQ02OwREdFjOTo6YOumDegRHoY27btg1gcf4fbtP0XH+kfFHYtHx649sHptDPbt3oEhkYNER6IKKib6W/j5+qBV204V8hraC0kX0bpdZ/j6eCN27bei4xBZHbnoAEREZB2GRA5CxMD++HzRFwjt0h2NGj6PkSOGoWWL5nBychQdz2wZGTew4YdNiFn/Pap5eODjubPRvFmw6FhEmPXedHTt0gmRQ0eiXds2mPbmZHh5eoqO9Y/KysrGe7M+xKEjcfhyyWdo2aK56EhEVkmmVqsr7nkBpaBWq+Hq6io6htVi/czD+pmH9TPPk+p36Egc1m/YiNNnzkGpVCIwsCZqBQSgqrsb7OR2zzDp09Bj3/5D8PSsjkuXk5GenoEqlSsjrFtnDBzQFx4e7mZvQer73/z58xEREQEfHx/RUUok9fqJ8s23a/Dtqmi0btUCr08ciwbPPyc6kkWdP/8fLFq6DEfjjmPEsMEYPXKYkBzc/8zD+pnHkvWTu7i4lGkFjUaDsq5jzeOp1WpJ55P6eKyfeVg/87B+5nlS/XqEh6FHeBgAICsrC8lXruJqShru3LkDrVZXbPm8vFxUqqS0WD5zxpPJbNCrZzi8PKsjMLAW/Hx9kJOTU6H2PwBwcnKy2Jj8/j6b8aZOmYg3Jk/Aps3bMPWtGUhPz0BQ44ZoH9IWQY0bwcuzOhwcHGBjI+0rdfT6Qty9ew8ZN27izNlzOHjoCE6fPgsfH2+MGf0qvl62GDKZrNTjcf+T1nisn3ksWT+exklERGZTqVQIbhKE4CZBJpeR+v9ciayFTCZDvz690K9PL2i1Opw8lYhDh49iyRfL8ccff+De/fvI1+XDxtZyDZ9ery9T81UaTo6O8PSsjoYNnsf4sWPQNDgICoXCotsgqujY7BERERFZKYXCDq1avoBWLV8wej8tLQ3+/v4W2w4P1hBZJ2nP8RMREREREdFTYbNHRERERERUDrHZIyIiIiIiKofY7BEREREREZVDbPaIiIiIiIjKITZ7RERERERE5RAfvUBEREQWkZWVheQrV5Gaeg3//d//oNXqnnosjUYNFxdXi2XLy8tFpUpKo/dsbGRwcnSEl5cnAmvVhK+vD2xtbS22TSIi0djsERER0VPbf+AQVq+JwYmTp2Bvr0RgrVoICPCHe1U32Nk9/QOyH230LPEsb6VSWey9goICZNy4ifgTJ3E5+Qqup2fAza0KXurZHUMGD0I1Dw/zN0xEJBCbPSIiIiqT/Px8fLZwKVZHx6BRwwYYOWIIli9bBIXi6Zs7qUjPuIHvf9iE7r0GwMO9Kt6f+Q5eaN5UdCwioqfCa/aIiIio1KLXrUej4FbIycnB8SP7ELv2W3TuFFouGj0A8PH2whuTJyDh2AG8+85bePudWejT/xXcun1bdDQiojLjzB4RERE90d279/DKkFehVCpx5MBuVK5suevppKp1qxbYu3s7ftq8DaGdu2P6tKkYEjlIdCwiolLjzB4RERE91qVLyWjZtiP69X0JG2JWVYhG71F9evfEvt07sH7DRkyeOk10HCKiUmOzR0RERCadOXsOL/UbhO++WYahgyNExxGmWjUP7Ni6EXl5Wgx79TXRcYiISoXNHhEREZUoJTUNgyJH4Mfv16JZ0yai40jCsqWfQ6VSYepbM0RHISJ6IjZ7REREVIxOl4++AyKxYvkSPFe/nug4krJk4XxoNFlYvPQr0VGIiB6LzR4REREVMzpqAoYPjUTb1q1ER5GkmOiVWPndGiQlXRIdhYjIJJlardaLDiFlarUarq4V60J0S2L9zMP6mYf1Mw/rZx6p12/+/PmIiIiAj49Psc8OHYnD54u+wG+/bhOQzHrEHYvHv6bNwM6tG0VHKUbq+5/UsX7mYf3MY8n6yV1cXMq0gkajQVnXsebx1Gq1pPNJfTzWzzysn3lYP/OwfuaRev0AwMnJqcQxP/jw31i3ZqVFt1UetWr5AgJq1MDOX3YjYmB/s8aqaPuf1Mdj/czD+pnHkvXjaZxERERksG3Hz6gdWAt1ageKjmIVPvn3bHzy6ULRMYiISsRmj4iIiAwWfL4E783gs+RKy8vLEzUDauDgoSOioxARFcNmj4iIiAAAt//8E/fu3UP9enVFR7EqkyZE4cvl34iOQURUjFx0ACIiIpKGnzZvQ6+e3UXHAABs2boDubm5aNWqBc6d/x3ZWdnQ6/VQ2ivhXrUq2raRzl1CQ9q1QdT4ydDr9ZDJZKLjEBEZcGaPiIiIAAA7f96Fl3qGi45hcOHiw8caHI9PgCYrC9evp2Pb9p8xacpb2PPbfnHhHiGTyRBQwx+XL18RHYWIyAhn9oiIiAgAcOVqCurVlc4pnBpNltHrqDEjDf+O3bAR67/fCG8vT9SvLz5z61YtEHc8HnXq8MY2RCQdnNkjIiKqgBQKBXJycgyvdfn5kMlksLOzjuPAEQP7w9bGBilpaaKjAACCghrhzNnzomMQERlhs0dERFQBhYSEIDY21vA6OysbKpWzwERl5+jkhLw8regYAAA/Xx+kp2eIjkFEZMQ6Dt8RERGRRTVp0gTnz5/HpEmTEBISgtu3/4SDg4PoWGWSnZ0NVxeV6BgAAJWzM7IfmSklIpICNntEREQV1IQJE3D9+nUkJiZCqVTCmu4jGb1uPRQKBUI7hIiOAgDQA1ZVPyKqGNjsERERVWC+vr7w9fXF/+7cwcrVMaLjGHH526zd8hXfQavV4np6OtRqDV7u31dQXxOh+wAABDdJREFUsuKys3Pg5OQkOgYRkRE2e0RERAQXlQpZWVlPXvAZql+vjuHfjz5XLzCwJgJq+KNe3TolrSbE9fR0+Hh7iY5BRGSEzR4RERFBLpdDrwfy8/Mhl4v9edC4adkemH7mZNw/lKT0EhPPoFGjBqJjEBEZYbNHREREAIBaNQOQlHQJDRo8JzSHFJq3sjoSdxwLF8wTHYOIyAgfvUBEREQAgLBuXbB563bRMaxOYWEhUlPTUKc2H6hORNLCZo+IiIgAAP369MKWbTtEx7A6hw4fReNGDSGT8X6cRCQtbPaIiIgIAODh4Q4nR0ckJV0SHcWqLF76FcZGjRIdg4ioGDZ7REREZDB1ykTM/uhj0TGsxo2bfyAlJRXt27URHYWIqBiZWq3Wiw4hZWq1Gq6urqJjWC3Wzzysn3lYP/Owfuax5vp16tYLMdEreQ1aKQwZPgadQkPQp3dP0VGMWPP+JwWsn3lYP/NYsn5yFxeXMq2g0WhQ1nWseTy1Wi3pfFIfj/UzD+tnHtbPPKyfeay5fvPnfYhxE6Zgz6/bLLa98ijuWDxSUlIxfNXXZo/F/U9a47F+5mH9zGPJ+vE0TiIiIjIS2iEE3t7eWLj4C9FRJEun0yFq/GSsWL5EdBQiIpPY7BEREVEx3yxfijVrY3H4iPU98+5ZiBj8Kka9OhT169UVHYWIyCQ2e0RERFSMnZ0cm36IweioibiQdFF0HEmZNOUtuLq6YOL4KNFRiIgei80eERERlaiGvx9i136LvgMikXAyUXQcSRg3cQoyM9VY8MlHoqMQET0Rmz0iIiIyKahxI2zZtB4jRo3F6ugY0XGEyc7JQXivflAoKiHaAjdkISJ6FtjsERER0WPVqR2IY4f34seftmBg5HBkZqpFR3qmftq8DS1ahyLi5f5YuGCe6DhERKUmFx2AiIiIpM/R0QFbN21A9Lr1aNO+Cwb0643xY8fAw8NddLR/TNyxeMyYORsqlTP27d6BatU8REciIioTzuwRERFRqQ2JHISzp+Lg5OSE0C7dETF4BPb8th85OXdFR7OIjIwb+GzhUjRrGYI5cz/Bx3NnY/PGWDZ6RGSVOLNHREREZSKXy/Hm1Nfx5tTXsW//QayOjsHkqdOgVCoRGFgTtQICUNXdDXZyO9FRn0CPffsPwdOzOi5dTkZ6egbc3KqgV49wbN+yEdXZ4BGRlWOzR0RERE8ttEMIQjuEQKPRQCaTIfnKVVxNScOdO3eg1eqeelyNRg0XF1eL5czLy0WlSkqj92QyG/TqEQ4vr+oIDKwFP18f2NraWmybRESisdkjIiIii1CpVAhuEoTgJkFmj5WWlgZ/f38LpCqi0Wjg4uJisfGIiKwBr9kjIiIiIiIqh9jsERERERERlUNs9oiIiIiIiMohNntERERERETlEJs9IiIiIiKicojNHhERERERUTn0f0vnzf4WOUR9AAAAAElFTkSuQmCC;" vertex="1" parent="1">
          <mxGeometry x="-397" y="-204" width="734.93" height="518" as="geometry" />
        </mxCell>
      </root>
    </mxGraphModel>
  </diagram>
</mxfile>
